<svg xmlns="http://www.w3.org/2000/svg" xmlns:xlink="http://www.w3.org/1999/xlink" preserveAspectRatio="xMidYMid" width="47" height="29.844" viewBox="0 0 47 29.844">
  <defs>
    <style>
      .cls-1 {
        fill: #3b8104;
        fill-rule: evenodd;
      }
    </style>
  </defs>
  <path d="M23.681,29.837 C12.832,29.942 6.023,22.907 -0.017,14.902 C5.994,7.066 12.683,-0.069 23.574,0.002 C34.415,0.073 41.079,7.201 47.001,14.952 C41.168,22.562 34.482,29.731 23.681,29.837 ZM23.679,8.044 C19.326,8.015 16.478,10.801 16.533,15.030 C16.586,19.016 19.921,22.361 23.734,22.251 C27.393,22.147 30.530,18.960 30.657,15.219 C30.801,10.981 27.972,8.072 23.679,8.044 ZM23.492,18.131 C21.851,18.131 20.520,16.796 20.520,15.149 C20.520,13.502 21.851,12.166 23.492,12.166 C25.133,12.166 26.464,13.502 26.464,15.149 C26.464,16.796 25.133,18.131 23.492,18.131 Z" class="cls-1"/>
</svg>
