<?xml version="1.0" encoding="utf-8"?>
<!-- Generator: Adobe Illustrator 16.0.0, SVG Export Plug-In . SVG Version: 6.00 Build 0)  -->
<!DOCTYPE svg PUBLIC "-//W3C//DTD SVG 1.1//EN" "http://www.w3.org/Graphics/SVG/1.1/DTD/svg11.dtd">
<svg version="1.1" id="图层_1" xmlns="http://www.w3.org/2000/svg" xmlns:xlink="http://www.w3.org/1999/xlink" x="0px" y="0px"
	 width="476.493px" height="476.493px" viewBox="0 0 476.493 476.493" enable-background="new 0 0 476.493 476.493"
	 xml:space="preserve">
<g>
	<path fill="#F26D4F" d="M238.246,100.846c-75.882,0-137.399,61.518-137.399,137.399c0,75.889,61.518,137.401,137.399,137.401
		c75.888,0,137.401-61.513,137.401-137.401C375.647,162.364,314.134,100.846,238.246,100.846L238.246,100.846z M238.246,358.74
		c-66.293,0-120.224-54.2-120.224-120.494c0-66.293,53.931-120.226,120.224-120.226c66.295,0,120.226,53.933,120.226,120.226
		C358.472,304.54,304.541,358.74,238.246,358.74L238.246,358.74z M238.246,358.74"/>
	<path fill="#F26D4F" d="M293.086,187.97l-80.621,81.12l-36.305-36.303c-3.354-3.354-8.791-3.354-12.146,0
		c-3.353,3.354-3.353,8.787,0,12.144l42.506,42.51c3.354,3.35,8.791,3.35,12.146,0c0.401-0.402,0.753-0.835,1.059-1.289
		l85.506-86.038c3.352-3.354,3.352-8.789,0-12.144C301.876,184.616,296.44,184.616,293.086,187.97L293.086,187.97z M293.086,187.97"
		/>
</g>
</svg>
