<svg xmlns="http://www.w3.org/2000/svg" xmlns:xlink="http://www.w3.org/1999/xlink" preserveAspectRatio="xMidYMid" width="54" height="54" viewBox="0 0 54 54">
  <defs>
    <style>
      .cls-1 {
        fill: #faa701;
        fill-rule: evenodd;
      }
    </style>
  </defs>
  <path d="M27.000,54.000 C12.088,54.000 -0.000,41.912 -0.000,27.000 C-0.000,12.089 12.088,-0.000 27.000,-0.000 C41.911,-0.000 54.000,12.089 54.000,27.000 C54.000,41.912 41.911,54.000 27.000,54.000 ZM33.485,12.193 L29.111,20.251 C27.945,22.434 27.232,23.886 26.971,24.605 L26.897,24.605 C26.128,22.856 23.957,18.719 20.384,12.193 L16.271,12.193 L23.919,25.331 L17.648,25.331 L17.648,28.234 L24.999,28.234 L24.999,32.235 L17.648,32.235 L17.648,35.175 L24.999,35.175 L24.999,41.000 L28.646,41.000 L28.646,35.175 L35.736,35.175 L35.736,32.235 L28.646,32.235 L28.646,28.234 L35.736,28.234 L35.736,25.331 L29.651,25.331 L37.374,12.193 L33.485,12.193 Z" class="cls-1"/>
</svg>
