<svg xmlns="http://www.w3.org/2000/svg" xmlns:xlink="http://www.w3.org/1999/xlink" preserveAspectRatio="xMidYMid" width="54" height="54" viewBox="0 0 54 54">
  <defs>
    <style>
      .cls-1 {
        fill: #53d37e;
        fill-rule: evenodd;
      }
    </style>
  </defs>
  <path d="M27.000,54.000 C12.088,54.000 -0.000,41.912 -0.000,27.000 C-0.000,12.089 12.088,-0.000 27.000,-0.000 C41.911,-0.000 54.000,12.089 54.000,27.000 C54.000,41.912 41.911,54.000 27.000,54.000 ZM43.875,28.688 L43.875,25.313 L47.250,25.313 L47.250,28.688 L43.875,28.688 ZM39.146,40.825 L36.759,38.438 L39.146,36.052 L41.532,38.438 L39.146,40.825 ZM37.253,13.961 L39.588,11.621 L41.923,13.961 L39.588,16.301 L37.253,13.961 ZM25.312,43.875 L28.687,43.875 L28.687,47.250 L25.312,47.250 L25.312,43.875 ZM27.000,28.728 L11.812,28.728 C10.880,28.728 10.125,27.972 10.125,27.040 C10.125,26.108 10.880,25.352 11.812,25.352 L25.312,25.352 L25.312,8.438 C25.312,7.505 26.068,6.750 27.000,6.750 C27.932,6.750 28.687,7.505 28.687,8.438 L28.687,27.040 C28.687,27.972 27.932,28.728 27.000,28.728 ZM11.583,14.044 L13.969,11.658 L16.356,14.044 L13.969,16.431 L11.583,14.044 ZM16.032,38.528 L13.697,40.869 L11.362,38.528 L13.697,36.188 L16.032,38.528 Z" class="cls-1"/>
</svg>
