<svg xmlns="http://www.w3.org/2000/svg" xmlns:xlink="http://www.w3.org/1999/xlink" preserveAspectRatio="xMidYMid" width="51" height="54" viewBox="0 0 51 54">
  <defs>
    <style>
      .cls-1 {
        fill: #ff2d55;
        fill-rule: evenodd;
      }
    </style>
  </defs>
  <path d="M44.200,54.000 L6.800,54.000 C3.044,54.000 -0.000,50.978 -0.000,47.250 L-0.000,10.125 C-0.000,6.397 3.044,3.375 6.800,3.375 L13.600,3.375 L13.600,1.687 C13.600,0.756 14.361,-0.000 15.300,-0.000 C16.239,-0.000 17.000,0.756 17.000,1.687 L17.000,3.375 L34.000,3.375 L34.000,1.687 C34.000,0.756 34.761,-0.000 35.700,-0.000 C36.639,-0.000 37.400,0.756 37.400,1.687 L37.400,3.375 L44.200,3.375 C47.955,3.375 51.000,6.397 51.000,10.125 L51.000,47.250 C51.000,50.978 47.955,54.000 44.200,54.000 ZM47.600,10.125 C47.600,8.261 46.078,6.750 44.200,6.750 L37.400,6.750 L37.400,8.438 C37.400,9.369 36.639,10.125 35.700,10.125 C34.761,10.125 34.000,9.369 34.000,8.438 L34.000,6.750 L17.000,6.750 L17.000,8.438 C17.000,9.369 16.239,10.125 15.300,10.125 C14.361,10.125 13.600,9.369 13.600,8.438 L13.600,6.750 L6.800,6.750 C4.922,6.750 3.400,8.261 3.400,10.125 L3.400,13.500 L47.600,13.500 L47.600,10.125 ZM40.800,47.250 L37.400,47.250 C35.522,47.250 34.000,45.739 34.000,43.875 L34.000,40.500 C34.000,38.636 35.522,37.125 37.400,37.125 L40.800,37.125 C42.678,37.125 44.200,38.636 44.200,40.500 L44.200,43.875 C44.200,45.739 42.678,47.250 40.800,47.250 ZM40.800,40.500 L37.400,40.500 L37.400,43.875 L40.800,43.875 L40.800,40.500 ZM40.800,33.750 L37.400,33.750 C35.522,33.750 34.000,32.239 34.000,30.375 L34.000,27.000 C34.000,25.136 35.522,23.625 37.400,23.625 L40.800,23.625 C42.678,23.625 44.200,25.136 44.200,27.000 L44.200,30.375 C44.200,32.239 42.678,33.750 40.800,33.750 ZM40.800,27.000 L37.400,27.000 L37.400,30.375 L40.800,30.375 L40.800,27.000 ZM27.200,47.250 L23.800,47.250 C21.922,47.250 20.400,45.739 20.400,43.875 L20.400,40.500 C20.400,38.636 21.922,37.125 23.800,37.125 L27.200,37.125 C29.078,37.125 30.600,38.636 30.600,40.500 L30.600,43.875 C30.600,45.739 29.078,47.250 27.200,47.250 ZM27.200,40.500 L23.800,40.500 L23.800,43.875 L27.200,43.875 L27.200,40.500 ZM27.200,33.750 L23.800,33.750 C21.922,33.750 20.400,32.239 20.400,30.375 L20.400,27.000 C20.400,25.136 21.922,23.625 23.800,23.625 L27.200,23.625 C29.078,23.625 30.600,25.136 30.600,27.000 L30.600,30.375 C30.600,32.239 29.078,33.750 27.200,33.750 ZM27.200,27.000 L23.800,27.000 L23.800,30.375 L27.200,30.375 L27.200,27.000 ZM13.600,47.250 L10.200,47.250 C8.322,47.250 6.800,45.739 6.800,43.875 L6.800,40.500 C6.800,38.636 8.322,37.125 10.200,37.125 L13.600,37.125 C15.477,37.125 17.000,38.636 17.000,40.500 L17.000,43.875 C17.000,45.739 15.477,47.250 13.600,47.250 ZM13.600,40.500 L10.200,40.500 L10.200,43.875 L13.600,43.875 L13.600,40.500 ZM13.600,33.750 L10.200,33.750 C8.322,33.750 6.800,32.239 6.800,30.375 L6.800,27.000 C6.800,25.136 8.322,23.625 10.200,23.625 L13.600,23.625 C15.477,23.625 17.000,25.136 17.000,27.000 L17.000,30.375 C17.000,32.239 15.477,33.750 13.600,33.750 ZM13.600,27.000 L10.200,27.000 L10.200,30.375 L13.600,30.375 L13.600,27.000 Z" class="cls-1"/>
</svg>
