<?xml version="1.0" encoding="utf-8"?>
<!-- Generator: Adobe Illustrator 19.1.1, SVG Export Plug-In . SVG Version: 6.00 Build 0)  -->
<svg version="1.1" id="图层_1" xmlns="http://www.w3.org/2000/svg" xmlns:xlink="http://www.w3.org/1999/xlink" x="0px" y="0px"
	 viewBox="0 0 1189 600" style="enable-background:new 0 0 1189 600;" xml:space="preserve">
<style type="text/css">
	.st0{fill:#F29600;}
	.st1{fill:#231815;}
	.st2{fill:url(#SVGID_1_);}
</style>
<g>
	<g>
		<path class="st0" d="M246.7,79.1h-46.5v7.2h-99.3v19.5c0,0,46.5,0,99.3,0v8.4h-90.3v80h13.4h31.9h45.1v10.2H107v20.7h217.7
			c15-0.4,16.7-14.6,16.7-14.6v-13.6h-37.9v7.5h-56.8v-10.2h60.9c31.2-1.1,30-27.2,30-27.2v-52.8h-1.7h-89.1v-8.4
			c47.9,0,89.9,0,93.3,0c8.8,0,9.9-8.3,9.9-8.3V86.3H246.7V79.1z M200.2,132.4v12.8h-45.1v-12.8H200.2z M155.2,176.1v-12.8h45.1
			v12.8H155.2z M246.7,163.3h46.1v12.8h-46.1V163.3z M292.8,132.4v12.8h-46.1v-12.8H292.8z"/>
		<path class="st0" d="M292.6,262.8H203c-7.2,0-6.4-5.1-6.4-5.1v-23h-42.1v27.7c0.2,26.3,26.2,24.6,26.2,24.6h98.1
			c14.8-0.4,13.8-10.8,13.8-10.8V262.8z"/>
		<path class="st0" d="M108.9,234.7l-2.3,52.3h24.1c15.8-0.3,15.5-14.7,15.5-14.7l1.7-37.6H108.9z"/>
		<path class="st0" d="M623.3,106v180c0,0,6.1,0,25.5,0c19.4,0,17.5-17.2,17.5-17.2v-24.7h39c19.6,0,30.2-11.6,30.9-28.1v-77.6h-70
			v-1v-26.7h56.8c10.4,0,18.2-2.8,19.1-13.2V82.5h-90.2C632.2,82.5,622.6,89.5,623.3,106z M694.7,164v42.5c0,8.5-2.9,12.5-12.1,11.9
			h-16.3v-52.9V164H694.7z"/>
		<path class="st0" d="M791.8,110.7h58.1c11.9,0,18.2-3.6,19.1-14.1V82.5h-91.6c-19.8,0-29.3,4.5-28.7,20.1v182.5
			c0,0,6.1,0.8,25.5,0.8c19.4,0,17.6-17.2,17.6-17.2v-62.2V164h26.7c0,0,0,121.8,0,122.2h42v-120l5.9-27.8h-74.7V110.7z"/>
		<path class="st0" d="M221.7,253.8h59.5c1.9,0,3.6,0.2,5.1,0l-7-15.3c0,0-2-4.2-7.4-4.2c-5.3,0-66.9,0-66.9,0l4.4,11.3
			C212.8,253.5,221.7,253.8,221.7,253.8z"/>
		<path class="st0" d="M322.3,232h-28.7l6.1,54h41.6l-5.1-43.4C335.8,231.4,322.3,232,322.3,232z"/>
		<path class="st0" d="M581.1,218.7c0,0-30.1,0-35.5,0c-7,0-7.8,6.2-7.8,6.2l-5.5,37.2h-23.8v-52h84.1v-23.7h-84.1v-22.7h84.8v-21.2
			h13.7l-25.9-48.3c0,0-5.2-11.9-24.6-11.8H411.2c0,0-16.4-1.6-23.8,13.4l-27.1,46.7H374v21.2h84.8v22.7h-84.1v23.7h84.1v52h-25.3
			l-5.5-37.2c0,0-0.8-6.2-7.8-6.2c-5.3,0-35.5,0-35.5,0l5.1,43.5h-30.8V286h234.3c15.2,0,16.2-11.7,16.2-11.7v-12.1h-33.7
			L581.1,218.7z M414.9,135.7l14.4-27.7h109l15.6,27.1c0.5,0.7,1.7,2.4,4.5,3.9H410.6C412.6,138.2,414.1,137.2,414.9,135.7z"/>
	</g>
	<g>
		<path class="st1" d="M135.8,430.5c0,2-0.8,4.1-2.3,5.6c-1.5,1.6-3.6,2.3-5.6,2.3h-21.2V327.3c0-2,0.8-4.1,2.3-5.6
			c1.6-1.6,3.6-2.3,5.6-2.3h21.2V430.5z"/>
		<path class="st1" d="M367.9,366.1c-7.9-6.8-17.9-10.2-30.1-10.2c-13.4,0-24.3,4.3-32.7,12.7c-8,8.2-12.1,18.4-12.1,30.7
			c0,11.6,3.8,21.4,11.5,29.3c7.7,7.9,17.9,11.2,30.6,11.2c7.8,0,13.7-1.8,19.3-6.6c0,0,0.2,5.2,6.4,5.2c6.2,0,18.9,0,18.9,0v-45.8
			C379.8,381.8,375.8,372.9,367.9,366.1z M354.1,404.5c0,4.7-1.3,8.9-4.6,12.7c-3.3,3.7-7.4,4.9-11.8,5c-4.6,0.1-11.1-2.2-14.8-7.6
			c-3.3-4.8-5-10.1-5-15.9c0-6,1.7-11.6,5-16.8c3.8-6,8.8-9.1,15-9.1c2.6,0,5.2,0.6,7.8,1.8c6.5,3.1,8.6,11,8.4,23.6V404.5z"/>
		<path class="st1" d="M545.7,369.6c-9,7.7-13.5,17.6-13.5,29.8c0,11.9,4.4,21.5,13.2,28.8c8.3,7,18.9,10.5,31.8,10.5h35.8v-11.5
			c0,0-1.5-3.9-4.9-3.9c-3.4,0-25.1,0-25.1,0c-6.9,0-12.5-2.7-16.7-7c-4.2-4.3-6.3-10.9-6.3-17.4c0-6.6,2.3-14,6.8-18.3
			c4.5-4.4,10.3-6.5,17.3-6.5c0,0,19.8,0,24.4,0c4.6,0,4.6-4.4,4.6-4.4v-11h-34.5C565.4,358.6,554.4,362.3,545.7,369.6z"/>
		<path class="st1" d="M847.9,362.5c-7.3-4.4-15.5-6.6-24.8-6.6c-11.6,0-20.3,3.1-26,9.2c-7.2-6.1-15.8-9.2-26-9.2
			c-9.4,0-17.6,2.2-24.8,6.6c-8.3,5.2-12.5,12.2-12.5,21v55h16.3c2,0,4.1-0.8,5.6-2.3c1.6-1.6,2.3-3.6,2.3-5.6v-42.9
			c0-5.1,1.6-8.9,3.9-11.1c2.3-2.1,5.1-3.8,9.2-3.8c4.2,0,7.4,1.2,10.2,3.8c2.8,2.6,3.6,6.9,3.6,11.1v50.9H801c2,0,4.1-0.8,5.6-2.3
			c1.6-1.6,2.3-3.6,2.3-5.6v-42.9c0-5.1,1.7-9.1,4-11.2c2.3-2.1,5-3.8,10.1-3.7c3.5,0.1,7,1.6,9.8,4.2c2.8,2.6,3.6,7.1,3.6,10.7
			v50.9h16.1c2,0,4.1-0.8,5.6-2.3c1.6-1.6,2.3-3.6,2.3-5.6v-47.1C860.5,374.7,856.3,367.7,847.9,362.5z"/>
		<path class="st1" d="M180.5,366H134v19.5h46.6v53h21.2c2,0,4.1-0.8,5.6-2.3c1.6-1.6,2.3-3.6,2.3-5.6V319.4h-21.2
			c-2,0-4.1,0.8-5.6,2.3c-1.5,1.6-2.3,3.6-2.3,5.6V366z"/>
		<path class="st1" d="M261.7,320.7c-33.9,0-31.3,31.3-31.3,31.3V366h-11.6v19.5h11.6V438c0,0,14.1,0,20.6,0c6.5,0,6.8-7.1,6.8-7.1
			v-45.3h27V366h-27v-15.3c0-13.7,9.8-13.7,9.8-13.7h11.5c6.2,0,5.6-5.2,5.6-5.2l1.4-11.1H261.7z"/>
		<path class="st1" d="M514.2,416.6c-6.1,0-11.1,5-11.1,11.1c0,6.1,5,11.1,11.1,11.1c6.1,0,11.1-5,11.1-11.1
			C525.3,421.6,520.3,416.6,514.2,416.6z"/>
		<linearGradient id="SVGID_1_" gradientUnits="userSpaceOnUse" x1="670.8096" y1="434.5972" x2="670.8096" y2="343.2453">
			<stop  offset="0" style="stop-color:#F9BE00"/>
			<stop  offset="1" style="stop-color:#ED7700"/>
		</linearGradient>
		<path class="st2" d="M670.8,342.6c-25.6,0-46.3,20.7-46.3,46.3c0,25.6,20.7,46.3,46.3,46.3c25.6,0,46.3-20.7,46.3-46.3
			C717.1,363.3,696.4,342.6,670.8,342.6z M670.8,413.8c-13.7,0-24.9-11.1-24.9-24.9c0-13.7,11.2-24.9,24.9-24.9
			c13.7,0,24.9,11.1,24.9,24.9C695.7,402.6,684.5,413.8,670.8,413.8z"/>
		<path class="st1" d="M495,438.5h-30c-1.6,0-3.2-0.3-4.7-1c-1.5-0.7-2.9-1.6-3.9-2.8l-69.1-76h30.1c1.6,0,3.2,0.3,4.7,1
			c1.5,0.7,2.9,1.7,3.9,2.8L495,438.5z"/>
		<path class="st1" d="M386.3,438.5h30c1.6,0,3.2-0.3,4.7-1c1.5-0.7,2.9-1.6,3.9-2.8l69.1-76H464c-1.6,0-3.2,0.3-4.7,1
			c-1.5,0.7-2.9,1.7-3.9,2.8L386.3,438.5z"/>
		<path class="st0" d="M780.7,456.9c-26.7-7.7-66-12.6-109.9-12.6c-43.8,0-83.1,4.9-109.8,12.6H780.7z"/>
	</g>
</g>
</svg>
