<svg xmlns="http://www.w3.org/2000/svg" width="45" height="45" viewBox="0 0 45 45">
  <defs>
    <style>
      .cls-1 {
        fill: #989898;
        fill-rule: evenodd;
      }
    </style>
  </defs>
  <path id="圆角矩形_1_拷贝_2" data-name="圆角矩形 1 拷贝 2" class="cls-1" d="M347.5,1242a22.5,22.5,0,1,1,22.5-22.5A22.5,22.5,0,0,1,347.5,1242Zm15.349-33.36a1,1,0,0,0-1.414,0l-18.385,18.38-8.485-8.48a0.983,0.983,0,0,0-1.414,0l-0.707.7a1.006,1.006,0,0,0,0,1.42l9.192,9.19,0.707,0.71a1,1,0,0,0,1.414,0l19.8-19.8a1.006,1.006,0,0,0,0-1.42Z" transform="translate(-325 -1197)"/>
</svg>
