<svg id="Layer_1" data-name="Layer 1" xmlns="http://www.w3.org/2000/svg" viewBox="0 0 128 128"><defs><style>.cls-1,.cls-2{fill:#a7a7a7;}.cls-2{opacity:0.3;}.cls-3{fill:#d6d6d6;}.cls-4{fill:#f1f1f1;}.cls-5{fill:none;}</style></defs><title>橙牛汽车钱包22</title><g id="_编组_" data-name="&lt;编组&gt;"><g id="_编组_2" data-name="&lt;编组&gt;"><g id="_编组_3" data-name="&lt;编组&gt;"><path id="_路径_" data-name="&lt;路径&gt;" class="cls-1" d="M3858.73,154.62c0.94-7.23,8.55-10.45,14.45-11.2h0l0.17,0c1.07-.07,2,0.4,2.05,1.07a0.92,0.92,0,0,1-.31.73h0a6.92,6.92,0,0,0,.68,10.08c3.79,3.15,8,3.73,22.84,2.7h0c-5,.35-9,2.92-9.43,6h0l-0.58,9c-4,.28-10.71-0.57-15.63-1.33C3860.45,169.74,3857.83,161.5,3858.73,154.62Z" transform="translate(-3836 -112)"/><path id="_路径_2" data-name="&lt;路径&gt;" class="cls-1" d="M3940.93,155.77c-0.41-7.27-7.76-10.92-13.6-12h0l-0.16,0c-1.07-.14-2,0.29-2.13.95a0.91,0.91,0,0,0,.25.74h0a6.94,6.94,0,0,1-1.42,10c-4,2.92-8.22,3.26-23,1.38h0c5,0.64,8.74,3.44,9,6.49h0l-0.08,9c4,0.51,10.73,0,15.7-.42C3938.11,170.76,3941.32,162.69,3940.93,155.77Z" transform="translate(-3836 -112)"/></g><g id="_编组_4" data-name="&lt;编组&gt;"><path id="_路径_3" data-name="&lt;路径&gt;" class="cls-2" d="M3934.24,200.75c0,6.35-15.25,12.75-34.07,12.75s-34.07-6.4-34.07-12.75,15.25-11.5,34.07-11.5S3934.24,194.39,3934.24,200.75Z" transform="translate(-3836 -112)"/><g id="_编组_5" data-name="&lt;编组&gt;"><path class="cls-3" d="M3874.12,174.64c-7.73-1.58-14,2.43-14,8.21,0,6,.71,16.74,6.32,19.55,5.78,2.9,26.64,1.8,33.29,2.54,11.51,1.28,24.79,0,32.2-2,7-1.86,7.85-8.63,7.4-20.72-0.31-8.22-7.64-8.61-13.55-7,0,0-19.86,6.39-27.58,6.39S3874.12,174.64,3874.12,174.64Z" transform="translate(-3836 -112)"/></g><path id="_路径_4" data-name="&lt;路径&gt;" class="cls-3" d="M3871.46,203.7s18,5.9,30.16,5.9c7.42,0,28.25-4.76,31-8.36C3935.14,197.86,3871.46,203.7,3871.46,203.7Z" transform="translate(-3836 -112)"/><g id="_编组_6" data-name="&lt;编组&gt;"><path class="cls-1" d="M3880.39,176.36s-0.82-.2-2.28-0.48a57.77,57.77,0,0,0-6-.93,25.88,25.88,0,0,0-4-.15,6,6,0,0,0-4,1.3,8.53,8.53,0,0,0-2.35,3.85,19.22,19.22,0,0,0-.79,4.81,38.12,38.12,0,0,0,.11,5,31.53,31.53,0,0,0,.64,4.75,13.15,13.15,0,0,0,1.55,4.07,8.91,8.91,0,0,0,2.62,2.83,11.76,11.76,0,0,0,3,1.45,15.73,15.73,0,0,0,2.56.61c1.46,0.22,2.31.27,2.31,0.27l-0.61,0a14.82,14.82,0,0,1-1.73,0,16.16,16.16,0,0,1-2.69-.34,11.07,11.07,0,0,1-3.32-1.3,9.88,9.88,0,0,1-3.11-2.95,14.16,14.16,0,0,1-1.84-4.38,32.62,32.62,0,0,1-.72-4.94,39.14,39.14,0,0,1-.07-5.14,18.68,18.68,0,0,1,.93-5.12,9.26,9.26,0,0,1,2.82-4.31l0.47-.36a4.15,4.15,0,0,1,.61-0.35,5.56,5.56,0,0,1,1.2-.39,11.33,11.33,0,0,1,2.32-.23,26.61,26.61,0,0,1,4.15.34,55.63,55.63,0,0,1,6,1.38C3879.6,176.08,3880.39,176.36,3880.39,176.36Z" transform="translate(-3836 -112)"/></g><g id="_编组_7" data-name="&lt;编组&gt;"><path class="cls-1" d="M3919.68,176.36s0.8-.29,2.23-0.71a55.54,55.54,0,0,1,6-1.38,26.51,26.51,0,0,1,4.15-.34,11.27,11.27,0,0,1,2.32.24,5.56,5.56,0,0,1,1.2.4,4.18,4.18,0,0,1,.61.35l0.47,0.36a9.31,9.31,0,0,1,2.82,4.32,18.7,18.7,0,0,1,.92,5.13,39.2,39.2,0,0,1-.08,5.14,34.48,34.48,0,0,1-.71,4.94,14.52,14.52,0,0,1-1.79,4.41,9.23,9.23,0,0,1-3.13,3,9.85,9.85,0,0,1-3.39,1.16,14.73,14.73,0,0,1-2.71.15,14.09,14.09,0,0,1-1.73-.14l-0.61-.08s0.86,0,2.33-.08a14.3,14.3,0,0,0,2.6-.43,10.23,10.23,0,0,0,3.06-1.31,8.24,8.24,0,0,0,2.61-2.82,13.48,13.48,0,0,0,1.5-4.1,33.37,33.37,0,0,0,.63-4.76,38.37,38.37,0,0,0,.11-5,19.27,19.27,0,0,0-.78-4.82,8.58,8.58,0,0,0-2.34-3.87,5.91,5.91,0,0,0-4-1.32,25.77,25.77,0,0,0-4,.15,57.76,57.76,0,0,0-6.05.93C3920.51,176.16,3919.68,176.36,3919.68,176.36Z" transform="translate(-3836 -112)"/></g><g id="_编组_8" data-name="&lt;编组&gt;"><path class="cls-1" d="M3871.46,203.7l0.63,0.22,1.78,0.58c0.77,0.24,1.71.52,2.79,0.83s2.31,0.6,3.65.94,2.8,0.65,4.34,1,3.19,0.56,4.89.81,3.46,0.45,5.26.6,3.62,0.27,5.45.28l1.37,0,1.36,0c0.93,0,1.82-.08,2.7-0.15,1.78-.14,3.54-0.38,5.23-0.64s3.32-.6,4.87-0.91,3-.68,4.33-1c2.66-.72,4.88-1.33,6.42-1.83s2.41-.79,2.41-0.79-0.83.41-2.32,1c-0.75.31-1.66,0.67-2.71,1.08s-2.25.83-3.58,1.25-2.77.85-4.31,1.26l-2.38.6c-0.82.17-1.66,0.36-2.51,0.51-1.72.31-3.49,0.6-5.34,0.75-0.92.08-1.86,0.16-2.77,0.17l-1.4,0-1.4,0c-1.86,0-3.72-.16-5.54-0.33s-3.6-.44-5.32-0.73-3.36-.67-4.91-1-3-.78-4.33-1.17-2.54-.81-3.6-1.19-2-.74-2.73-1C3872.28,204.12,3871.46,203.7,3871.46,203.7Z" transform="translate(-3836 -112)"/></g></g><path id="_路径_5" data-name="&lt;路径&gt;" class="cls-3" d="M3871.77,167.73s-17.15,1.37-19.21,2.06,1,5,3.71,8.4,13.44-1.2,14.47-1.89S3871.77,167.73,3871.77,167.73Z" transform="translate(-3836 -112)"/><g id="_编组_9" data-name="&lt;编组&gt;"><path class="cls-1" d="M3870.81,167.74s-0.65.13-1.79,0.28-2.77.37-4.74,0.59l-6.7.78c-1.22.14-2.49,0.3-3.76,0.5-0.32,0-.64.1-0.95,0.17a1,1,0,0,0-.68.3,1.87,1.87,0,0,0,0,1.58,11.9,11.9,0,0,0,1.9,3.29,16.45,16.45,0,0,0,2.6,2.67,5.36,5.36,0,0,0,3.05,1.41,7.64,7.64,0,0,0,3-.59,20.27,20.27,0,0,0,4.16-2.27c1-.65,1.46-1.07,1.46-1.07s-0.48.45-1.4,1.15a20.46,20.46,0,0,1-4.1,2.47,7.71,7.71,0,0,1-3.17.71,5.93,5.93,0,0,1-3.36-1.38,15.76,15.76,0,0,1-2.75-2.72,12.47,12.47,0,0,1-2.05-3.46,3.81,3.81,0,0,1-.22-1,1.43,1.43,0,0,1,1.38-1.66c0.33-.07.65-0.12,1-0.16,1.29-.19,2.56-0.33,3.79-0.46,2.46-.26,4.76-0.41,6.73-0.58l4.76-.35C3870.16,167.81,3870.81,167.74,3870.81,167.74Z" transform="translate(-3836 -112)"/></g><path id="_路径_6" data-name="&lt;路径&gt;" class="cls-3" d="M3928.26,167.73s17.15,1.37,19.21,2.06-1.65,5.83-4.39,9.26-12.76-2.06-13.79-2.74S3928.26,167.73,3928.26,167.73Z" transform="translate(-3836 -112)"/><g id="_编组_10" data-name="&lt;编组&gt;"><path class="cls-1" d="M3929.22,167.74s0.62,0.07,1.71.14l4.51,0.33c1.87,0.15,4,.31,6.37.53,1.16,0.12,2.37.25,3.59,0.4,0.61,0.08,1.23.16,1.85,0.28a3,3,0,0,1,.49.12,1.27,1.27,0,0,1,.52.35,1.6,1.6,0,0,1,.35,1.09,5.06,5.06,0,0,1-.5,1.92,13.13,13.13,0,0,1-.9,1.67,19.4,19.4,0,0,1-2.24,2.89,12.48,12.48,0,0,1-2.63,2.21,5.5,5.5,0,0,1-1.49.65,5,5,0,0,1-1.52.1,5.39,5.39,0,0,1-2.46-.85,8.09,8.09,0,0,1-1.53-1.27,7.35,7.35,0,0,1-1.05-1.36,8.44,8.44,0,0,0,1.15,1.27,7.9,7.9,0,0,0,1.57,1.14,5.53,5.53,0,0,0,2.36.69,4.62,4.62,0,0,0,1.38-.14,5,5,0,0,0,1.34-.65,14.17,14.17,0,0,0,2.47-2.18,18.8,18.8,0,0,0,2.13-2.83A7.84,7.84,0,0,0,3948,171a1,1,0,0,0-.18-0.66,1,1,0,0,0-.66-0.27c-0.59-.12-1.21-0.21-1.81-0.3-1.21-.17-2.41-0.31-3.57-0.44l-6.35-.74c-1.86-.21-3.41-0.42-4.49-0.56S3929.22,167.74,3929.22,167.74Z" transform="translate(-3836 -112)"/></g><g id="_编组_11" data-name="&lt;编组&gt;"><path class="cls-3" d="M3867.9,175.67c4.31-15.77,11.64-17.88,31.46-18.4,15.95-.42,27.58-1.58,31,20.5l-31.46,11.57Z" transform="translate(-3836 -112)"/></g><path id="_路径_7" data-name="&lt;路径&gt;" class="cls-4" d="M3920.43,164.57c-3.17-3.37-9.58-4.46-20.19-4.11s-21.23,1.25-23.47,8.91a7.22,7.22,0,0,0-.05,3.77h46.16S3923.6,167.94,3920.43,164.57Z" transform="translate(-3836 -112)"/><g id="_编组_12" data-name="&lt;编组&gt;"><g id="_编组_13" data-name="&lt;编组&gt;"><path class="cls-1" d="M3887.81,172.16a43.94,43.94,0,0,1,7.74-1.53,0.75,0.75,0,0,0,.2-1.47,81.64,81.64,0,0,0-10.69-3.67,0.75,0.75,0,0,0-.4,1.45,81.65,81.65,0,0,1,10.69,3.67l0.2-1.47a46.14,46.14,0,0,0-8.14,1.58,0.75,0.75,0,0,0,.4,1.45h0Z" transform="translate(-3836 -112)"/></g></g><g id="_编组_14" data-name="&lt;编组&gt;"><g id="_编组_15" data-name="&lt;编组&gt;"><path class="cls-1" d="M3913.13,170.72a46.16,46.16,0,0,0-8.14-1.58l0.2,1.47a81.64,81.64,0,0,1,10.69-3.67,0.75,0.75,0,0,0-.4-1.45,81.64,81.64,0,0,0-10.69,3.67,0.75,0.75,0,0,0,.2,1.47,44,44,0,0,1,7.74,1.53,0.75,0.75,0,0,0,.4-1.45h0Z" transform="translate(-3836 -112)"/></g></g><g id="_编组_16" data-name="&lt;编组&gt;"><path class="cls-1" d="M3888,205.35a9.51,9.51,0,0,1,.95-0.6,19.64,19.64,0,0,1,2.68-1.26c0.57-.22,1.2-0.44,1.88-0.63a18.49,18.49,0,0,1,2.15-.53A21.2,21.2,0,0,1,3898,202c0.81-.08,1.62-0.1,2.46-0.1s1.63,0.07,2.44.15,1.59,0.22,2.35.37a27.92,27.92,0,0,1,4,1.17,19.63,19.63,0,0,1,3.66,1.77s-0.38-.15-1-0.39-1.63-.53-2.79-0.85c-0.58-.16-1.21-0.31-1.89-0.45s-1.39-.26-2.12-0.38-1.51-.19-2.28-0.27-1.56-.11-2.37-0.11-1.58,0-2.36.07-1.55.12-2.28,0.24-1.45.22-2.12,0.37-1.3.29-1.88,0.46c-1.15.33-2.11,0.64-2.77,0.9S3888,205.35,3888,205.35Z" transform="translate(-3836 -112)"/></g><g id="_编组_17" data-name="&lt;编组&gt;"><path class="cls-1" d="M3868.61,173l0.21-.84c0.15-.54.34-1.35,0.7-2.34a17.76,17.76,0,0,1,1.62-3.45,15.9,15.9,0,0,1,3.27-3.74,21.12,21.12,0,0,1,5.08-3,31.24,31.24,0,0,1,6.27-1.92,55.29,55.29,0,0,1,6.93-.94c0.59,0,1.19-.11,1.79-0.14l1.8-.06c1.19,0,2.42-.1,3.62-0.07l3.6,0.06,3.59,0.17c1.19,0.07,2.36.2,3.52,0.3s2.3,0.32,3.43.47a26.59,26.59,0,0,1,6.31,1.83,15.76,15.76,0,0,1,2.68,1.49l1.14,0.92c0.37,0.31.66,0.69,1,1a15,15,0,0,1,2.57,4.25c0.31,0.67.54,1.32,0.75,1.92s0.4,1.15.56,1.65c0.33,1,.55,1.8.71,2.34l0.25,0.83-1.14-3.1c-0.18-.49-0.38-1-0.63-1.62s-0.5-1.22-.83-1.86a15.86,15.86,0,0,0-2.65-4,12.35,12.35,0,0,0-4.68-3.13,29.05,29.05,0,0,0-6.17-1.64c-1.11-.14-2.23-0.33-3.37-0.43s-2.31-.21-3.48-0.26l-3.55-.14-3.6,0c-1.21,0-2.38,0-3.58,0l-1.78,0c-0.59,0-1.18.08-1.76,0.12a54.41,54.41,0,0,0-6.83.86c-1.08.26-2.18,0.41-3.19,0.75a23.65,23.65,0,0,0-3,1,20.47,20.47,0,0,0-5,2.75,16.9,16.9,0,0,0-3.31,3.5,17.46,17.46,0,0,0-1.75,3.32c-0.4,1-.65,1.76-0.83,2.29Z" transform="translate(-3836 -112)"/></g><path id="_路径_8" data-name="&lt;路径&gt;" class="cls-4" d="M3882.9,182.74c-2.4-2.38-16.56-6.14-17.27-1.95s0.06,11,3.36,12.49,15.61,1.93,15.48-1.52S3885.29,185.12,3882.9,182.74Z" transform="translate(-3836 -112)"/><path id="_路径_9" data-name="&lt;路径&gt;" class="cls-4" d="M3917.69,182.45c1.14-2.84,16.77-5.67,17.33-1.45s-0.44,11-3.8,12.39-15.67,1.49-15.42-2A28.43,28.43,0,0,1,3917.69,182.45Z" transform="translate(-3836 -112)"/></g><rect id="_路径_10" data-name="&lt;路径&gt;" class="cls-5" x="14" y="26.5" width="100" height="75"/><rect id="_矩形_" data-name="&lt;矩形&gt;" class="cls-5" width="128" height="128"/></g></svg>