<svg id="Layer_1" data-name="Layer 1" xmlns="http://www.w3.org/2000/svg" viewBox="0 0 24 24"><defs><style>.cls-1,.cls-2{fill:none;}.cls-2{stroke:#989898;stroke-linecap:round;stroke-miterlimit:10;}</style></defs><title>8</title><rect class="cls-1" width="24" height="24"/><path class="cls-2" d="M1387.38,1584.58a6.35,6.35,0,0,1-5.55-6.41v-2.06a1,1,0,0,1,1-1h10.3a1,1,0,0,1,1,1v2.33A6.17,6.17,0,0,1,1387.38,1584.58Z" transform="translate(-1376 -1564.41)"/><path class="cls-2" d="M1388,1581.4a1.27,1.27,0,0,1-1.27-1.26v-0.86a1.27,1.27,0,1,1,2.54,0v0.86A1.27,1.27,0,0,1,1388,1581.4Z" transform="translate(-1376 -1564.41)"/><path class="cls-2" d="M1383.69,1575c0-1.84-.59-4.1,1-5.56a4.33,4.33,0,0,1,6.11.18l1.6,1.76" transform="translate(-1376 -1564.41)"/></svg>