<svg id="Layer_1" data-name="Layer 1" xmlns="http://www.w3.org/2000/svg" viewBox="0 0 24 24"><defs><style>.cls-1,.cls-2{fill:none;}.cls-2{stroke:#989898;stroke-linecap:round;stroke-miterlimit:10;}</style></defs><title>7</title><rect class="cls-1" width="24" height="24"/><path class="cls-2" d="M1390.19,1641.08h-7.56a1.74,1.74,0,0,1-1.77-1.71v-11.59a1.74,1.74,0,0,1,1.77-1.71h2" transform="translate(-1376 -1620.83)"/><path class="cls-2" d="M1391.25,1626.08h2a1.76,1.76,0,0,1,1.77,1.75v4" transform="translate(-1376 -1620.83)"/><path class="cls-2" d="M1390.24,1627.45h-4.59a0.7,0.7,0,0,1-.7-0.7v-1.38a0.7,0.7,0,0,1,.7-0.7h0.87a1.5,1.5,0,0,1,2.83,0h0.88a0.7,0.7,0,0,1,.7.7v1.38A0.7,0.7,0,0,1,1390.24,1627.45Z" transform="translate(-1376 -1620.83)"/><line class="cls-2" x1="7.98" y1="9.67" x2="11.27" y2="9.67"/><line class="cls-2" x1="7.98" y1="9.67" x2="16.42" y2="9.67"/><line class="cls-2" x1="7.98" y1="12.67" x2="11.27" y2="12.67"/><line class="cls-2" x1="7.98" y1="15.67" x2="11.27" y2="15.67"/><polyline class="cls-2" points="19.11 12.89 17.14 14.86 15.18 12.89"/><line class="cls-2" x1="14.96" y1="15.67" x2="19.32" y2="15.67"/><line class="cls-2" x1="14.96" y1="17.87" x2="19.32" y2="17.87"/><line class="cls-2" x1="17.14" y1="15.11" x2="17.14" y2="20.2"/></svg>