<svg id="Layer_1" data-name="Layer 1" xmlns="http://www.w3.org/2000/svg" viewBox="0 0 24 24"><defs><style>.cls-1,.cls-2{fill:none;}.cls-2{stroke:#989898;stroke-linecap:round;stroke-miterlimit:10;}</style></defs><title>5</title><rect class="cls-1" width="24" height="24"/><path class="cls-2" d="M1394.36,1743.78l-5.66,3.12a1.27,1.27,0,0,1-1.22,0l-5.66-3.12a1.27,1.27,0,0,1,0-2.22l5.66-3.12a1.27,1.27,0,0,1,1.22,0l5.66,3.12A1.27,1.27,0,0,1,1394.36,1743.78Z" transform="translate(-1376 -1733.66)"/><path class="cls-2" d="M1395.31,1746.23l-6.47,3.57a1.76,1.76,0,0,1-1.7,0l-6.47-3.57" transform="translate(-1376 -1733.66)"/><path class="cls-2" d="M1395.31,1749.25l-6.47,3.57a1.76,1.76,0,0,1-1.7,0l-6.47-3.57" transform="translate(-1376 -1733.66)"/></svg>