<svg id="Layer_1" data-name="Layer 1" xmlns="http://www.w3.org/2000/svg" viewBox="0 0 589.84 57.25"><defs><style>.cls-1{fill:#4c4c4c;}.cls-2{fill:none;stroke:#4c4c4c;stroke-miterlimit:10;}</style></defs><title>55</title><path class="cls-1" d="M-219.59,93.85l-1.61-1.7-0.09-.35A24.07,24.07,0,0,0-225,88.63q-1.08-.76-2.9-2.17l-4.22-1.23a4.89,4.89,0,0,0-2-.73,2.74,2.74,0,0,0-1.14.35,3.18,3.18,0,0,0-.82,1,1.33,1.33,0,0,0,.82.5l0.29,0.26a28.44,28.44,0,0,1,4.48,1.52,22.07,22.07,0,0,1,3,2.14l0.76,0.09,3,2.78,0.88,1.35h-1.76a0.87,0.87,0,0,0-.35.59,1.32,1.32,0,0,0,.38.62l1.41,1.41,2.78,2.31a6.32,6.32,0,0,0,1,.09,1.23,1.23,0,0,0,.91-0.35A1.78,1.78,0,0,0-218,97.8a4.16,4.16,0,0,0-.7-1.79A8.57,8.57,0,0,1-219.59,93.85Zm-20.24-20.1-1.29-1.2-0.41.09L-243,73V72a10.15,10.15,0,0,0,3.69-.91,18.24,18.24,0,0,0,4.42-2.34,3.78,3.78,0,0,1,2.29-1.08,3.59,3.59,0,0,1,1.14.29l1.52,0.73-0.91,1.44-4,2.81v1.7l0.62,0q2.17,0,5.57-3.49a22.34,22.34,0,0,1,1.9-1.61,1.37,1.37,0,0,0,.59-1.08q0-1.7-3.31-2.84a10.66,10.66,0,0,0-2.93-.73q-1.73.09-4.83,2.87a6.93,6.93,0,0,1-3.34,1.9,2.18,2.18,0,0,0-.62.18l-0.64.41a24.6,24.6,0,0,1,.76-4.48l0.09-1.49,0.64-2.08q0.76-4.19.76-4.28a6.26,6.26,0,0,0-.47-1.58,3.15,3.15,0,0,0-.64-1.08,3.9,3.9,0,0,1-.79-1.11V53.95l-1.7.23,0.06,1.46h0.64a7.13,7.13,0,0,1,.62,2.23,36,36,0,0,1-.88,3.66,40.76,40.76,0,0,1-2.72,11.78,7.86,7.86,0,0,0-1,2.46s0,0.15.09,0.38,0,0.28.09,0.56q-1.29-.73-1.23-1.29l-2.55,3.72,0.09,0.26-0.82,1.14h-1.55l2.49-6.18q0.15-1.7.21-2.05a8,8,0,0,1,1.49-2.46v-1a3.37,3.37,0,0,0-.15-1.14,6.38,6.38,0,0,0-1.14-1.49l-1.08-.82a9.3,9.3,0,0,1-2.14-.5,3.49,3.49,0,0,0-.94-0.26q-0.76,0-2.9,2.05-4.34,4.19-6.12,4.19a7.5,7.5,0,0,1-1.2-.23,3.35,3.35,0,0,0-.67-0.09,1,1,0,0,0-1,.79l-0.35.38v0.41a0.94,0.94,0,0,0,.64.26,18.44,18.44,0,0,1,2.29.67,1.44,1.44,0,0,0,.35.09,5.31,5.31,0,0,0,1.55-.62,10.41,10.41,0,0,0,2.29-1.44q2.7-2.49,3.28-2.9a2.7,2.7,0,0,1,.82-1.08,4.28,4.28,0,0,0,1-.09,0.72,0.72,0,0,1,.26-0.06,1.46,1.46,0,0,1,1,.41,2.37,2.37,0,0,1,.91,1.76q0,0.32-.67,3.16a25.66,25.66,0,0,1-1,3.28q-1.14,3-1.82,3l-2.14-.76-1.38-.12a8.82,8.82,0,0,0-1.26.21,34.93,34.93,0,0,1-4.07.29l-1,.29-0.35.09a0.3,0.3,0,0,0-.12.29q0,1.38,2.34,1.38,0.18,0,2.7-.44l0.76,0.12h0.85l1.2,0.35a4,4,0,0,1,1.55.15l-0.12,1a7,7,0,0,1-.21,1.93,17.79,17.79,0,0,1-2,3.9q-1,1.11-1.14,1.33a8.34,8.34,0,0,0-.53,1.39l-2.11,1.9-0.35.23L-263.74,91l-0.15-.5a0.75,0.75,0,0,0-.7.82A8.82,8.82,0,0,0-263.8,94l0.23,0.26H-263q2.43,0,3.16-1l1.64-2.26a19.88,19.88,0,0,1,1.93-1.9l2.55-5.6,3,0.35a17.28,17.28,0,0,1,1.93-2.67q2.9-2.9,3.3-3.37a24.41,24.41,0,0,0,1.57-2.43l1.08-2.29v1.32l2.31,1.79q0.12,1.32.12,1.82a9,9,0,0,1-.47,2.23l-0.09,1.58q0,0.18-.5,1.46l-0.18.56q-0.91,3.08-1.17,3.69-0.38.85-1,2.23H-244L-249,92.12h-0.5l-0.06.53a10,10,0,0,0,2.58.56,15.79,15.79,0,0,0,3.08-.56l2.11-1.11,1.29-3a5.79,5.79,0,0,0,.41-0.59,9.28,9.28,0,0,0,.7-2.2,15.44,15.44,0,0,1,.76-2q0.06-.88.29-2.31L-238.2,79l0.38-1.44a14.77,14.77,0,0,1-.47-3Zm85.93,25.52-0.62-.35a7.52,7.52,0,0,1-1.2.12,11,11,0,0,1-1.52-.32q-2.58-.5-2.87-0.5a10,10,0,0,0-1.58.29,11.59,11.59,0,0,1-2.81.32,18,18,0,0,1-5.3-.82q-1.7-.53-1.9-0.56a3.66,3.66,0,0,1-.79-0.23l-1.32-1.05a5.48,5.48,0,0,1-1.55-.38q-0.47-.2-2.2-0.76-1.35-.44-2.17-0.79a69.27,69.27,0,0,0-6.56-2.55q-2.75-.73-9.49-2.08a10.82,10.82,0,0,1-4.07,1.23Q-201,91-202,91.24a11.36,11.36,0,0,1-2,.29,14.39,14.39,0,0,1-2.4-.38l0.53-1.14V89.45l0.18-.06q-2.34.62-2.9,1.7a4.68,4.68,0,0,0-.56,1.7,0.61,0.61,0,0,0,.21.44l0.32,0.32,1.55,0.29q0.88,0.09,1.32.09a7.15,7.15,0,0,0,1.55-.18,15.68,15.68,0,0,1,3-.41l1.29-.29a9,9,0,0,0,1.85-.12q0.62-.23,1.67-0.76h2.7a6.08,6.08,0,0,0,1.58.79,15.93,15.93,0,0,1,2.61.38q1.76,0.53,5.48,1.29,0.88,0.7,1.26,1A17.43,17.43,0,0,0-180,97a6.55,6.55,0,0,0,1.67.76A20.72,20.72,0,0,1-174,99.3a27.84,27.84,0,0,0,4.51,1.9,5.14,5.14,0,0,0,1.29.12q0.67,0,2.31-.12,1.35,0,3.34.12,1.76,0.06,2.4.06a8.29,8.29,0,0,0,2-.18q1.2-.26,1.35-0.26h1.26a4.7,4.7,0,0,0,.88-0.5h0.38a4.06,4.06,0,0,0,.79-0.79v0A0.74,0.74,0,0,0-153.91,99.27ZM-196.3,70.73l3.49-.88a18.69,18.69,0,0,0,.29,3.46,7.67,7.67,0,0,1,.12,1.08,5.05,5.05,0,0,1-.15,1.08,31.73,31.73,0,0,0-.62,3.43,13.69,13.69,0,0,0,.26,2,2.48,2.48,0,0,1,0,.32s0,0.18-.06.41a7.39,7.39,0,0,0,0,.76,3.08,3.08,0,0,0,.18,1.17,4.86,4.86,0,0,0,1.08,1.17l1.93-.67a6.92,6.92,0,0,1,.64-1.44q0.09-.15,2.26-2.49a5.13,5.13,0,0,1,1.29-1.46,0.81,0.81,0,0,0,.44-0.47l1.41-1.38,0.38-.59,0.53-.53a19.58,19.58,0,0,1,.62-2.29,4,4,0,0,1-1.11.41,0.54,0.54,0,0,0-.38.15,2.72,2.72,0,0,0-.41,1l-1.73,1.7-1.76,1.49-2.49,1.9-0.53-9.64,1.29-1.61,0.23-.09A2.82,2.82,0,0,1-188,67.36a8.63,8.63,0,0,1,1.58-.67l0.56-1,2.29-1.88,2.23-1.93a2,2,0,0,0,.88-1.2,5,5,0,0,0-1-2.17,2.65,2.65,0,0,0-1.79-1.2,5.63,5.63,0,0,0-1.87.41,1.08,1.08,0,0,0-.35.67,3.23,3.23,0,0,0,.15.91,5.88,5.88,0,0,1,.35,1.64q0,0.7-2.14,3.25a13.06,13.06,0,0,1-2.17,2,3.27,3.27,0,0,1-2.46,1.08,2.85,2.85,0,0,1-1.29-.41,3.61,3.61,0,0,0-1.35.44,5.23,5.23,0,0,0-1,1.14l-0.88.5-0.26.23,0.18,1.08ZM-201.46,74a4.24,4.24,0,0,0-1.79.79,3,3,0,0,0-.79.62,2.52,2.52,0,0,0,.7.62l3,2.14a8.36,8.36,0,0,1-.12,1.08q-0.18,1.14-.18,1.2a4.19,4.19,0,0,0,1.08,2.26,5.08,5.08,0,0,0,2.29,1.85,4.19,4.19,0,0,1,1.32.56,10.49,10.49,0,0,1,1.05,1.11l-0.91.88v1.11a2.29,2.29,0,0,0,.7.23,3.45,3.45,0,0,0,.85-0.26,14.65,14.65,0,0,0,.7-1.79,2.42,2.42,0,0,0,.5-0.5,3.54,3.54,0,0,0-.47-1.23l-1.2-.59-0.12-.73L-196.54,82A3.61,3.61,0,0,1-198,79.58a10.23,10.23,0,0,0-.29-2.29A17.63,17.63,0,0,0-199.58,75,3.41,3.41,0,0,0-201.46,74Zm19.75-5,0.21,0.67,0.35,0.35a1.12,1.12,0,0,1,.35-0.09,1.5,1.5,0,0,1,1.23.59,7.66,7.66,0,0,1,.7,3q0.41,3.93.41,4.72a6.45,6.45,0,0,1-.09,1l0,0.29,0.41,3.6-0.29,1-0.09,1.2,0,0.38q0,0.12.21,1.08a13.71,13.71,0,0,1,.44,2.9,4,4,0,0,1-.15.91,4.21,4.21,0,0,0-.15,1q0,0.91,1.9,1.73l0.53-.32,0.12-.06,0.56,0.09a0.5,0.5,0,0,0,.15-0.41l0.15-.67a8.52,8.52,0,0,0,.18-1.67,6,6,0,0,0-.7-2.9q-0.56-1-.56-1.05l0.56-3.81s-0.14-.52-0.41-1.49l-0.12-.53,1.79,0.59a11.94,11.94,0,0,0,2.81,2.72l1.05,0.88a1.33,1.33,0,0,0,.85.23,3.36,3.36,0,0,0,1.88-1.11A45.16,45.16,0,0,1-166,79l0.18-1.14a14.75,14.75,0,0,0,.38-2.23l0.32-.7q0.23-.94.85-3.52a20.58,20.58,0,0,0,1.26-4.48,6.32,6.32,0,0,0-.47-1.49V65.23l-2.93-.73a6.23,6.23,0,0,0-2.31-.85,7.25,7.25,0,0,0-2.31.76l-3.9,1-6,2.29Zm5.89-.26q0.44-.73,3.63-2.11a8.63,8.63,0,0,1,3-.82,4,4,0,0,1,2.67,1,1.6,1.6,0,0,1,.7,1.17,14.83,14.83,0,0,1-.62,2.37L-167,71.76l-0.09,1.64a15.21,15.21,0,0,0-.38,2,19.55,19.55,0,0,1-2.23,6.39l-4.78-2.29-0.64-.82-0.15-.18-0.59-.47q0-1.49,0-2.43t0-2.2V71.88q0-.5,0-0.94,0-1.05,0-1.52A1.59,1.59,0,0,1-175.83,68.74Zm-25.75-.35,0.41,0a2,2,0,0,0,1.49-1,2.3,2.3,0,0,0,.82-1.23,2.77,2.77,0,0,0-.82-1.17q-0.7-.91-1.29-1.58a5.17,5.17,0,0,0-1.2-1.38l-1.05-.26a5,5,0,0,0-1.26-.32q-0.67,0-.67,2.05l1.88,0.76ZM-95.67,97.72a2.81,2.81,0,0,0-.44-0.56,8.87,8.87,0,0,1-.76-1.08,3.42,3.42,0,0,1-.62-0.85,2.66,2.66,0,0,0-1.17-.53l-1.82-.59q-1.76-.64-2.17-0.85a1.34,1.34,0,0,0-.67-0.21l-0.41-.38q-0.5-.15-2.75-1.11l-1.11-.44-0.82-.41-1.29-.41-0.76-.41-1-.35A3.31,3.31,0,0,0-112.9,89a13.44,13.44,0,0,1-1.76-.32l-0.73-.41-0.18-.64a1.86,1.86,0,0,0,.41-0.73l0.15-.29,0.64-3.37a9.64,9.64,0,0,0,.53-1.35q0-.26.09-1l1.9-1.49,1.52-.18,0.18,0.06,0.47-1.05-0.21-1.44a9.44,9.44,0,0,0,2.55-1.87l1.7-2.11a8.42,8.42,0,0,0-.18-1.14A2.68,2.68,0,0,0-107,70.26a11.9,11.9,0,0,1-2.9.41l-0.59.18-1.29,0a6.3,6.3,0,0,1-1.61.62,5.59,5.59,0,0,1,.41-1.61,3,3,0,0,1,1.29-1.55l1.14-.67,0.76-.18,1.58-.88a3.27,3.27,0,0,0,1-.62,9.08,9.08,0,0,1,2.2-.67,14.05,14.05,0,0,0,2.08-.79,1.92,1.92,0,0,0,.73-1.11,0.17,0.17,0,0,0,0-.12,6.91,6.91,0,0,1-.38-1.32,5.43,5.43,0,0,0-1.52-.32,8.68,8.68,0,0,0-2,.29l-1,.21-0.44.38-5.42,2.05-0.47-.29V61.48q-0.35-1.2-.47-1.79T-114.3,58V57.37l-0.85-1.29a10.64,10.64,0,0,0-.85-1.64h-0.23l-2.2-.47a2.25,2.25,0,0,0-1.79,1,0.94,0.94,0,0,1,.18.23,3.49,3.49,0,0,0,1.23,1.11,7.86,7.86,0,0,1,1.76,1.32,4,4,0,0,1,.64,1.82,5.91,5.91,0,0,1,.09.59,22.77,22.77,0,0,1,.64,2.46,2.94,2.94,0,0,1-.23,1l0.38,1a2.53,2.53,0,0,1-1.29,1.85,10.42,10.42,0,0,0-1.93.73l-1.93,1a8.77,8.77,0,0,1-1.9,1.35,10.32,10.32,0,0,0-2,1.23l-2.87,1.73,0,0a0,0,0,0,0,0,0l0,0-1.2.76-0.21.21-3.16.23-0.64.12a1.45,1.45,0,0,0-.76.23l-0.21,1.17h0a0.61,0.61,0,0,1,.18.23,1,1,0,0,0,.76.53l1.26,0.32,1.49-.41a4.8,4.8,0,0,0,.76-0.12,6.6,6.6,0,0,0,2-1.29,6.51,6.51,0,0,1,1.38-1,10.84,10.84,0,0,0,1.32-.88l0.56-.44a14.11,14.11,0,0,0,2.7-1.9,3.64,3.64,0,0,0,1.76-.67l0.7-.44,0.44-.35,1.9-.7a0.59,0.59,0,0,1,.5-0.47,5.87,5.87,0,0,0,.18.82,0.52,0.52,0,0,1,.06.15,1,1,0,0,1-.62.76,20.38,20.38,0,0,0-2,1.32,1.41,1.41,0,0,0-.38.67,0.7,0.7,0,0,0,.35.5h1.14l1.32-.62a1.29,1.29,0,0,1,.18.35l-0.23,1.29a1.28,1.28,0,0,1-.06.59,6.68,6.68,0,0,1-.94.38l-0.06.32-0.53.21-5.65,3.9-3.13,1.93a2.74,2.74,0,0,0-.64,1.26,2.5,2.5,0,0,0,.64.88l0,0.53a0.71,0.71,0,0,0,.73.64,1.22,1.22,0,0,0,1.14-.73,7.22,7.22,0,0,1,1.29-1.85,14.43,14.43,0,0,0,2.26-2.11,2.31,2.31,0,0,0,1-.59,2.5,2.5,0,0,1,.79-0.56l2.7-1.76,0.23,0.23q0.06,0.67.06,1.05a3.73,3.73,0,0,1-1.7,3.13,11.81,11.81,0,0,0-1.52,1.2,6,6,0,0,1-2.14,1.61l-0.7.18a2.88,2.88,0,0,0-.67-0.41,0.71,0.71,0,0,0-.44.38,1.33,1.33,0,0,0-.35.79,0.32,0.32,0,0,0,.09.23,6.07,6.07,0,0,1,.85,1.35,2.13,2.13,0,0,0,.94.41q0.79,0,2.93-2.05l0.76-.79L-117,83q0.06,0.62.06,0.94a4,4,0,0,1-.35,1.23,6.43,6.43,0,0,1-.29,1.14l0,0.18-0.85,1.26-10-1.79-1.7.41q0,0.35,0,.56a1.33,1.33,0,0,0,.73,1.11l0.21,0.15,0.26,0.15q0.35,0.06,1.58.38l1,0.06,0.64,0.15a2.84,2.84,0,0,1,1.08.26l0.53,0.35a0.16,0.16,0,0,1,.09-0.06l0.12,0.06,0.06,0.06,0.38-.09a2.21,2.21,0,0,1,.44.18,1.22,1.22,0,0,0,.7.12,3.06,3.06,0,0,1,1.88.38,0.28,0.28,0,0,0,.15.06,0.3,0.3,0,0,0,.12-0.06,0.32,0.32,0,0,1,.18-0.06,0.51,0.51,0,0,1,.44.29l-2.72,2.26-0.79.38-2.64.79-3.46.44h-0.18a1.22,1.22,0,0,0-.56.62,1.18,1.18,0,0,0,.44.85,9.06,9.06,0,0,0,2.55.35l0.91,0a5.35,5.35,0,0,0,1.14-.26,3.13,3.13,0,0,0,1.55-.41,2,2,0,0,1,.82-0.41l0.82,0.09,0.09-.06a2.69,2.69,0,0,1,.44-0.35A5.35,5.35,0,0,0-120,94a1,1,0,0,1,.67-0.41l1.67-2.26,0-.18,0.64-.2a5.82,5.82,0,0,1,2.31.53,11.48,11.48,0,0,1,2.26.82l0.76,0.23,1.67,0.76,1.2,0.44,0.41,0.2,0.82,0.18,0.7,0.47,2.55,0.79,1.17,0.67a21.66,21.66,0,0,1,2.43.88,8.1,8.1,0,0,1,2.52,2.23,3.19,3.19,0,0,1,.56,1.41,8.13,8.13,0,0,0,1.76.44c0.16,0,.23,0,0.23-0.12v-0.26l0.26-.32a0.21,0.21,0,0,0,.12-0.09V99.83a5.52,5.52,0,0,0-.38-1.52Zm-17.84-22.47a2,2,0,0,0,.09-0.32q0.09-.23.29-1.05l0.88-.21a0.86,0.86,0,0,1,.64-0.44,2.6,2.6,0,0,1,.76.26l1.73-.12-1.2,1.17-0.29.35a14.83,14.83,0,0,1-2.93,1.93,1.38,1.38,0,0,0,0-.26A0.91,0.91,0,0,0-113.8,76l-0.12-.09A1.33,1.33,0,0,0-113.51,75.25Zm-22.82,4,0.82-1.58A23.19,23.19,0,0,1-133.7,74a6.68,6.68,0,0,0,.5-1.08,12.82,12.82,0,0,1,.76-1.58l1.2-3.63a7,7,0,0,1,.62-2.05l1.08-3.57,0.18-.62a2.68,2.68,0,0,1,.21-1.17l-0.64-1.08c0-.18,0-0.3,0-0.38A4.23,4.23,0,0,0-130,58a5,5,0,0,0-.64-1.79,3.24,3.24,0,0,0-1.2-1.08,3,3,0,0,0-.44.06,1.86,1.86,0,0,0-.7,1,2.33,2.33,0,0,0,.15.62,4.74,4.74,0,0,1,.21.79,13.17,13.17,0,0,0,.29,1.41,4,4,0,0,1,.15.82,2,2,0,0,1-.06.41,7.28,7.28,0,0,0-.21,1.2l-0.15.62,0,0.82L-133,64.38a4,4,0,0,1-.41,1.35,6.88,6.88,0,0,0-.32.73l-0.26.79a10.17,10.17,0,0,0-.53,1.46,9.4,9.4,0,0,1-.67,1.82,3.59,3.59,0,0,0-.44.94,8.08,8.08,0,0,1-1.08,2.78q-0.79,1.47-1.52,3.16l-1.05,1.44-0.56,1.2-0.59.73-1.05,1.52-1.05,1.17a14.68,14.68,0,0,1-2.43,2.58,9.36,9.36,0,0,0-1.49,1.2,2.45,2.45,0,0,0-.56.38,3.71,3.71,0,0,1-1.38.94l-0.85.5-0.09.29-0.18.21a1.52,1.52,0,0,0,1.17.76,3.88,3.88,0,0,0,1.61-.53,6.33,6.33,0,0,1,1.05-.5q2.61-1,7.09-6.18l2.23-3.72V79.2Zm2.37,11a1.59,1.59,0,0,1,.09-0.56,5.18,5.18,0,0,0,.23-1.14v-1q-0.18-1.2-.18-1.26a2.17,2.17,0,0,1,.12-0.59,1.92,1.92,0,0,0,.06-0.56l0.29-1.61a1.26,1.26,0,0,0-.09-0.29,0.94,0.94,0,0,1-.06-0.23,0.94,0.94,0,0,1,.06-0.23,0.5,0.5,0,0,0,0-.12,2.19,2.19,0,0,0-1-1.35,4,4,0,0,0-1,.79,2.84,2.84,0,0,0-.21,1.41l-0.41,1.38a0.39,0.39,0,0,0,.18.29,0.17,0.17,0,0,1,.06.09l-0.06.06a0.76,0.76,0,0,0-.15.44,10.72,10.72,0,0,1-.44,1.38,0.67,0.67,0,0,0-.06.23,0.9,0.9,0,0,0,.12.35,6.4,6.4,0,0,1,.15,1.88l0.09,1s-0.06.28-.18,0.73l-0.12.56a4,4,0,0,1,.38,1.2,1.39,1.39,0,0,0,.15.73,5.37,5.37,0,0,0,.5.5,1.67,1.67,0,0,0,1.14.41,1.33,1.33,0,0,0,.88-0.56,1.74,1.74,0,0,1,0-.26,8.08,8.08,0,0,1,.18-0.82Q-134,90.39-134,90.16Zm58.33-25.58L-75.86,64V63.91a0.47,0.47,0,0,1,0-.12V63.64q-0.06-.91-2.14-2.52l-0.94-1.52-1.49-.21a1.58,1.58,0,0,0-.7,1.41q0,0.53.12,0.53h0.38l0.44,0.7,0.47,0.59-0.09.53,0.38,0.64a6.14,6.14,0,0,1,.23.94l0.41,1.61a1.11,1.11,0,0,1-.18.47,0.68,0.68,0,0,1,.06.21l-0.06.44-0.06.62-0.06.15a0.5,0.5,0,0,0,.06.15,1,1,0,0,1,.15.41l-0.32,1.08-0.12,2.31-0.12.67-0.06.88a6.87,6.87,0,0,0-.21,1.73,9,9,0,0,1-.53,2.78,9.32,9.32,0,0,0-.38,1.38,8.13,8.13,0,0,1-.79,2.84l-1,5.21-0.59,1L-84,90.92A7.56,7.56,0,0,0-84.68,92l-0.67,1.85A5.78,5.78,0,0,1-86.15,95l-1,1.26a4.7,4.7,0,0,1-1.44,1.82,0.84,0.84,0,0,0-.23.7v0.5h0.15a2,2,0,0,0,.56.2,2,2,0,0,0,1-.44,7.69,7.69,0,0,1,1.49-1A2.78,2.78,0,0,0-85,97.86,15.91,15.91,0,0,1-82,93.15l1.79-3.54a17.09,17.09,0,0,1,1-2.52L-79,85.62l0.91-2.4,0.12-.62L-77.5,81l0-.12a3.73,3.73,0,0,1-.12-1.05,15.1,15.1,0,0,1,.85-3.72V74.75l0.21-.62a5.21,5.21,0,0,1,.18-1.46l0.32-.41-0.06-.18,0.06-.21-0.21-.29a0.43,0.43,0,0,1-.09-0.26,1.73,1.73,0,0,1,.09-0.47,8.12,8.12,0,0,0,.23-1.08l0.18-.64a14.91,14.91,0,0,1,.26-2,3.74,3.74,0,0,0,.15-0.91q0-.23-0.09-1Q-75.6,65.11-75.63,64.58Zm32.08,7.18q0-2.7.26-6.39c0-.25,0-0.44,0-0.56a5.62,5.62,0,0,0-.26-1.87,1.29,1.29,0,0,1-.06-0.26l0.09-.29A12.74,12.74,0,0,0-43.23,61a0.52,0.52,0,0,0-.06-0.23,0.28,0.28,0,0,1-.06-0.15,0.3,0.3,0,0,1,.06-0.12l0.06-.09-0.32-.67A0.64,0.64,0,0,0-44,59.4s-0.45-.65-1.23-1.9a5.16,5.16,0,0,0-.53-0.67,2.46,2.46,0,0,1-1.17-1.38l-2.9-.79-2.43.38-0.29.18a2.28,2.28,0,0,0-.64.23,1.59,1.59,0,0,1-.53.23h-0.18a0.71,0.71,0,0,0-.32.23l-4.19,1.29a13.07,13.07,0,0,0-1.9.32l-1,.15-0.62.21a4,4,0,0,0-1.38.7,10.39,10.39,0,0,1-5,1.26A7,7,0,0,1-69,60h-0.18V60.3a2.12,2.12,0,0,0-.67,1,1.89,1.89,0,0,0,.73.91h0.38a2.79,2.79,0,0,1,1.08.18,0.44,0.44,0,0,0,.18.06,0.44,0.44,0,0,0,.18-0.06,2,2,0,0,1,.79-0.18,1.61,1.61,0,0,0,1.14-.41l1-.06a1.66,1.66,0,0,1,1.2.64l0.06,0.23a3.28,3.28,0,0,0,.15.67,0.31,0.31,0,0,1,.06.12L-63,63.5l-0.06.26-0.56.7-0.09.79-0.18.64v1.9l-0.06.67a4.92,4.92,0,0,1,.29,1.26v0.94a1.88,1.88,0,0,1-.82,1.41,4.93,4.93,0,0,0-1.67.79,11.08,11.08,0,0,1-2.7,1.41l-1.32.5h-0.32l-0.53.35a2,2,0,0,1-.47.32l-1.32-.21h-0.29l-0.62-.67-0.21.15a3.8,3.8,0,0,0-1,.53v0.12a0.68,0.68,0,0,1-.09.18q-0.12.35-.15,0.41a0.43,0.43,0,0,0-.09.15,0.6,0.6,0,0,0,.12.23,0.41,0.41,0,0,1,.09.21,0.72,0.72,0,0,0,.09.18,10.93,10.93,0,0,1,3.19,1.11l0.23-.09a25.37,25.37,0,0,0,2.64-1,12.43,12.43,0,0,0,1.41-1l1.76-1A5.46,5.46,0,0,1-64.41,74q0,0.32,0,.56a1,1,0,0,0,0,.23l0.06,0.38a2,2,0,0,1-.53,1v0.41L-67,77.65a4.63,4.63,0,0,0-1.05.88,4,4,0,0,1-.64.82,5.83,5.83,0,0,1-.82.26l-0.29.56-2.34,2.55-1.46.53h-0.29l-0.23.35-0.53,1.23L-74,86.11l1.44,0.38a4.39,4.39,0,0,1,1.44-.2,16.52,16.52,0,0,1,2.64-1A1.59,1.59,0,0,0-67.66,85a3,3,0,0,1,1.73-1.11,1.53,1.53,0,0,1,1.11.64,0.93,0.93,0,0,1,.29.59l-0.06.73a3.38,3.38,0,0,1-.29,1.55q0.32,2,.41,3.19a1.77,1.77,0,0,0,.23.85l1,1.14,0.85,0.06,0.41-.47a2.28,2.28,0,0,0,.79-1.26,0.94,0.94,0,0,0-.06-0.26,7.23,7.23,0,0,1-.56-2.72,3.41,3.41,0,0,1,.32-1l-0.23-3.11A8.83,8.83,0,0,1-60,82.66l0.35-.26,0.47-.06,0.73-.15,1.2-.06,0.73-.15a6.77,6.77,0,0,0,2.58-.56l0.67,0.09,0.35,0L-52.34,82l1,0.5,0.21,0.15,0.41-.44a1.46,1.46,0,0,0,.44-0.47l0-.12A14.92,14.92,0,0,0-51,79.82a7.13,7.13,0,0,0-3.08-1.08l-0.38-.06a5.2,5.2,0,0,0-.76,0,13.32,13.32,0,0,1-2.67.79,8.77,8.77,0,0,0-1.85.32l-0.5.09-0.85.32a2.84,2.84,0,0,1-.67-0.41l0.73-.94V78.73a4.24,4.24,0,0,1-.32-1.46A3.69,3.69,0,0,1-60,74.92l2.14-1.23,0.5-.38A29.52,29.52,0,0,1-55,71.47,1.26,1.26,0,0,0-55,71.14a2.25,2.25,0,0,0-.62-0.76,1.31,1.31,0,0,0-.35-0.53,3.54,3.54,0,0,0-1.52-.29,4.18,4.18,0,0,0-1.17.26l-1.73,0a1.93,1.93,0,0,1-.62-1V68.51a1.15,1.15,0,0,1,.23-0.5q0-1.44.06-1.93a15.43,15.43,0,0,1,.62-2.17q0.06-.62.06-0.7a3.74,3.74,0,0,0-1-1.85A0.89,0.89,0,0,1-61,61.18a0.49,0.49,0,0,0,0-.12A0.17,0.17,0,0,0-61,60.95a1.82,1.82,0,0,1-.23-0.32,0.94,0.94,0,0,1,.59-0.32A5.15,5.15,0,0,1-59.58,60a4.15,4.15,0,0,0,1-.23,2.61,2.61,0,0,0,.32-0.26,1.65,1.65,0,0,1,.79-0.23l2.87-.76q0.82-.12,1-0.18a11.09,11.09,0,0,1,3.81-.73l0.91-.06,1.23,1.58a2.56,2.56,0,0,1,.7,1.08q0.06,0.41.09,0.53A3.68,3.68,0,0,1-46.63,62q0,0.23,0,.85,0.26,12,.38,15.21,0.12,4.34.12,7.06a16.33,16.33,0,0,1-.29,3.43q-0.44,2-.44,2.2L-46.57,94l-0.26,1-0.12,1.26-0.18.94L-47,98l0,0.44,0,0.7q0,0.15-.15,1.08v0.47l-0.91-.26-1-.88-0.62-.7-0.21-.32a6.82,6.82,0,0,0-2.05-2L-53.1,95a7.27,7.27,0,0,1-1.46-1.41A2.05,2.05,0,0,0-55.12,93q-0.26-.18-0.94-0.7L-56.21,92h-0.12a0.78,0.78,0,0,0-.85.64,12.84,12.84,0,0,0,.56,1.23A10.31,10.31,0,0,0-54.57,96a8.4,8.4,0,0,0,.91,1.41l0.53,0.82,0.7,0.64,2.11,2.2,0.73,0.91a2.76,2.76,0,0,0,.67.67A7.52,7.52,0,0,0-47.3,104a8.55,8.55,0,0,0,1.32.47l0.88-.82a0.59,0.59,0,0,0,.41-0.47l0.62-.73,0.06-.56,0.18-.67,0.09-.88,0.18-.53a3.47,3.47,0,0,0-.15-0.5,2.16,2.16,0,0,1-.15-0.88q0-.21.06-1.55V90l0.23-.21q0.12-5.74.29-9.35,0.09-2.17.09-3.6A16,16,0,0,0-43.29,75,25.41,25.41,0,0,1-43.55,71.76Zm-23.17,9.81c-0.16,0-.23,0-0.23-0.06l0-.56,0-.06,0.06,0a0.15,0.15,0,0,0,.06-0.12,3,3,0,0,1,.76-0.56,3.34,3.34,0,0,0,.76-0.62h0.76l0.26,1.49Zm55.31-1.9a6.22,6.22,0,0,1,.85.32,2.32,2.32,0,0,0,.67.15,1.14,1.14,0,0,0,.67-0.26,0.71,0.71,0,0,0,.35-0.53S-8.92,79.06-9,78.61a1.69,1.69,0,0,0-.47-1l-0.62-.21-0.21-.32-0.29-.35-0.82-.21q-0.7.06-1.29,0.06a4.7,4.7,0,0,1-.62-0.06A5.51,5.51,0,0,0-14,76.48a1.09,1.09,0,0,0-.7.53l-0.64.06V75.54l-0.18-4.69,0.59-.64,0.06-1a2.88,2.88,0,0,0,.56-0.12,9.5,9.5,0,0,1,2-.56,6.22,6.22,0,0,0,1.38-.26,2.07,2.07,0,0,0,.59-0.53l0.06-1L-10.53,66l-1.38-.64a3.78,3.78,0,0,1-1,.35,2.07,2.07,0,0,0-.44.12,2.57,2.57,0,0,1-.73.47,0.85,0.85,0,0,1-.56-0.41,4.7,4.7,0,0,1,0-.62V64.7q0-.38,0-0.76-0.06-1.32-.06-2.14V61.56a4.46,4.46,0,0,1,.21-0.76l0.06-.47,0.15-.67,0.06-1.11A3.19,3.19,0,0,0-14,57.64a7.48,7.48,0,0,0-.18-1,2.65,2.65,0,0,0-.18-0.7,2.27,2.27,0,0,1-1.05-.73q-0.62-1-.94-1.41l-0.06-.23-0.29-.06q-1.44-1.58-2-1.58l-0.41,0a2.49,2.49,0,0,0-.38.91,5.33,5.33,0,0,0,1.32,2.34,4.93,4.93,0,0,1,1.29,2.29l-0.62,10.14-4.07,2.55-0.06.47h-0.26l-0.79.59-0.44.18a10.24,10.24,0,0,1-1.73.53h-1.08l-0.82-.88h-0.59a4.21,4.21,0,0,0-1,2.29H-28a5.41,5.41,0,0,0,3.11,1.29,2.16,2.16,0,0,0,.79-0.18,8.6,8.6,0,0,0,2.87-1.58,1.27,1.27,0,0,1,.94-0.47l0.62-.64q0.59,0,1.17,2.23l0.12,0.2-0.88,2.9a1.85,1.85,0,0,0-.37.31,1.56,1.56,0,0,0,0,.51l-0.35.62a14.15,14.15,0,0,1-1.58,2.29l0,0.53-0.38.12,0,0.23L-23.16,83l-0.18.18v0.47l-0.21.21-0.47.7-6,3.72,0.06,0.35a1,1,0,0,0,1.2.88,3.49,3.49,0,0,0,1.08-.21Q-26.79,89-26.53,89a4.68,4.68,0,0,0,2.46-1.14,5.45,5.45,0,0,0,1.49-1l0.44-.12,0.21-.38A4.54,4.54,0,0,1-21.17,85l0.88-.59a1.36,1.36,0,0,0,.18-0.56,1.64,1.64,0,0,1,.62-1l1.11-1.05L-18.15,95l-0.91.94A13.19,13.19,0,0,0-18.59,98q0.67,2.58,1.35,2.58l0.18-.06q1.11-.18,1.32-2.43V95.64l0.06-.76q0-.09-0.06-0.53a2,2,0,0,1,0-.32,3.57,3.57,0,0,1,.21-1l-0.18-.2,0.26-10.55-0.26-2.17,0.21-1.46a2.6,2.6,0,0,1,.76-0.26,3.8,3.8,0,0,1,1.23.38,2.48,2.48,0,0,0,.82.2A2,2,0,0,1-11.41,79.67ZM8.22,67.8L8.69,68,9.21,68.3,9.89,68h1a1.83,1.83,0,0,1,.79-0.5,2.17,2.17,0,0,1,.56.09,1.5,1.5,0,0,1-.5,1.11q-2.61,2-2.61,2.78a0.77,0.77,0,0,0,.12.38,0.63,0.63,0,0,0,.44.38,0.71,0.71,0,0,0,.23-0.09l0.26-.12a11.52,11.52,0,0,0,2.87-2.2l0.82-.79q0.62-.64,1.88-1.76V67l-0.91-1.64-0.15-.18H10.27l0.18-2L9.86,62a2.24,2.24,0,0,0-1.17-.41A1,1,0,0,0,7.6,62.65a1.9,1.9,0,0,0,.44.79v0.44l0.09,0.5a3.64,3.64,0,0,1-.35.73q-0.06.12-.32,0.73v1A1.76,1.76,0,0,0,8.22,67.8Zm13.33,18L21,85.38l-1.44-1a3.62,3.62,0,0,0-.79-0.76,11.66,11.66,0,0,1-1.49-1.11,7,7,0,0,0-1.49-1.35,13.39,13.39,0,0,1-2-1.49A28.75,28.75,0,0,0,11,77.53L9.39,75.89A24,24,0,0,1,7.1,73.25a0.35,0.35,0,0,0-.18-0.18,1.66,1.66,0,0,1-.64-0.41,6,6,0,0,0-.44-0.47L5,71.29A2.83,2.83,0,0,0,4.53,71,1,1,0,0,1,4,70.59a6,6,0,0,0-.64-1,0.93,0.93,0,0,0-.5-0.15l-0.21,0L2,69.53l-0.41.79q-0.53.06-.53,0.38,0,1.44,2.9,2.64l0.91,1.49v0.09q-0.06.73-.44,0.73a1.61,1.61,0,0,0-.82.41l-3,1a5.23,5.23,0,0,1-1.82.79,7.28,7.28,0,0,1-.91.06,3.42,3.42,0,0,1-1-.23V76.86q1-.15,1.67-2.49A9.53,9.53,0,0,1-.69,72.2q0.15-.18.47-0.5l0.64-2.84A5,5,0,0,0,.63,67.1l0.62-.64a2.25,2.25,0,0,1,.21-1,9.26,9.26,0,0,0,.7-2.08A1.4,1.4,0,0,1,2.07,63a0.68,0.68,0,0,1,.09-0.26,1.79,1.79,0,0,0,.15-0.79q0-.91-1.73-1.2a8.88,8.88,0,0,1-3.11,2.52,9,9,0,0,0-2.26,1,1.37,1.37,0,0,0-.67,1.05L-4.7,66.1l1.85-.23h0.91l0.41,0.35A15.48,15.48,0,0,1-2,68a11.44,11.44,0,0,1-.76,2.55A7.6,7.6,0,0,1-3.44,72,10.13,10.13,0,0,0-6,70.62L-7,70.85a4,4,0,0,0-1.87.29,1.37,1.37,0,0,0-.73,1.23,0.74,0.74,0,0,0,.82.85,1,1,0,0,0,.47-0.15l0.41-.21L-7.1,73a2.69,2.69,0,0,1,1.41.35,1.79,1.79,0,0,0,1,.5,0.67,0.67,0,0,0,.21-0.06l0.44-.12,0.41,0.5A12,12,0,0,1-4.53,76q-0.88,1.35-.94,1.49t-0.23.85l-0.21.21q-0.41.67-.59,1A11.39,11.39,0,0,1-10,83.89a4.36,4.36,0,0,0-1.41,1.05l-0.23-.26Q-13,85-13,85.79a0.69,0.69,0,0,0,.21.56l0.12,0.15,0.35,0a1.34,1.34,0,0,1,.88.44,9.76,9.76,0,0,0,1.32-.38q0.18-.09,1.49-1l1.17-.76,1-1A6.84,6.84,0,0,0-4.7,81.6l0.38-.94-0.06-.35h0.47l2.14,0.23a3.26,3.26,0,0,1-.53,1.11,2.06,2.06,0,0,1-.82.35L-3.91,83a14.8,14.8,0,0,0-1.26,1.9A7.29,7.29,0,0,0-6.72,88.6,8.15,8.15,0,0,0-6,90.74a7.9,7.9,0,0,0,.79,1.67,0.69,0.69,0,0,0,.21.41l1.17,0.26-0.26,1.46q0.5,1.79,1.29,1.79h0.15l1-.41,0.44-.15,0.59-.47a7.62,7.62,0,0,0,2.4-1.67V93.35A1.53,1.53,0,0,0,1,92.21l-0.41.18a5.45,5.45,0,0,0-1.05.7,4.12,4.12,0,0,0-1.08.21,0.78,0.78,0,0,1-.29.06,0.81,0.81,0,0,1-.56-0.53l2.49-1.93,0.18-.23,1.32-.44,1.14-1.08,2.58-.67L6.64,89,5.52,90.42,6,91.24a1.06,1.06,0,0,1,.21.5q0,1.38-2.43,2.58H3.56a5,5,0,0,0-.23.47,2.58,2.58,0,0,1-.18.59l-0.76.32a4.13,4.13,0,0,1-.67,1,24.84,24.84,0,0,0-4.34,1.08l-0.82.12L-3.91,98a1.57,1.57,0,0,0-.56.06,21.79,21.79,0,0,1-5,1.05l-0.29-.06L-10,98.83l-0.09-.12-1.32.53a1,1,0,0,0-.12.41l-0.18.47,0,0.15a1.17,1.17,0,0,0,.18.53,2.76,2.76,0,0,0,1.32.47l0.67,0.18a1.25,1.25,0,0,0,.29.06l0.76-.12a13.49,13.49,0,0,0,1.7-.41h0.88l1.44-.38,1.14-.09,2.37-.56,0.85-.06,1.52-.38,0.62-.09L3.59,99l0.47,0,0.64-.18,1.49-.09,0.64-.15,0.62-.06,0.64-.15,0.38-.06,0.26-.06L9,98.33q0.18,0,1.38,0a2.41,2.41,0,0,1,.56,0L12,99.65a1.69,1.69,0,0,1,.5-0.26l1.2,0.26,1.11-.41a5.81,5.81,0,0,0,1.26-.41A1.14,1.14,0,0,0,16.54,98a2.89,2.89,0,0,0-1.38-2.05,3.24,3.24,0,0,0-1.9-.82A5.54,5.54,0,0,0,12,95.4H8.25a6.29,6.29,0,0,1-1.38.32,5.45,5.45,0,0,1-.67-0.06,3.3,3.3,0,0,1,1.11-1.58,2.08,2.08,0,0,0,.23-0.26V93.7a0.33,0.33,0,0,1,.29-0.21H7.78A2.17,2.17,0,0,0,8.92,92a1.53,1.53,0,0,0-.56-1l-0.06-.2a1,1,0,0,1-.62-0.59,0.48,0.48,0,0,1,0-.15l0-.12L6.84,89l1.05-.79H8.13l0.26-1.11L7.75,85.79,8,85.21H8.31a5.84,5.84,0,0,0,2.43-1.44V82.54a2.28,2.28,0,0,0-1.2-.88L8.8,81.34H8.16L7.69,81l-0.5-.12a2.79,2.79,0,0,0-.76-0.2,8,8,0,0,0-2.84.94q-0.29.15-1.79,0.7a3.84,3.84,0,0,0-1.1.56A5.67,5.67,0,0,0-.16,84l-0.94.06-0.41.41L-2,84.42V83.86l0.41-.06a2.45,2.45,0,0,1,.73-1Q0,82.39.42,82.16l0.41-1.82,1.67-.23,4.78-2.7L9,79.26l1.73,1.08,0.21,0.26a8.86,8.86,0,0,0,1.73,1.64l0.64,0.47,1.29,0.88,0.56,0.47,0.5,0.38,0.56,0.5,1.08,0.7a3.66,3.66,0,0,0,.59.76,15.56,15.56,0,0,1,1.44,1.14l0.67,0.59,0.15,0.15,0.79,0.41a9.43,9.43,0,0,0,4.45,1.58,0.84,0.84,0,0,0,1-.94,2,2,0,0,0-.47-1.05ZM-1.92,87.64l2.37-1.35,0.18-.18a4.05,4.05,0,0,1,1.7-1.61,7.87,7.87,0,0,0,1.35-.09,6.65,6.65,0,0,0,1.7-1l1.2-.06a3.61,3.61,0,0,1,.06.56,1.09,1.09,0,0,1-.82,1l-0.06.18a6.72,6.72,0,0,1-3.19,1.7L-1.1,89.28H-1.51l-0.23.26-0.41-.44a0.76,0.76,0,0,1-.26-0.53s0-.19.06-0.5ZM80,76.27V76.12a5.22,5.22,0,0,0-.64-0.29l-0.7-.7,0-.15a1.52,1.52,0,0,1-.41-0.23,9.32,9.32,0,0,0-.91-1.17,1.2,1.2,0,0,0-.59-0.38H76.39a2.55,2.55,0,0,0-.76.53l-0.38.35L71.62,74l-1.73.67-2.2-.21H65.55l-2.17.23-1.55.79-0.53-.62,0.21-.23V72a2.53,2.53,0,0,1-.18-0.44l-0.09-.29A0.93,0.93,0,0,1,61.33,71a1.42,1.42,0,0,0,.15-0.64,2.11,2.11,0,0,1,.06-0.7,1.24,1.24,0,0,0,.06-0.21l-0.09-.59a0.31,0.31,0,0,0,.21-0.18,0.37,0.37,0,0,1,.18-0.21q6.94-.82,7.15-1a1,1,0,0,0,.53-0.73,2.42,2.42,0,0,0-1.11-1.67,1.32,1.32,0,0,0-.88-0.7l-0.21.06a56.34,56.34,0,0,0-5.74,1.2,2.6,2.6,0,0,1-.56-1.26V64.23l0.06-.91,0.15-.76V60.25l0.21-.59a19.09,19.09,0,0,1,.21-3.08,2.48,2.48,0,0,0,.12-0.47,1.81,1.81,0,0,0,0-.26q0-.09-0.06-0.56a2.88,2.88,0,0,0-1.05-1.82l-0.09-.23-0.32-.06-0.09-.41-0.15,0a4.34,4.34,0,0,1-.59-0.53l-0.73-.73,0.06-.23,0,0h-0.5L57.79,51,57.7,51a0.47,0.47,0,0,0-.38.35,1.05,1.05,0,0,1-.18.32,3.37,3.37,0,0,0-.44.73,2.2,2.2,0,0,0,.35.59l0.23,0.47a5.69,5.69,0,0,0,1.14,1.44l0.21,2a19,19,0,0,0-.62,3,2.09,2.09,0,0,0,.15.67,2.1,2.1,0,0,1,.15.56l-0.09.38L58,62.88l-0.21.59L58,64.11a4.61,4.61,0,0,0,.21,1.14L58,67.36H57l-1.08.85-2.4.88-0.38.21H52.72a12.11,12.11,0,0,0,.47-1.67,17,17,0,0,1,.53-2A4.85,4.85,0,0,0,54,64.17a8.76,8.76,0,0,0-.73-2.64,0.89,0.89,0,0,0-.59-0.62,9.78,9.78,0,0,1-1-.38,3.3,3.3,0,0,0-1.08-.23,0.73,0.73,0,0,0-.79.85q0,0.91,1.32,1.14l0.21,0.76a19.69,19.69,0,0,1-.15,2.31,14.41,14.41,0,0,1-1.79,4.42v0.41Q49,70.73,48.82,71a3.58,3.58,0,0,0-1.11,1.93,1.24,1.24,0,0,0,1.23,1.29l0.12,0.09A5.26,5.26,0,0,0,50.14,74a8.06,8.06,0,0,1,1.61-1L52,73A3.85,3.85,0,0,0,54,72.59a13.5,13.5,0,0,0,2.5-1.51l1.17-.88,0.59,0.32a3.21,3.21,0,0,1,0,.35,1.28,1.28,0,0,1,0,.21V71.2a1.73,1.73,0,0,0-.06.29L58.29,75q0,1.67-1.14,1.67l-0.12,0a2.64,2.64,0,0,0-.44-0.06l-0.47.47-1.2.62a8.53,8.53,0,0,0-2.31.79,4.49,4.49,0,0,1-1.35.62l-1.87.7q-1.76.56-2.08,0.62a2.62,2.62,0,0,0-.94.15,3.15,3.15,0,0,1-1.46.56,2,2,0,0,0-.67.15,30.88,30.88,0,0,1-4.07,1.52l-0.59.12A7.85,7.85,0,0,1,38,83.3a3.47,3.47,0,0,1-2.17-.91l-0.73.09,0,0.23a1,1,0,0,0-.47.62A2.41,2.41,0,0,0,35.7,85a3.67,3.67,0,0,0,2.29.91q1.61,0,6.27-2a9.35,9.35,0,0,1,1.58-.53q0.91-.18,2.46-0.53a4.64,4.64,0,0,1,2.05-1.11l0.35-.2,1.08,0,1.73-1a3,3,0,0,0,1.61-.91l0.32,0a5.62,5.62,0,0,0,1.05-.29H57q1.11,0,1.11.82a1.6,1.6,0,0,1-.12.5q0,0.12-.15.47L57.76,102q0.15,2.67,1.14,2.67a3.66,3.66,0,0,0,1.55-.62l0.62-8.91V85.5l0.44-5.62V78.73l0.91-.64a5.61,5.61,0,0,1,.7-0.29,5.86,5.86,0,0,1,1.38-.09l2.72-.21,0.26,0.06,0.18,0.06a0.44,0.44,0,0,0,.18-0.06,3.85,3.85,0,0,1,1.44-.29l0.62,0h2.52l2,0.23a7.28,7.28,0,0,1,2,.44l2.31,0.62a3,3,0,0,0,.53.06,0.54,0.54,0,0,0,.62-0.41,1.1,1.1,0,0,1,.35-0.53,1.35,1.35,0,0,0,.12-0.41,0.45,0.45,0,0,0-.06-0.18A1.47,1.47,0,0,1,80,76.27Zm29.3-5.8a1.67,1.67,0,0,0,1-.29A11.27,11.27,0,0,0,112,68.39a4.92,4.92,0,0,0,.44-0.56,12.61,12.61,0,0,1,1.82-2.05l1.88-2.84V62.74a4.23,4.23,0,0,1,.64-1.7l0.26-.53,0.35-.67a15.12,15.12,0,0,1,.79-1.79,4.4,4.4,0,0,0,.7-1.17,1,1,0,0,0-.06-0.23,8.83,8.83,0,0,1-.35-1.49q-0.73-3.72-1.55-4.13a2.26,2.26,0,0,0-1.17-.21L115.09,52l0.82,1.23,0.21,3.22a2.48,2.48,0,0,0-.35.44q-0.21.29-.44,0.59-0.76.41-.88,3.52l-0.44.53a7.53,7.53,0,0,1-.73,1.82l-0.7,1q-1.23,1.79-1.49,2.11a7.86,7.86,0,0,0-.79,1.05l-0.91,1.08a1.72,1.72,0,0,1-.73,1.08l-0.12,0h0v0.56Q108.5,70.47,109.32,70.47ZM98.57,58.19a23.38,23.38,0,0,0,1,2.49,12.65,12.65,0,0,1,1.14,1.14q0.06,0.09.47,1.38l0.29,0.94s0,0.13-.06.32a5.57,5.57,0,0,0-.15.7V65.4a4,4,0,0,1-.67.56A4.57,4.57,0,0,0,99,67V67.1q-0.18.35-.44,0.82l1.17,0.82,2.72-1.14,0.26-.23,0.18-.41,0.38-.41,0.82-1.14,0.06-1.76-0.76-1.58a21.75,21.75,0,0,0-2.67-3.75L100,57.49a1.18,1.18,0,0,0-.76-0.64q-0.38,0-.53.76l-0.26.26v0l0,0Q98.54,57.93,98.57,58.19Zm25.25,10.4a1.7,1.7,0,0,0-.64.38l-0.7.12-0.32.21-0.73.38a12.62,12.62,0,0,1-2.46,1.2,25.16,25.16,0,0,0-2.52.85,3.73,3.73,0,0,1-1.2.26q-0.38,0-.7,0a3.26,3.26,0,0,0-1,1.49,0.56,0.56,0,0,0,.18.41l0.38,0.41,0.59,0a2.48,2.48,0,0,0,.73-0.2l1.17-.09q0.12,0,1.67-.64l1.14-.35a10.6,10.6,0,0,1,2.4-1.29L123,72a4,4,0,0,0,1.29-.41,2.72,2.72,0,0,0,.67-1,1.8,1.8,0,0,0,.21-0.7,1.26,1.26,0,0,0-.82-1.2A1.86,1.86,0,0,0,123.82,68.59Zm18.46,28.15-0.09,0a1.28,1.28,0,0,0-.62.35,3.63,3.63,0,0,0-.79,2.05,3.79,3.79,0,0,0,.09.59l-0.29.26h-0.06l-0.09-.06a0.19,0.19,0,0,0-.15-0.12q-1.41-.35-2.14-0.62a4.36,4.36,0,0,1-1-.7q-2.05-1.35-2.67-1.85l-1.46-1a4.25,4.25,0,0,1-1.7-1.23,5.68,5.68,0,0,0-.59-0.64l-2.14-3.16-0.21-.56a10.08,10.08,0,0,1-1.08-3.93l0-.29a2.48,2.48,0,0,1,0-.26,5.48,5.48,0,0,0,.06-0.64l0-1.08,0.15-.67,0.12-.79,0.15-.64,0-1.49,0.18-.64,0-1.32,0.21-.79-0.15-.7,1.23-1.67a2.48,2.48,0,0,0-.5-1.23,3.8,3.8,0,0,0-1.35-1.32l-2.84,1-0.29.41-3.9,1.9-0.56.64L113.69,80l-1.9.85h-0.15a10,10,0,0,1-2,.64l-1.08.35a4.8,4.8,0,0,0-2.34.56A0.7,0.7,0,0,0,106,83v0.35q0,0.64,1,.7a3.76,3.76,0,0,1,.59.15,1.6,1.6,0,0,0,.32.06,10.76,10.76,0,0,0,3-.85,6.74,6.74,0,0,1,1.85-.5l0.56-.35,2.55-1.32,1.44-.85a7,7,0,0,1,2-1.38,11.45,11.45,0,0,0,1-.56,6.27,6.27,0,0,1,2.26-1l0.64,0a4.5,4.5,0,0,1,1.61-.88l0.38,0q0.09,1.38.09,2.26a11.58,11.58,0,0,1-.09,1.38q0,0.44,0,.62a2.68,2.68,0,0,0,.06.53l0,0.26q0,0.18-.67,2.7a2.56,2.56,0,0,0-.12.67l0.06,0.88,0.06,1.2a26.27,26.27,0,0,1,.62,2.9,22.89,22.89,0,0,1,2.17,3.08l0.44,0.7q0.59,0.91,1.11,1.79a3.67,3.67,0,0,0,.38.62l0.35,0.5,0.23,0.21,0.41,0.23a5.19,5.19,0,0,0,1,1.05,12.83,12.83,0,0,1,1,.85,20.41,20.41,0,0,0,2.49,1.85h0.38l0.09,0.44h0.18a4.66,4.66,0,0,0,1.7,1.05,6.52,6.52,0,0,1,2.11.85,4,4,0,0,1,.79.15,5.12,5.12,0,0,0,1.23.26,3,3,0,0,0,1.93-1,1.71,1.71,0,0,1-.06-0.41,0.67,0.67,0,0,1,.12-0.38,3.34,3.34,0,0,0,.38-1.38,17.17,17.17,0,0,1-.73-2.81Q142.78,96.75,142.28,96.75Zm-24-33a2.75,2.75,0,0,0-1.05.64,1.05,1.05,0,0,0-.47.5v0.23a0.15,0.15,0,0,0,0,.15l0.12,0.29a0.84,0.84,0,0,0,.29.7,3.14,3.14,0,0,0,1.23.41,5.83,5.83,0,0,0,2.55-.82q2.05-1.05,2.55-1.29t0.79-.38a8.25,8.25,0,0,1,2.4-1.26l1.49-.7L128,61.65a1.76,1.76,0,0,0-1.29-1.11,5.74,5.74,0,0,0-2,.88l-0.7.23L123.5,62l-3.11,1.64a4.45,4.45,0,0,1-1.61.5Zm-22.82,14q0.85,0.09,1.11,1.67,0.29,2.05,1.52,2.05,0.79,0,.91-2.11l-0.85-2.37-1.58-1.29-2.23-1.29L93.09,71.5a1,1,0,0,0-.41.59,1.8,1.8,0,0,0-.5.94,4.32,4.32,0,0,0,.18,1.11l0,0.12a5.92,5.92,0,0,0,.64,1.9,2.21,2.21,0,0,0,2,1.52h0.5Zm10.17,8.82-0.64,1-0.26.35-0.47.79q-1.11,1.88-2.17,3.31-1.93,2.84-2.43,3.49a18.47,18.47,0,0,0-1.29,1.76,1.21,1.21,0,0,1-.85.79l-0.41,0q0.06-.64.06-1.11a2.44,2.44,0,0,0-.06-0.53A2.84,2.84,0,0,1,97.08,96a8.34,8.34,0,0,1,.26-1.11l0.06-1.44a19.77,19.77,0,0,0,.47-3A25.31,25.31,0,0,1,98.92,85V84.85a1,1,0,0,0-.62-0.64,0.71,0.71,0,0,0-.44.38,14.4,14.4,0,0,0-.78,1.22Q97,86,96.4,88.08A7.71,7.71,0,0,0,96,89.92a30.7,30.7,0,0,1-1.32,6.39l-0.06,2,0,0.62a15.9,15.9,0,0,1,.29,1.61A3.54,3.54,0,0,0,96,101.7a2.83,2.83,0,0,0,1.26.21l0.44,0,1.2-1.38,2.43-3.66a5.79,5.79,0,0,1,.91-1.76,11.27,11.27,0,0,1,.91-1.2l4.28-8.14,0.06-.82H106.6A4.82,4.82,0,0,1,105.66,86.5Zm94.75-3.81a9.45,9.45,0,0,0-1,.06,4.68,4.68,0,0,0-1.2-.2,1.32,1.32,0,0,0-.35.06l-0.56.15a3.39,3.39,0,0,1-.5-0.15,1.58,1.58,0,0,0-.59-0.12,8.37,8.37,0,0,0-1.14.2l-1.73.09-0.62.15-1.93,0a35.12,35.12,0,0,0-3.52,1l-1,.29-1.11.32a10.22,10.22,0,0,1-1.05.12l-0.29,0a1.62,1.62,0,0,1-.41-0.23l-0.09,0a0.08,0.08,0,0,1-.06-0.06l0.06,0a0.76,0.76,0,0,0,.32-0.7,3.15,3.15,0,0,1-.09-0.47l0.15-1.85q-0.23-.76-0.29-0.88a1,1,0,0,1-.12-0.29,0.92,0.92,0,0,1,.12-0.32,1.68,1.68,0,0,0,.15-0.62,2.78,2.78,0,0,1,.21-0.82,1.16,1.16,0,0,1,.91-1l2.23-.64,2.61-.06,0.09,0,0.59-.23a2.68,2.68,0,0,0,1.14-.21,0.8,0.8,0,0,0,.32-0.64l-0.06-.15a4.45,4.45,0,0,0-.64-1.58,9.35,9.35,0,0,0-1.32-.12,4.08,4.08,0,0,0-1.64.47,30.18,30.18,0,0,0-3.11.76l-0.12,0h-0.23a0.71,0.71,0,0,1-.26-0.32l0.15-.59V72.67l0.06-.76L184,71.5a1.72,1.72,0,0,0-.09-0.67l-0.47-.88a0.45,0.45,0,0,0-.18-0.32l-0.32-.35a4.28,4.28,0,0,0-1-1.41,3,3,0,0,0-.09-0.32H181a0.34,0.34,0,0,0-.25,0s-0.13.51-.37,1.45l0.12,0.29,0.56,1.49,0.35,0.91v1.05l0.06,1.44a3.5,3.5,0,0,1-.47,1.14,6.83,6.83,0,0,1-2.75,1.46q-1.08.35-2.7,1.05h-0.44l-3.63,1.26a1.9,1.9,0,0,1,.41-1.05,3.21,3.21,0,0,0,.32-0.62l0.18-.5a10.33,10.33,0,0,0,1-1.73,4.12,4.12,0,0,1,.38-0.85,0.65,0.65,0,0,0,.15-0.29V73.72a0.94,0.94,0,0,1,.41-0.44q0.18-.47.62-2.17a7.76,7.76,0,0,1,.44-2.52,2.46,2.46,0,0,1,1.32-1.14,12.64,12.64,0,0,0,1.79-.67,4.49,4.49,0,0,1,1.38-.41,3.87,3.87,0,0,0,1.26-.23,6.67,6.67,0,0,0,.88-0.59l1.46-.5a6.2,6.2,0,0,1,1.52-.62,1.89,1.89,0,0,0,1.08-.32h0.47a2,2,0,0,1,1.26-.38l0.53-.21,1,0.35a1.32,1.32,0,0,0,.47.09q2.08,0,2.08-1.64a2,2,0,0,0-.06-0.38,4.29,4.29,0,0,0-.76-0.67l-1.73-.38-0.35,0-0.32-.06-0.29.06a14.12,14.12,0,0,0-3.25,1.23l-1.49.29a10.36,10.36,0,0,0-1.76.76,1.6,1.6,0,0,1-.67.29,1.72,1.72,0,0,0-.56.15l-0.26.23a3.34,3.34,0,0,1-1.32.35,4.09,4.09,0,0,0-1.17.32,0.72,0.72,0,0,1-.26-0.26l0.41-.47v-1l0.15-.62,0.06-.59,0.41-1a4.47,4.47,0,0,1,.32-1.61q0.09-.2.29-0.88l0.26-.76-0.88-3.08L178,53l-1.55-1.17L176,51.34h-0.56a0.83,0.83,0,0,0-.88,1,5.85,5.85,0,0,0,1.29,2.26,7,7,0,0,1,.64,2l-0.06.73,0,1.05a7.29,7.29,0,0,0-.47,2.2,12.3,12.3,0,0,1-.79,2.81,1.79,1.79,0,0,0-.09.38q0.06,0.59.06,0.64-0.23.29-.7,0.94a3.26,3.26,0,0,1-.41.53l-0.67.21-0.91.23h-0.21l-1.11.82-0.53-.06-0.56.15-0.29.06-0.76.23-1.52.06a1.44,1.44,0,0,0-1,.38l-0.18.09-1.49-.15-0.32.06-0.41,0a3,3,0,0,1-.5-0.06l-0.41-.38-0.88-.18H161l0,0.67q-0.18.64-.18,0.67,0,0.35,1.32,1a18,18,0,0,1,1.58.88h1.52q0.62-.12,1.67-0.26l1.52-.29,0.88-.09,1.52-.53,1.08-.09a2.82,2.82,0,0,1,.73-0.21,1.81,1.81,0,0,1,0,.26,10.11,10.11,0,0,1-2.17,6.36,3.28,3.28,0,0,1,0,.38,0.78,0.78,0,0,1-.12.44,2.25,2.25,0,0,0-.41,1q-0.91,2.26-1.61,2.4l-0.47.67v1.7H168q1,0.26,1.08.26a4.64,4.64,0,0,0,1.73-.29,28.12,28.12,0,0,1,2.93-1.14,3,3,0,0,1,1.08-.26,3.78,3.78,0,0,1,1-.67l1-.31s0.44-.29,1.25-0.83l1.67-.41a5.15,5.15,0,0,1,1-.79L180.75,80a3.51,3.51,0,0,0-.23.91,0.92,0.92,0,0,0,.09.35l0.18,0.35-0.18.64,0,0.56a8.45,8.45,0,0,0-.23,1.17v0.91q0.12,0.88-2,1.14l-1.11.35-0.41,0a11.87,11.87,0,0,1-1.93.59,36.4,36.4,0,0,1-3.46,1.2q-1.29.32-4.19,1.32-1.73.62-3.57,1.11a3.6,3.6,0,0,0-1.52.56l-0.85.12-0.79.21-0.23,0a5.7,5.7,0,0,1-1.79-.32,5.13,5.13,0,0,0-2.29-1.05,0.74,0.74,0,0,0-.88.79,2.12,2.12,0,0,0,.47.79,0.61,0.61,0,0,0,.26.38l0.67,0.56L157,92.82l0.82,0.62,0.76,0.23,0.7,0.44,0.21-.09,0.47-.18a15,15,0,0,1,3-.73,5.83,5.83,0,0,0,2.87-1.05H166q1.41-.41,2.37-0.62a12.49,12.49,0,0,0,2.4-.82l0.06,0,0.82-.41,0.7,0.06,0.35-.09a4.13,4.13,0,0,1,.64-0.15l1-.26a2.24,2.24,0,0,1,.88-0.41,1.17,1.17,0,0,0,.35-0.12,9.34,9.34,0,0,1,1.82-.53q1.67-.29,2.46-0.38l0.09-.12h0.35a3,3,0,0,1,.06.44q0,0.21-.21,1.46l-0.15.73,0.29,2.05-0.12,3.4,0.29,1.85-0.29,5.8,0.5,0.82q0.2,1,.21,1.05a0.94,0.94,0,0,0,.76.18l0.35-.18a7.58,7.58,0,0,1,.18-1.87,11.5,11.5,0,0,0,.26-2.11l0.21-1.35V98.3q0.15-1.7.26-3.31a9.26,9.26,0,0,1-.12-1.32,3.89,3.89,0,0,1,.12-0.88q0.15-.59.15-0.64a1.76,1.76,0,0,0,.06-0.29,1.24,1.24,0,0,0,.06-0.21,0.68,0.68,0,0,0-.06-0.21,0.79,0.79,0,0,1,0-.18,1.75,1.75,0,0,1,0-.26,2.2,2.2,0,0,0,.06-0.47,2.17,2.17,0,0,0-.09-0.56l0.47-1.64V87.52a0.85,0.85,0,0,1,.32-0.35l0.44,0.26,0.32-.12,1.61-.53q0.76-.15,1.49-0.35a7,7,0,0,1,1.52-.29,7.67,7.67,0,0,0,1.93-.5,1.7,1.7,0,0,1,.44-0.09,1.27,1.27,0,0,1,.32.06,4,4,0,0,0,.79.12q0.26,0,2.11-.35l1.23-.26,1.93,0.21,0.62,0.06,0.56,0.12,2,0h0.44a4.53,4.53,0,0,0,1-.2l0.5-.64Q203.22,82.69,200.41,82.69ZM227,63.91a1.82,1.82,0,0,0-.23.76,1,1,0,0,0,.32.67,2,2,0,0,0,1.49.59,3.3,3.3,0,0,0,1.52-.41q1.23-.7,1.58-0.88t1.44-1l0.76-.53a2.86,2.86,0,0,0,.79-0.15,0.75,0.75,0,0,0,.18-0.59q0-.18-0.06-0.7l-1.14-1.11-2.31,1.11a5.1,5.1,0,0,0-1.49,1.05l-0.47.5-1.41,0A1.13,1.13,0,0,0,227,63.91Zm-6.45,12.16V75.6l0.38-.38,0.85-3.34,0.35-.38a5,5,0,0,1,.47-1.38,2.8,2.8,0,0,0,.21-0.82l1.2-1.64,0-.23,0.35-1.17,0.06-.38,0.67-1.58,0-.23,0.06-.06V63.17l0.38-.41,0.15-.5,0.26-.73a2.33,2.33,0,0,1,.2-1l0.23-.18,0-.32,0.62-2V57.93l0.44-.44-0.06-.41a3.56,3.56,0,0,0,.29-1l0.09-.64-0.23-1.05-0.12-.59-0.47-.53-0.32-.56L226.25,52l-0.35-.79a2.61,2.61,0,0,1-.26-0.94,1.45,1.45,0,0,0-1.05-.53h-0.47l-0.59,1,0.62,2.67a0.76,0.76,0,0,1,.38.44v0.41l0.23,0.85a1.25,1.25,0,0,1-.06.29,7.75,7.75,0,0,0-.18,1.26,9.6,9.6,0,0,0-.59,2.14V58.9l-0.85,2.67-0.35.41-0.62,3-0.18.18-0.35.56-0.5,1.14a9.09,9.09,0,0,1-1.46,3.46L219,72.75a27.28,27.28,0,0,0-2.4,5.65,14.19,14.19,0,0,1-2.23,4l-0.62.79A10.46,10.46,0,0,1,212,85.47h-0.26l-0.62,1.11a0.44,0.44,0,0,0-.06.18q0,0.44.73,0.44a3.36,3.36,0,0,0,2.34-1.52,9,9,0,0,0,1.29-1.61L217,82.51A6,6,0,0,0,218,81l0.44-.5,0.18-.35a9.86,9.86,0,0,0,.82-2A15.61,15.61,0,0,1,220.53,76.07Zm29.3-13.59,0.23,0.38,0.26,0.06,0.79,0.76a4.8,4.8,0,0,1,.85.62,3.56,3.56,0,0,0,.47.38,3.77,3.77,0,0,1,.56.44,1.35,1.35,0,0,0,.47.47v0a2.56,2.56,0,0,0,.38,1q0.06,0.15.26,0.56l1.55,0.38a1.46,1.46,0,0,0,.5-0.85,6.45,6.45,0,0,0-.21-1.08q-0.47-2.64-1.52-3.13l-0.15-.26a1.89,1.89,0,0,1-.44,0,2.61,2.61,0,0,0-.76-0.44,2.25,2.25,0,0,1-.67-0.44A4.87,4.87,0,0,0,250,60a3.61,3.61,0,0,0-1,.21l-0.38.73v0.15A3.49,3.49,0,0,0,249.83,62.47ZM265,98.1a0.79,0.79,0,0,0-.38.06,2.51,2.51,0,0,0-.38,1.23q-0.29.85-.44,1.2a1.45,1.45,0,0,1-.94.88,11.58,11.58,0,0,0-1.14.26l-0.59-.32a20.2,20.2,0,0,1-5.39-3.84l-3.31-3.34a5.14,5.14,0,0,1-.82-0.91l-0.94-1.23-0.06-.35a10.75,10.75,0,0,1-2-2.64,2.56,2.56,0,0,1,.59-1.2,1,1,0,0,0,.15-0.59l0.53-.5,0.29-.5,0.67-.76,0.38-.88,0.44-.62L252.2,83l0.15-.21,0.47-1.38a12.13,12.13,0,0,0,.53-1.67,2,2,0,0,0-.5-1.14,1.32,1.32,0,0,0-.94-0.67,0.71,0.71,0,0,0-.38.18L251.38,78l-0.18.18-0.56.59a11.68,11.68,0,0,1-.7,2.61,14,14,0,0,1-1.29,2q-0.26.47-.53,0.88t-0.85,1.38H247l-0.09-.44L246.78,85a4.34,4.34,0,0,0-.79-1.29V83.33l-0.23-.59a8.4,8.4,0,0,0-.12-1.26l0-.26,0-.29,0.56-.62q1.23-.85,2.75-2a19.07,19.07,0,0,1,2.17-1.85l1.88-1.38h0.15l0.23-.2V73.6L252.79,73,252.14,73a2.68,2.68,0,0,0-.82.38,2.09,2.09,0,0,0-.38.21l-0.12.12v0.53l-4,3a4.63,4.63,0,0,1-2.11,1.32,0.57,0.57,0,0,1-.64-0.64,1.15,1.15,0,0,1,.23-0.5,3.69,3.69,0,0,1,1-1.2,2.56,2.56,0,0,0,1.08-1.26A7.12,7.12,0,0,1,248,73a0.92,0.92,0,0,0,.26-0.5s0.46-.61,1.38-1.76a6.77,6.77,0,0,0,.59-1,11.83,11.83,0,0,1,.73-1.11q0.09-.12.35-0.53V67.07a1.94,1.94,0,0,0-1-.76,3.57,3.57,0,0,0-.91.21l-1.05.64a0.86,0.86,0,0,1-.67.62,1.42,1.42,0,0,0-.76.44,2.48,2.48,0,0,1-1,.62,5.62,5.62,0,0,0-1.52.94,3.16,3.16,0,0,0-1.11,1.29l-0.09.26-0.12.29a0.71,0.71,0,0,1-.41-0.09,2.81,2.81,0,0,1-.41-1.82l-0.15-.62-0.06-1-0.35-1.23q0-2.46-.09-2.7T241.33,63q0.06-.35.12-0.62a3.69,3.69,0,0,0,.09-0.64l-0.09-.76-0.15-.62a8.51,8.51,0,0,0-.29-2.11,17.65,17.65,0,0,0-1.35-2.9l-0.23-.38a3.52,3.52,0,0,1-1-1.05,3.33,3.33,0,0,0-.21-0.35l-0.59-.23h-0.82v0.41l-0.23,1,0.23,0.56q0.73,1,1.14,1.7a24.53,24.53,0,0,1,.88,2.58L239,59.89l-0.15.64,0.29,1a4.53,4.53,0,0,0-.09.82v0.09l0,0.32L240,72.11a6,6,0,0,1-2.14,1.29q-2.14.15-2.14,0.91a2,2,0,0,0,.18.64l-0.18.5a3.53,3.53,0,0,0,1.17.32,7.66,7.66,0,0,0,3.43-1.46,1,1,0,0,1,.32.67l0.15,0.62a6.83,6.83,0,0,0,.26,1.64q0.18,0.82.18,0.85a0.38,0.38,0,0,1-.29.35l-0.29.12-2.49,3-0.59.2,0.23-.47V81.1a0.31,0.31,0,0,0-.32-0.38,1.79,1.79,0,0,0-.91.53A9.87,9.87,0,0,0,234.48,84l-0.32.44h-0.23l-1,1-4.48,4.39a5.3,5.3,0,0,1-1.85,1.32l-0.32.15,0.18-1.26a10.07,10.07,0,0,0,1.35-2.34q1.67-3.87,2.08-4.66l0.15-.29a1.27,1.27,0,0,1,.47-0.62,10,10,0,0,0,1.32-2.29,5.72,5.72,0,0,0-.21-1.11c0-.12,0-0.25-0.09-0.41L231,77.91h-1.14l0.12-.23,0-.06L230,77s0.06-.21.18-0.56l0.32-1.29a6.09,6.09,0,0,0,.62-1.64A1.74,1.74,0,0,0,231,72.9a3,3,0,0,1-.12-0.35l0.23-1.38a1.49,1.49,0,0,0-.41-0.7,0.59,0.59,0,0,0-.29-0.23,1.93,1.93,0,0,1-.82-0.26,1.7,1.7,0,0,0-.94,1.23h-0.18a2.81,2.81,0,0,0-1.23.88,2.71,2.71,0,0,1-.67.94h-0.47l-0.91.62-0.79.06V73a1.09,1.09,0,0,0-.91,1.17,7.29,7.29,0,0,0-.18.79,1.18,1.18,0,0,0,1.44,1.2,3,3,0,0,0,.79-0.2l0.38,0a3,3,0,0,1,1.79-1.08,0.12,0.12,0,0,1,.12.09,4.92,4.92,0,0,1,.26.85l0,0a2.06,2.06,0,0,0-.38.82q-0.06,1.93-.09,2a6.87,6.87,0,0,0-.21,1.11q0,0.12,0,.5l-0.41.5V81l-3.46,1.82-0.67.59a2.17,2.17,0,0,0-.82.09l-0.82-.06a0.74,0.74,0,0,0-.59.56l-0.35.44,0,0.09,0.12,0.67a0.52,0.52,0,0,1,.06.15l0.06,0.15,0.67,0.41a2,2,0,0,1,.38,0h0.23a4,4,0,0,0,1.23-.35l0.38-.09a4,4,0,0,1,1.44-1l1.49-.64a6.11,6.11,0,0,1-.79,2.11l-0.44,1.73a7.43,7.43,0,0,0-.76,1.14A13.91,13.91,0,0,1,223,92.38l-0.26.35-0.62,1.32a6.82,6.82,0,0,1-1,2,12.91,12.91,0,0,1-1.82,2.34l0.06,0.41a1.49,1.49,0,0,0,1.61,1.52,2.5,2.5,0,0,0,1.35-.67l0.23-.32,3.28-3.69,1.88-2.23,1.14-1.52,3.28-4V87.73l2-1.46,0.09-.35a1.31,1.31,0,0,1,1,.62,8.21,8.21,0,0,0,1.23.21,3.16,3.16,0,0,0,1.58-.5,11,11,0,0,0,1.61-1.44l0.91-.53a10.45,10.45,0,0,1,1.35-.76l0.29-.06,0.59-.62,1.58,3.69a1.26,1.26,0,0,1,.15.7,2.19,2.19,0,0,1,.44.67,2.53,2.53,0,0,1-.06.47,2.82,2.82,0,0,0-.06.56q0,0.18.06,0.73l-0.62.67a6.3,6.3,0,0,1-.82,1.11,14.36,14.36,0,0,0-2,1.64q-0.32.29-1.2,1a18.33,18.33,0,0,1-2.26.85q-2.31.67-2.31,1.32a2.28,2.28,0,0,0,.06.5h0.47a11.88,11.88,0,0,1,1.23.23,6.35,6.35,0,0,1,1.11-.44,11,11,0,0,0,4.07-1.61,4.68,4.68,0,0,0,1.35-.67,3.88,3.88,0,0,1,1-.62l0.35-.35,1.58-1.44a1.6,1.6,0,0,1,.59.29,21.46,21.46,0,0,1,1.38,2q0.85,1.17,1.2,1.76a0.3,0.3,0,0,0,.18,0,10.65,10.65,0,0,1,1.67,1.7,19.69,19.69,0,0,0,4.86,4l0.41,0.53,0.32,0.26q0.67,0.59,1.64,1.49l0.38,0.35,1,0.44,0.38,0.06,0.62,0.09h0.59l0.44,0.06,0.59-.26,0.76,0.06q0.2,0,.35-0.73c0-.12,0-0.19,0-0.21a2.92,2.92,0,0,0,.64-1.58,4.09,4.09,0,0,0,.62-2.72A1.47,1.47,0,0,0,265,98.1ZM243.33,75V74.78a1,1,0,0,0-.09-0.41,4,4,0,0,1-.38-1.35q0-.2,0-0.53l0-.59L247.19,70a2.84,2.84,0,0,1-.82,1.61l-0.26.29v0.38l-2.46,3ZM291,67.92a1.58,1.58,0,0,0,.64,1.26,0.9,0.9,0,0,0,.62.23,13.63,13.63,0,0,0,3.46-1.35l1.58-.47a17.36,17.36,0,0,0,3.63-.91l1.82-.26,0.53-.15,1.44,0.53a5.14,5.14,0,0,0,.82.35,4,4,0,0,1,.23,1.05,8.41,8.41,0,0,1-.41,2q-1.17,4.19-1.32,4.54a7.6,7.6,0,0,0-.38,1,3.5,3.5,0,0,0-.59,1.17,18.76,18.76,0,0,1-.53,2.2l-0.47.82a6.24,6.24,0,0,1-.82,1.93,2.41,2.41,0,0,0-.53.91l-0.79,2a1,1,0,0,1-.88.53,1.75,1.75,0,0,1-.85-0.47,1.34,1.34,0,0,0-.85,1.32,4,4,0,0,0,.7,1.58,2.65,2.65,0,0,0,1.11,1.23,0.11,0.11,0,0,1,.09.06l-0.06.15h0.67A2.68,2.68,0,0,0,301.48,88l0.15-.21a1.59,1.59,0,0,1,.32-0.79l0.44-.59a1.2,1.2,0,0,1,.26-0.32V85.85l0.94-2.7A13.43,13.43,0,0,0,305.67,78l0.44-1,0.06-.26,0.32-.73,0.06-.44,0.53-.76,0.06-.5,0.21-.59a2.1,2.1,0,0,1,.47-1.11V72.2a6.88,6.88,0,0,0,.32-1.32l0.56-1.82,0.09-.67,0.38-1.11L309,66.81,309,66.37a3.15,3.15,0,0,1-.5-0.73q-1.08-.59-3.46-1.82a4.53,4.53,0,0,1-1.29-.26,8,8,0,0,1-3,.7A24.33,24.33,0,0,1,298,65l-2.7.94-0.64.12a15.8,15.8,0,0,1-2.34.44,2.31,2.31,0,0,1-.38,0A1.75,1.75,0,0,0,291,67.92Zm-4.19-1.08,1.55-2.2q0.23-.5,1.17-3.13l0.15-.32,0.12-.41,0.38-.59,0.35-.64a5.08,5.08,0,0,0,1.29-3q0-.38-0.06-1.08l-0.64-.73,0.06-.18q-0.21-.18-1.17-1.11a2.26,2.26,0,0,0-1.32-.79,1.34,1.34,0,0,0-1,.44,1.15,1.15,0,0,0-.38.82,1.05,1.05,0,0,0,.23.62,3.15,3.15,0,0,1,.29.47,0.47,0.47,0,0,0,.38.32l0.15,0.06,0.23,0.73v1.23L288,58.34l-1.11,1.73a6.83,6.83,0,0,1-.38,1.44l-0.12.59-0.35.47a3.69,3.69,0,0,1-.38,1,4.23,4.23,0,0,0-.44.94,10.22,10.22,0,0,1-.91,2,0.63,0.63,0,0,0-.15.32V67a0.74,0.74,0,0,1-.5.47l-1.52,2.7-0.44.85-2.08,3.49-1.87,2.08-0.35.41a2.63,2.63,0,0,0-1.61,1,0.84,0.84,0,0,1-.41.41,10.11,10.11,0,0,0-1.61,1.11v0.26l0.21,0.32v0.21l0.21,0.26A3.92,3.92,0,0,0,275,80.4a9.66,9.66,0,0,0,1.52-.59,14.21,14.21,0,0,0,2-1.55l1.82-1.52a6.85,6.85,0,0,1,1.2-.94,3,3,0,0,1,.76-1l1-1.41,0.59-.53,0.79-1.73A13.19,13.19,0,0,0,286.86,66.84Zm35.89,25.72q0.09-.59.15-0.88a1.61,1.61,0,0,0,.06-0.35,10.69,10.69,0,0,0-.32-1.2,1.25,1.25,0,0,0-.35-0.62A1.9,1.9,0,0,0,321,91.45a8.55,8.55,0,0,1-.12,1.35q0,0.44-1.38,1.46l-3.4,1.55h-0.23a11,11,0,0,1-2.49.73l-0.7.15h-1.11l-1.2.29-4-.29q-1.05-.09-3.63,1.38l-6.33-.47-3.49-.44a3.82,3.82,0,0,1-.62.06,13,13,0,0,1-2.26-.67l-0.79-.06-0.59-.21a0.69,0.69,0,0,1-.38-0.06q-0.18-.15-1.11-1.23a10.51,10.51,0,0,1-.35-1.11l0.12-.62,0.09-.47,0.21-.5-0.35-1.52,0.35-1.58a4.51,4.51,0,0,1,.26-1.76,1,1,0,0,0,.15-0.47,1.8,1.8,0,0,0-.15-0.59,2.47,2.47,0,0,1,1.05.26L289,86.88l0.32-.12a15.68,15.68,0,0,0,2.2-1.05,8.72,8.72,0,0,1,2.52-1.38l0.91-.47a7,7,0,0,0,1.14-.47,4.9,4.9,0,0,0,.91-0.88,2.1,2.1,0,0,0-.94-1.44,1.61,1.61,0,0,1-.91-0.82L297,77.91l0.38-.12,0.06-.09L298,76.53a4,4,0,0,0,.35-1.23,4,4,0,0,0-.44-1.35l0-.26a1.83,1.83,0,0,0-1-.44l-0.21-.06-0.21-.06a4.77,4.77,0,0,0-.67.29l-0.56.41-0.56.18-0.79.5-0.44.12-0.67.64-0.91.06a2.18,2.18,0,0,0-.59.38,3.87,3.87,0,0,1-1.38.56,7.75,7.75,0,0,0-.88.26l-0.26.12-2.52-.59-0.38.18a2.53,2.53,0,0,0-.88.67l-0.12.53-0.09.35,0.47,0.7a5.92,5.92,0,0,0,2.08.59l0.67,0.21a4.35,4.35,0,0,0,.5-0.32,1.18,1.18,0,0,1,.44-0.15,5.81,5.81,0,0,0,1.11-.26,37.13,37.13,0,0,1,3.63-1.35l0.73-.67a0.47,0.47,0,0,1,.32.44,2.39,2.39,0,0,1-.53,1.2l-0.7,1.17-0.47.35-0.12.12a3.63,3.63,0,0,0-.64.73,2.16,2.16,0,0,1-.29.38,5.16,5.16,0,0,0-.94,1,5.64,5.64,0,0,1-1.38,1.58,3.94,3.94,0,0,1-1.76.44q-0.06-2.4-1.29-2.4a0.69,0.69,0,0,0-.59.23,11.57,11.57,0,0,0-.59,1.85l-0.06,1.32-0.21.67L285.19,87l-0.32,1.38-0.12,1.52-0.15.7-0.12.88a16.14,16.14,0,0,0-.21,2.17,4.77,4.77,0,0,0,.06.91q0.12,0.53.15,0.76a3.83,3.83,0,0,0,.38,1.32,3.17,3.17,0,0,1,.5.73l0.26,0.06a6.6,6.6,0,0,0,2.17,1.7,4.68,4.68,0,0,0,1.7.56l0.62,0q2.49,0.67,3.31.81t3.13,0.22l3.4,0.09a2.86,2.86,0,0,0,.56-0.06l0.5-.06a2.32,2.32,0,0,1,.62.15,9,9,0,0,1,1.32-.23H305l2.81,0a12.17,12.17,0,0,0,4.22-.88,7.6,7.6,0,0,1,1.82-.5q0.38,0,1.76-.26l0.7-.12a8.7,8.7,0,0,0,2.49-.73l2.84-1.38h0.2l0.21-.2V96.28l0.59-1.11a3.76,3.76,0,0,0,.35-1.29A6,6,0,0,0,322.75,92.56Z" transform="translate(266.35 -49.29)"/><path class="cls-2" d="M-219.59,93.85l-1.61-1.7-0.09-.35A24.07,24.07,0,0,0-225,88.63q-1.08-.76-2.9-2.17l-4.22-1.23a4.89,4.89,0,0,0-2-.73,2.74,2.74,0,0,0-1.14.35,3.18,3.18,0,0,0-.82,1,1.33,1.33,0,0,0,.82.5l0.29,0.26a28.44,28.44,0,0,1,4.48,1.52,22.07,22.07,0,0,1,3,2.14l0.76,0.09,3,2.78,0.88,1.35h-1.76a0.87,0.87,0,0,0-.35.59,1.32,1.32,0,0,0,.38.62l1.41,1.41,2.78,2.31a6.32,6.32,0,0,0,1,.09,1.23,1.23,0,0,0,.91-0.35A1.78,1.78,0,0,0-218,97.8a4.16,4.16,0,0,0-.7-1.79A8.57,8.57,0,0,1-219.59,93.85Zm-20.24-20.1-1.29-1.2-0.41.09L-243,73V72a10.15,10.15,0,0,0,3.69-.91,18.24,18.24,0,0,0,4.42-2.34,3.78,3.78,0,0,1,2.29-1.08,3.59,3.59,0,0,1,1.14.29l1.52,0.73-0.91,1.44-4,2.81v1.7l0.62,0q2.17,0,5.57-3.49a22.34,22.34,0,0,1,1.9-1.61,1.37,1.37,0,0,0,.59-1.08q0-1.7-3.31-2.84a10.66,10.66,0,0,0-2.93-.73q-1.73.09-4.83,2.87a6.93,6.93,0,0,1-3.34,1.9,2.18,2.18,0,0,0-.62.18l-0.64.41a24.6,24.6,0,0,1,.76-4.48l0.09-1.49,0.64-2.08q0.76-4.19.76-4.28a6.26,6.26,0,0,0-.47-1.58,3.15,3.15,0,0,0-.64-1.08,3.9,3.9,0,0,1-.79-1.11V53.95l-1.7.23,0.06,1.46h0.64a7.13,7.13,0,0,1,.62,2.23,36,36,0,0,1-.88,3.66,40.76,40.76,0,0,1-2.72,11.78,7.86,7.86,0,0,0-1,2.46s0,0.15.09,0.38,0,0.28.09,0.56q-1.29-.73-1.23-1.29l-2.55,3.72,0.09,0.26-0.82,1.14h-1.55l2.49-6.18q0.15-1.7.21-2.05a8,8,0,0,1,1.49-2.46v-1a3.37,3.37,0,0,0-.15-1.14,6.38,6.38,0,0,0-1.14-1.49l-1.08-.82a9.3,9.3,0,0,1-2.14-.5,3.49,3.49,0,0,0-.94-0.26q-0.76,0-2.9,2.05-4.34,4.19-6.12,4.19a7.5,7.5,0,0,1-1.2-.23,3.35,3.35,0,0,0-.67-0.09,1,1,0,0,0-1,.79l-0.35.38v0.41a0.94,0.94,0,0,0,.64.26,18.44,18.44,0,0,1,2.29.67,1.44,1.44,0,0,0,.35.09,5.31,5.31,0,0,0,1.55-.62,10.41,10.41,0,0,0,2.29-1.44q2.7-2.49,3.28-2.9a2.7,2.7,0,0,1,.82-1.08,4.28,4.28,0,0,0,1-.09,0.72,0.72,0,0,1,.26-0.06,1.46,1.46,0,0,1,1,.41,2.37,2.37,0,0,1,.91,1.76q0,0.32-.67,3.16a25.66,25.66,0,0,1-1,3.28q-1.14,3-1.82,3l-2.14-.76-1.38-.12a8.82,8.82,0,0,0-1.26.21,34.93,34.93,0,0,1-4.07.29l-1,.29-0.35.09a0.3,0.3,0,0,0-.12.29q0,1.38,2.34,1.38,0.18,0,2.7-.44l0.76,0.12h0.85l1.2,0.35a4,4,0,0,1,1.55.15l-0.12,1a7,7,0,0,1-.21,1.93,17.79,17.79,0,0,1-2,3.9q-1,1.11-1.14,1.33a8.34,8.34,0,0,0-.53,1.39l-2.11,1.9-0.35.23L-263.74,91l-0.15-.5a0.75,0.75,0,0,0-.7.82A8.82,8.82,0,0,0-263.8,94l0.23,0.26H-263q2.43,0,3.16-1l1.64-2.26a19.88,19.88,0,0,1,1.93-1.9l2.55-5.6,3,0.35a17.28,17.28,0,0,1,1.93-2.67q2.9-2.9,3.3-3.37a24.41,24.41,0,0,0,1.57-2.43l1.08-2.29v1.32l2.31,1.79q0.12,1.32.12,1.82a9,9,0,0,1-.47,2.23l-0.09,1.58q0,0.18-.5,1.46l-0.18.56q-0.91,3.08-1.17,3.69-0.38.85-1,2.23H-244L-249,92.12h-0.5l-0.06.53a10,10,0,0,0,2.58.56,15.79,15.79,0,0,0,3.08-.56l2.11-1.11,1.29-3a5.79,5.79,0,0,0,.41-0.59,9.28,9.28,0,0,0,.7-2.2,15.44,15.44,0,0,1,.76-2q0.06-.88.29-2.31L-238.2,79l0.38-1.44a14.77,14.77,0,0,1-.47-3Zm85.93,25.52-0.62-.35a7.52,7.52,0,0,1-1.2.12,11,11,0,0,1-1.52-.32q-2.58-.5-2.87-0.5a10,10,0,0,0-1.58.29,11.59,11.59,0,0,1-2.81.32,18,18,0,0,1-5.3-.82q-1.7-.53-1.9-0.56a3.66,3.66,0,0,1-.79-0.23l-1.32-1.05a5.48,5.48,0,0,1-1.55-.38q-0.47-.2-2.2-0.76-1.35-.44-2.17-0.79a69.27,69.27,0,0,0-6.56-2.55q-2.75-.73-9.49-2.08a10.82,10.82,0,0,1-4.07,1.23Q-201,91-202,91.24a11.36,11.36,0,0,1-2,.29,14.39,14.39,0,0,1-2.4-.38l0.53-1.14V89.45l0.18-.06q-2.34.62-2.9,1.7a4.68,4.68,0,0,0-.56,1.7,0.61,0.61,0,0,0,.21.44l0.32,0.32,1.55,0.29q0.88,0.09,1.32.09a7.15,7.15,0,0,0,1.55-.18,15.68,15.68,0,0,1,3-.41l1.29-.29a9,9,0,0,0,1.85-.12q0.62-.23,1.67-0.76h2.7a6.08,6.08,0,0,0,1.58.79,15.93,15.93,0,0,1,2.61.38q1.76,0.53,5.48,1.29,0.88,0.7,1.26,1A17.43,17.43,0,0,0-180,97a6.55,6.55,0,0,0,1.67.76A20.72,20.72,0,0,1-174,99.3a27.84,27.84,0,0,0,4.51,1.9,5.14,5.14,0,0,0,1.29.12q0.67,0,2.31-.12,1.35,0,3.34.12,1.76,0.06,2.4.06a8.29,8.29,0,0,0,2-.18q1.2-.26,1.35-0.26h1.26a4.7,4.7,0,0,0,.88-0.5h0.38a4.06,4.06,0,0,0,.79-0.79v0A0.74,0.74,0,0,0-153.91,99.27ZM-196.3,70.73l3.49-.88a18.69,18.69,0,0,0,.29,3.46,7.67,7.67,0,0,1,.12,1.08,5.05,5.05,0,0,1-.15,1.08,31.73,31.73,0,0,0-.62,3.43,13.69,13.69,0,0,0,.26,2,2.48,2.48,0,0,1,0,.32s0,0.18-.06.41a7.39,7.39,0,0,0,0,.76,3.08,3.08,0,0,0,.18,1.17,4.86,4.86,0,0,0,1.08,1.17l1.93-.67a6.92,6.92,0,0,1,.64-1.44q0.09-.15,2.26-2.49a5.13,5.13,0,0,1,1.29-1.46,0.81,0.81,0,0,0,.44-0.47l1.41-1.38,0.38-.59,0.53-.53a19.58,19.58,0,0,1,.62-2.29,4,4,0,0,1-1.11.41,0.54,0.54,0,0,0-.38.15,2.72,2.72,0,0,0-.41,1l-1.73,1.7-1.76,1.49-2.49,1.9-0.53-9.64,1.29-1.61,0.23-.09A2.82,2.82,0,0,1-188,67.36a8.63,8.63,0,0,1,1.58-.67l0.56-1,2.29-1.88,2.23-1.93a2,2,0,0,0,.88-1.2,5,5,0,0,0-1-2.17,2.65,2.65,0,0,0-1.79-1.2,5.63,5.63,0,0,0-1.87.41,1.08,1.08,0,0,0-.35.67,3.23,3.23,0,0,0,.15.91,5.88,5.88,0,0,1,.35,1.64q0,0.7-2.14,3.25a13.06,13.06,0,0,1-2.17,2,3.27,3.27,0,0,1-2.46,1.08,2.85,2.85,0,0,1-1.29-.41,3.61,3.61,0,0,0-1.35.44,5.23,5.23,0,0,0-1,1.14l-0.88.5-0.26.23,0.18,1.08ZM-201.46,74a4.24,4.24,0,0,0-1.79.79,3,3,0,0,0-.79.62,2.52,2.52,0,0,0,.7.62l3,2.14a8.36,8.36,0,0,1-.12,1.08q-0.18,1.14-.18,1.2a4.19,4.19,0,0,0,1.08,2.26,5.08,5.08,0,0,0,2.29,1.85,4.19,4.19,0,0,1,1.32.56,10.49,10.49,0,0,1,1.05,1.11l-0.91.88v1.11a2.29,2.29,0,0,0,.7.23,3.45,3.45,0,0,0,.85-0.26,14.65,14.65,0,0,0,.7-1.79,2.42,2.42,0,0,0,.5-0.5,3.54,3.54,0,0,0-.47-1.23l-1.2-.59-0.12-.73L-196.54,82A3.61,3.61,0,0,1-198,79.58a10.23,10.23,0,0,0-.29-2.29A17.63,17.63,0,0,0-199.58,75,3.41,3.41,0,0,0-201.46,74Zm19.75-5,0.21,0.67,0.35,0.35a1.12,1.12,0,0,1,.35-0.09,1.5,1.5,0,0,1,1.23.59,7.66,7.66,0,0,1,.7,3q0.41,3.93.41,4.72a6.45,6.45,0,0,1-.09,1l0,0.29,0.41,3.6-0.29,1-0.09,1.2,0,0.38q0,0.12.21,1.08a13.71,13.71,0,0,1,.44,2.9,4,4,0,0,1-.15.91,4.21,4.21,0,0,0-.15,1q0,0.91,1.9,1.73l0.53-.32,0.12-.06,0.56,0.09a0.5,0.5,0,0,0,.15-0.41l0.15-.67a8.52,8.52,0,0,0,.18-1.67,6,6,0,0,0-.7-2.9q-0.56-1-.56-1.05l0.56-3.81s-0.14-.52-0.41-1.49l-0.12-.53,1.79,0.59a11.94,11.94,0,0,0,2.81,2.72l1.05,0.88a1.33,1.33,0,0,0,.85.23,3.36,3.36,0,0,0,1.88-1.11A45.16,45.16,0,0,1-166,79l0.18-1.14a14.75,14.75,0,0,0,.38-2.23l0.32-.7q0.23-.94.85-3.52a20.58,20.58,0,0,0,1.26-4.48,6.32,6.32,0,0,0-.47-1.49V65.23l-2.93-.73a6.23,6.23,0,0,0-2.31-.85,7.25,7.25,0,0,0-2.31.76l-3.9,1-6,2.29Zm5.89-.26q0.44-.73,3.63-2.11a8.63,8.63,0,0,1,3-.82,4,4,0,0,1,2.67,1,1.6,1.6,0,0,1,.7,1.17,14.83,14.83,0,0,1-.62,2.37L-167,71.76l-0.09,1.64a15.21,15.21,0,0,0-.38,2,19.55,19.55,0,0,1-2.23,6.39l-4.78-2.29-0.64-.82-0.15-.18-0.59-.47q0-1.49,0-2.43t0-2.2V71.88q0-.5,0-0.94,0-1.05,0-1.52A1.59,1.59,0,0,1-175.83,68.74Zm-25.75-.35,0.41,0a2,2,0,0,0,1.49-1,2.3,2.3,0,0,0,.82-1.23,2.77,2.77,0,0,0-.82-1.17q-0.7-.91-1.29-1.58a5.17,5.17,0,0,0-1.2-1.38l-1.05-.26a5,5,0,0,0-1.26-.32q-0.67,0-.67,2.05l1.88,0.76ZM-95.67,97.72a2.81,2.81,0,0,0-.44-0.56,8.87,8.87,0,0,1-.76-1.08,3.42,3.42,0,0,1-.62-0.85,2.66,2.66,0,0,0-1.17-.53l-1.82-.59q-1.76-.64-2.17-0.85a1.34,1.34,0,0,0-.67-0.21l-0.41-.38q-0.5-.15-2.75-1.11l-1.11-.44-0.82-.41-1.29-.41-0.76-.41-1-.35A3.31,3.31,0,0,0-112.9,89a13.44,13.44,0,0,1-1.76-.32l-0.73-.41-0.18-.64a1.86,1.86,0,0,0,.41-0.73l0.15-.29,0.64-3.37a9.64,9.64,0,0,0,.53-1.35q0-.26.09-1l1.9-1.49,1.52-.18,0.18,0.06,0.47-1.05-0.21-1.44a9.44,9.44,0,0,0,2.55-1.87l1.7-2.11a8.42,8.42,0,0,0-.18-1.14A2.68,2.68,0,0,0-107,70.26a11.9,11.9,0,0,1-2.9.41l-0.59.18-1.29,0a6.3,6.3,0,0,1-1.61.62,5.59,5.59,0,0,1,.41-1.61,3,3,0,0,1,1.29-1.55l1.14-.67,0.76-.18,1.58-.88a3.27,3.27,0,0,0,1-.62,9.08,9.08,0,0,1,2.2-.67,14.05,14.05,0,0,0,2.08-.79,1.92,1.92,0,0,0,.73-1.11,0.17,0.17,0,0,0,0-.12,6.91,6.91,0,0,1-.38-1.32,5.43,5.43,0,0,0-1.52-.32,8.68,8.68,0,0,0-2,.29l-1,.21-0.44.38-5.42,2.05-0.47-.29V61.48q-0.35-1.2-.47-1.79T-114.3,58V57.37l-0.85-1.29a10.64,10.64,0,0,0-.85-1.64h-0.23l-2.2-.47a2.25,2.25,0,0,0-1.79,1,0.94,0.94,0,0,1,.18.23,3.49,3.49,0,0,0,1.23,1.11,7.86,7.86,0,0,1,1.76,1.32,4,4,0,0,1,.64,1.82,5.91,5.91,0,0,1,.09.59,22.77,22.77,0,0,1,.64,2.46,2.94,2.94,0,0,1-.23,1l0.38,1a2.53,2.53,0,0,1-1.29,1.85,10.42,10.42,0,0,0-1.93.73l-1.93,1a8.77,8.77,0,0,1-1.9,1.35,10.32,10.32,0,0,0-2,1.23l-2.87,1.73,0,0a0,0,0,0,0,0,0l0,0-1.2.76-0.21.21-3.16.23-0.64.12a1.45,1.45,0,0,0-.76.23l-0.21,1.17h0a0.61,0.61,0,0,1,.18.23,1,1,0,0,0,.76.53l1.26,0.32,1.49-.41a4.8,4.8,0,0,0,.76-0.12,6.6,6.6,0,0,0,2-1.29,6.51,6.51,0,0,1,1.38-1,10.84,10.84,0,0,0,1.32-.88l0.56-.44a14.11,14.11,0,0,0,2.7-1.9,3.64,3.64,0,0,0,1.76-.67l0.7-.44,0.44-.35,1.9-.7a0.59,0.59,0,0,1,.5-0.47,5.87,5.87,0,0,0,.18.82,0.52,0.52,0,0,1,.06.15,1,1,0,0,1-.62.76,20.38,20.38,0,0,0-2,1.32,1.41,1.41,0,0,0-.38.67,0.7,0.7,0,0,0,.35.5h1.14l1.32-.62a1.29,1.29,0,0,1,.18.35l-0.23,1.29a1.28,1.28,0,0,1-.06.59,6.68,6.68,0,0,1-.94.38l-0.06.32-0.53.21-5.65,3.9-3.13,1.93a2.74,2.74,0,0,0-.64,1.26,2.5,2.5,0,0,0,.64.88l0,0.53a0.71,0.71,0,0,0,.73.64,1.22,1.22,0,0,0,1.14-.73,7.22,7.22,0,0,1,1.29-1.85,14.43,14.43,0,0,0,2.26-2.11,2.31,2.31,0,0,0,1-.59,2.5,2.5,0,0,1,.79-0.56l2.7-1.76,0.23,0.23q0.06,0.67.06,1.05a3.73,3.73,0,0,1-1.7,3.13,11.81,11.81,0,0,0-1.52,1.2,6,6,0,0,1-2.14,1.61l-0.7.18a2.88,2.88,0,0,0-.67-0.41,0.71,0.71,0,0,0-.44.38,1.33,1.33,0,0,0-.35.79,0.32,0.32,0,0,0,.09.23,6.07,6.07,0,0,1,.85,1.35,2.13,2.13,0,0,0,.94.41q0.79,0,2.93-2.05l0.76-.79L-117,83q0.06,0.62.06,0.94a4,4,0,0,1-.35,1.23,6.43,6.43,0,0,1-.29,1.14l0,0.18-0.85,1.26-10-1.79-1.7.41q0,0.35,0,.56a1.33,1.33,0,0,0,.73,1.11l0.21,0.15,0.26,0.15q0.35,0.06,1.58.38l1,0.06,0.64,0.15a2.84,2.84,0,0,1,1.08.26l0.53,0.35a0.16,0.16,0,0,1,.09-0.06l0.12,0.06,0.06,0.06,0.38-.09a2.21,2.21,0,0,1,.44.18,1.22,1.22,0,0,0,.7.12,3.06,3.06,0,0,1,1.88.38,0.28,0.28,0,0,0,.15.06,0.3,0.3,0,0,0,.12-0.06,0.32,0.32,0,0,1,.18-0.06,0.51,0.51,0,0,1,.44.29l-2.72,2.26-0.79.38-2.64.79-3.46.44h-0.18a1.22,1.22,0,0,0-.56.62,1.18,1.18,0,0,0,.44.85,9.06,9.06,0,0,0,2.55.35l0.91,0a5.35,5.35,0,0,0,1.14-.26,3.13,3.13,0,0,0,1.55-.41,2,2,0,0,1,.82-0.41l0.82,0.09,0.09-.06a2.69,2.69,0,0,1,.44-0.35A5.35,5.35,0,0,0-120,94a1,1,0,0,1,.67-0.41l1.67-2.26,0-.18,0.64-.2a5.82,5.82,0,0,1,2.31.53,11.48,11.48,0,0,1,2.26.82l0.76,0.23,1.67,0.76,1.2,0.44,0.41,0.2,0.82,0.18,0.7,0.47,2.55,0.79,1.17,0.67a21.66,21.66,0,0,1,2.43.88,8.1,8.1,0,0,1,2.52,2.23,3.19,3.19,0,0,1,.56,1.41,8.13,8.13,0,0,0,1.76.44c0.16,0,.23,0,0.23-0.12v-0.26l0.26-.32a0.21,0.21,0,0,0,.12-0.09V99.83a5.52,5.52,0,0,0-.38-1.52Zm-17.84-22.47a2,2,0,0,0,.09-0.32q0.09-.23.29-1.05l0.88-.21a0.86,0.86,0,0,1,.64-0.44,2.6,2.6,0,0,1,.76.26l1.73-.12-1.2,1.17-0.29.35a14.83,14.83,0,0,1-2.93,1.93,1.38,1.38,0,0,0,0-.26A0.91,0.91,0,0,0-113.8,76l-0.12-.09A1.33,1.33,0,0,0-113.51,75.25Zm-22.82,4,0.82-1.58A23.19,23.19,0,0,1-133.7,74a6.68,6.68,0,0,0,.5-1.08,12.82,12.82,0,0,1,.76-1.58l1.2-3.63a7,7,0,0,1,.62-2.05l1.08-3.57,0.18-.62a2.68,2.68,0,0,1,.21-1.17l-0.64-1.08c0-.18,0-0.3,0-0.38A4.23,4.23,0,0,0-130,58a5,5,0,0,0-.64-1.79,3.24,3.24,0,0,0-1.2-1.08,3,3,0,0,0-.44.06,1.86,1.86,0,0,0-.7,1,2.33,2.33,0,0,0,.15.62,4.74,4.74,0,0,1,.21.79,13.17,13.17,0,0,0,.29,1.41,4,4,0,0,1,.15.82,2,2,0,0,1-.06.41,7.28,7.28,0,0,0-.21,1.2l-0.15.62,0,0.82L-133,64.38a4,4,0,0,1-.41,1.35,6.88,6.88,0,0,0-.32.73l-0.26.79a10.17,10.17,0,0,0-.53,1.46,9.4,9.4,0,0,1-.67,1.82,3.59,3.59,0,0,0-.44.94,8.08,8.08,0,0,1-1.08,2.78q-0.79,1.47-1.52,3.16l-1.05,1.44-0.56,1.2-0.59.73-1.05,1.52-1.05,1.17a14.68,14.68,0,0,1-2.43,2.58,9.36,9.36,0,0,0-1.49,1.2,2.45,2.45,0,0,0-.56.38,3.71,3.71,0,0,1-1.38.94l-0.85.5-0.09.29-0.18.21a1.52,1.52,0,0,0,1.17.76,3.88,3.88,0,0,0,1.61-.53,6.33,6.33,0,0,1,1.05-.5q2.61-1,7.09-6.18l2.23-3.72V79.2Zm2.37,11a1.59,1.59,0,0,1,.09-0.56,5.18,5.18,0,0,0,.23-1.14v-1q-0.18-1.2-.18-1.26a2.17,2.17,0,0,1,.12-0.59,1.92,1.92,0,0,0,.06-0.56l0.29-1.61a1.26,1.26,0,0,0-.09-0.29,0.94,0.94,0,0,1-.06-0.23,0.94,0.94,0,0,1,.06-0.23,0.5,0.5,0,0,0,0-.12,2.19,2.19,0,0,0-1-1.35,4,4,0,0,0-1,.79,2.84,2.84,0,0,0-.21,1.41l-0.41,1.38a0.39,0.39,0,0,0,.18.29,0.17,0.17,0,0,1,.06.09l-0.06.06a0.76,0.76,0,0,0-.15.44,10.72,10.72,0,0,1-.44,1.38,0.67,0.67,0,0,0-.06.23,0.9,0.9,0,0,0,.12.35,6.4,6.4,0,0,1,.15,1.88l0.09,1s-0.06.28-.18,0.73l-0.12.56a4,4,0,0,1,.38,1.2,1.39,1.39,0,0,0,.15.73,5.37,5.37,0,0,0,.5.5,1.67,1.67,0,0,0,1.14.41,1.33,1.33,0,0,0,.88-0.56,1.74,1.74,0,0,1,0-.26,8.08,8.08,0,0,1,.18-0.82Q-134,90.39-134,90.16Zm58.33-25.58L-75.86,64V63.91a0.47,0.47,0,0,1,0-.12V63.64q-0.06-.91-2.14-2.52l-0.94-1.52-1.49-.21a1.58,1.58,0,0,0-.7,1.41q0,0.53.12,0.53h0.38l0.44,0.7,0.47,0.59-0.09.53,0.38,0.64a6.14,6.14,0,0,1,.23.94l0.41,1.61a1.11,1.11,0,0,1-.18.47,0.68,0.68,0,0,1,.06.21l-0.06.44-0.06.62-0.06.15a0.5,0.5,0,0,0,.06.15,1,1,0,0,1,.15.41l-0.32,1.08-0.12,2.31-0.12.67-0.06.88a6.87,6.87,0,0,0-.21,1.73,9,9,0,0,1-.53,2.78,9.32,9.32,0,0,0-.38,1.38,8.13,8.13,0,0,1-.79,2.84l-1,5.21-0.59,1L-84,90.92A7.56,7.56,0,0,0-84.68,92l-0.67,1.85A5.78,5.78,0,0,1-86.15,95l-1,1.26a4.7,4.7,0,0,1-1.44,1.82,0.84,0.84,0,0,0-.23.7v0.5h0.15a2,2,0,0,0,.56.2,2,2,0,0,0,1-.44,7.69,7.69,0,0,1,1.49-1A2.78,2.78,0,0,0-85,97.86,15.91,15.91,0,0,1-82,93.15l1.79-3.54a17.09,17.09,0,0,1,1-2.52L-79,85.62l0.91-2.4,0.12-.62L-77.5,81l0-.12a3.73,3.73,0,0,1-.12-1.05,15.1,15.1,0,0,1,.85-3.72V74.75l0.21-.62a5.21,5.21,0,0,1,.18-1.46l0.32-.41-0.06-.18,0.06-.21-0.21-.29a0.43,0.43,0,0,1-.09-0.26,1.73,1.73,0,0,1,.09-0.47,8.12,8.12,0,0,0,.23-1.08l0.18-.64a14.91,14.91,0,0,1,.26-2,3.74,3.74,0,0,0,.15-0.91q0-.23-0.09-1Q-75.6,65.11-75.63,64.58Zm32.08,7.18q0-2.7.26-6.39c0-.25,0-0.44,0-0.56a5.62,5.62,0,0,0-.26-1.87,1.29,1.29,0,0,1-.06-0.26l0.09-.29A12.74,12.74,0,0,0-43.23,61a0.52,0.52,0,0,0-.06-0.23,0.28,0.28,0,0,1-.06-0.15,0.3,0.3,0,0,1,.06-0.12l0.06-.09-0.32-.67A0.64,0.64,0,0,0-44,59.4s-0.45-.65-1.23-1.9a5.16,5.16,0,0,0-.53-0.67,2.46,2.46,0,0,1-1.17-1.38l-2.9-.79-2.43.38-0.29.18a2.28,2.28,0,0,0-.64.23,1.59,1.59,0,0,1-.53.23h-0.18a0.71,0.71,0,0,0-.32.23l-4.19,1.29a13.07,13.07,0,0,0-1.9.32l-1,.15-0.62.21a4,4,0,0,0-1.38.7,10.39,10.39,0,0,1-5,1.26A7,7,0,0,1-69,60h-0.18V60.3a2.12,2.12,0,0,0-.67,1,1.89,1.89,0,0,0,.73.91h0.38a2.79,2.79,0,0,1,1.08.18,0.44,0.44,0,0,0,.18.06,0.44,0.44,0,0,0,.18-0.06,2,2,0,0,1,.79-0.18,1.61,1.61,0,0,0,1.14-.41l1-.06a1.66,1.66,0,0,1,1.2.64l0.06,0.23a3.28,3.28,0,0,0,.15.67,0.31,0.31,0,0,1,.06.12L-63,63.5l-0.06.26-0.56.7-0.09.79-0.18.64v1.9l-0.06.67a4.92,4.92,0,0,1,.29,1.26v0.94a1.88,1.88,0,0,1-.82,1.41,4.93,4.93,0,0,0-1.67.79,11.08,11.08,0,0,1-2.7,1.41l-1.32.5h-0.32l-0.53.35a2,2,0,0,1-.47.32l-1.32-.21h-0.29l-0.62-.67-0.21.15a3.8,3.8,0,0,0-1,.53v0.12a0.68,0.68,0,0,1-.09.18q-0.12.35-.15,0.41a0.43,0.43,0,0,0-.09.15,0.6,0.6,0,0,0,.12.23,0.41,0.41,0,0,1,.09.21,0.72,0.72,0,0,0,.09.18,10.93,10.93,0,0,1,3.19,1.11l0.23-.09a25.37,25.37,0,0,0,2.64-1,12.43,12.43,0,0,0,1.41-1l1.76-1A5.46,5.46,0,0,1-64.41,74q0,0.32,0,.56a1,1,0,0,0,0,.23l0.06,0.38a2,2,0,0,1-.53,1v0.41L-67,77.65a4.63,4.63,0,0,0-1.05.88,4,4,0,0,1-.64.82,5.83,5.83,0,0,1-.82.26l-0.29.56-2.34,2.55-1.46.53h-0.29l-0.23.35-0.53,1.23L-74,86.11l1.44,0.38a4.39,4.39,0,0,1,1.44-.2,16.52,16.52,0,0,1,2.64-1A1.59,1.59,0,0,0-67.66,85a3,3,0,0,1,1.73-1.11,1.53,1.53,0,0,1,1.11.64,0.93,0.93,0,0,1,.29.59l-0.06.73a3.38,3.38,0,0,1-.29,1.55q0.32,2,.41,3.19a1.77,1.77,0,0,0,.23.85l1,1.14,0.85,0.06,0.41-.47a2.28,2.28,0,0,0,.79-1.26,0.94,0.94,0,0,0-.06-0.26,7.23,7.23,0,0,1-.56-2.72,3.41,3.41,0,0,1,.32-1l-0.23-3.11A8.83,8.83,0,0,1-60,82.66l0.35-.26,0.47-.06,0.73-.15,1.2-.06,0.73-.15a6.77,6.77,0,0,0,2.58-.56l0.67,0.09,0.35,0L-52.34,82l1,0.5,0.21,0.15,0.41-.44a1.46,1.46,0,0,0,.44-0.47l0-.12A14.92,14.92,0,0,0-51,79.82a7.13,7.13,0,0,0-3.08-1.08l-0.38-.06a5.2,5.2,0,0,0-.76,0,13.32,13.32,0,0,1-2.67.79,8.77,8.77,0,0,0-1.85.32l-0.5.09-0.85.32a2.84,2.84,0,0,1-.67-0.41l0.73-.94V78.73a4.24,4.24,0,0,1-.32-1.46A3.69,3.69,0,0,1-60,74.92l2.14-1.23,0.5-.38A29.52,29.52,0,0,1-55,71.47,1.26,1.26,0,0,0-55,71.14a2.25,2.25,0,0,0-.62-0.76,1.31,1.31,0,0,0-.35-0.53,3.54,3.54,0,0,0-1.52-.29,4.18,4.18,0,0,0-1.17.26l-1.73,0a1.93,1.93,0,0,1-.62-1V68.51a1.15,1.15,0,0,1,.23-0.5q0-1.44.06-1.93a15.43,15.43,0,0,1,.62-2.17q0.06-.62.06-0.7a3.74,3.74,0,0,0-1-1.85A0.89,0.89,0,0,1-61,61.18a0.49,0.49,0,0,0,0-.12A0.17,0.17,0,0,0-61,60.95a1.82,1.82,0,0,1-.23-0.32,0.94,0.94,0,0,1,.59-0.32A5.15,5.15,0,0,1-59.58,60a4.15,4.15,0,0,0,1-.23,2.61,2.61,0,0,0,.32-0.26,1.65,1.65,0,0,1,.79-0.23l2.87-.76q0.82-.12,1-0.18a11.09,11.09,0,0,1,3.81-.73l0.91-.06,1.23,1.58a2.56,2.56,0,0,1,.7,1.08q0.06,0.41.09,0.53A3.68,3.68,0,0,1-46.63,62q0,0.23,0,.85,0.26,12,.38,15.21,0.12,4.34.12,7.06a16.33,16.33,0,0,1-.29,3.43q-0.44,2-.44,2.2L-46.57,94l-0.26,1-0.12,1.26-0.18.94L-47,98l0,0.44,0,0.7q0,0.15-.15,1.08v0.47l-0.91-.26-1-.88-0.62-.7-0.21-.32a6.82,6.82,0,0,0-2.05-2L-53.1,95a7.27,7.27,0,0,1-1.46-1.41A2.05,2.05,0,0,0-55.12,93q-0.26-.18-0.94-0.7L-56.21,92h-0.12a0.78,0.78,0,0,0-.85.64,12.84,12.84,0,0,0,.56,1.23A10.31,10.31,0,0,0-54.57,96a8.4,8.4,0,0,0,.91,1.41l0.53,0.82,0.7,0.64,2.11,2.2,0.73,0.91a2.76,2.76,0,0,0,.67.67A7.52,7.52,0,0,0-47.3,104a8.55,8.55,0,0,0,1.32.47l0.88-.82a0.59,0.59,0,0,0,.41-0.47l0.62-.73,0.06-.56,0.18-.67,0.09-.88,0.18-.53a3.47,3.47,0,0,0-.15-0.5,2.16,2.16,0,0,1-.15-0.88q0-.21.06-1.55V90l0.23-.21q0.12-5.74.29-9.35,0.09-2.17.09-3.6A16,16,0,0,0-43.29,75,25.41,25.41,0,0,1-43.55,71.76Zm-23.17,9.81c-0.16,0-.23,0-0.23-0.06l0-.56,0-.06,0.06,0a0.15,0.15,0,0,0,.06-0.12,3,3,0,0,1,.76-0.56,3.34,3.34,0,0,0,.76-0.62h0.76l0.26,1.49Zm55.31-1.9a6.22,6.22,0,0,1,.85.32,2.32,2.32,0,0,0,.67.15,1.14,1.14,0,0,0,.67-0.26,0.71,0.71,0,0,0,.35-0.53S-8.92,79.06-9,78.61a1.69,1.69,0,0,0-.47-1l-0.62-.21-0.21-.32-0.29-.35-0.82-.21q-0.7.06-1.29,0.06a4.7,4.7,0,0,1-.62-0.06A5.51,5.51,0,0,0-14,76.48a1.09,1.09,0,0,0-.7.53l-0.64.06V75.54l-0.18-4.69,0.59-.64,0.06-1a2.88,2.88,0,0,0,.56-0.12,9.5,9.5,0,0,1,2-.56,6.22,6.22,0,0,0,1.38-.26,2.07,2.07,0,0,0,.59-0.53l0.06-1L-10.53,66l-1.38-.64a3.78,3.78,0,0,1-1,.35,2.07,2.07,0,0,0-.44.12,2.57,2.57,0,0,1-.73.47,0.85,0.85,0,0,1-.56-0.41,4.7,4.7,0,0,1,0-.62V64.7q0-.38,0-0.76-0.06-1.32-.06-2.14V61.56a4.46,4.46,0,0,1,.21-0.76l0.06-.47,0.15-.67,0.06-1.11A3.19,3.19,0,0,0-14,57.64a7.48,7.48,0,0,0-.18-1,2.65,2.65,0,0,0-.18-0.7,2.27,2.27,0,0,1-1.05-.73q-0.62-1-.94-1.41l-0.06-.23-0.29-.06q-1.44-1.58-2-1.58l-0.41,0a2.49,2.49,0,0,0-.38.91,5.33,5.33,0,0,0,1.32,2.34,4.93,4.93,0,0,1,1.29,2.29l-0.62,10.14-4.07,2.55-0.06.47h-0.26l-0.79.59-0.44.18a10.24,10.24,0,0,1-1.73.53h-1.08l-0.82-.88h-0.59a4.21,4.21,0,0,0-1,2.29H-28a5.41,5.41,0,0,0,3.11,1.29,2.16,2.16,0,0,0,.79-0.18,8.6,8.6,0,0,0,2.87-1.58,1.27,1.27,0,0,1,.94-0.47l0.62-.64q0.59,0,1.17,2.23l0.12,0.2-0.88,2.9a1.85,1.85,0,0,0-.37.31,1.56,1.56,0,0,0,0,.51l-0.35.62a14.15,14.15,0,0,1-1.58,2.29l0,0.53-0.38.12,0,0.23L-23.16,83l-0.18.18v0.47l-0.21.21-0.47.7-6,3.72,0.06,0.35a1,1,0,0,0,1.2.88,3.49,3.49,0,0,0,1.08-.21Q-26.79,89-26.53,89a4.68,4.68,0,0,0,2.46-1.14,5.45,5.45,0,0,0,1.49-1l0.44-.12,0.21-.38A4.54,4.54,0,0,1-21.17,85l0.88-.59a1.36,1.36,0,0,0,.18-0.56,1.64,1.64,0,0,1,.62-1l1.11-1.05L-18.15,95l-0.91.94A13.19,13.19,0,0,0-18.59,98q0.67,2.58,1.35,2.58l0.18-.06q1.11-.18,1.32-2.43V95.64l0.06-.76q0-.09-0.06-0.53a2,2,0,0,1,0-.32,3.57,3.57,0,0,1,.21-1l-0.18-.2,0.26-10.55-0.26-2.17,0.21-1.46a2.6,2.6,0,0,1,.76-0.26,3.8,3.8,0,0,1,1.23.38,2.48,2.48,0,0,0,.82.2A2,2,0,0,1-11.41,79.67ZM8.22,67.8L8.69,68,9.21,68.3,9.89,68h1a1.83,1.83,0,0,1,.79-0.5,2.17,2.17,0,0,1,.56.09,1.5,1.5,0,0,1-.5,1.11q-2.61,2-2.61,2.78a0.77,0.77,0,0,0,.12.38,0.63,0.63,0,0,0,.44.38,0.71,0.71,0,0,0,.23-0.09l0.26-.12a11.52,11.52,0,0,0,2.87-2.2l0.82-.79q0.62-.64,1.88-1.76V67l-0.91-1.64-0.15-.18H10.27l0.18-2L9.86,62a2.24,2.24,0,0,0-1.17-.41A1,1,0,0,0,7.6,62.65a1.9,1.9,0,0,0,.44.79v0.44l0.09,0.5a3.64,3.64,0,0,1-.35.73q-0.06.12-.32,0.73v1A1.76,1.76,0,0,0,8.22,67.8Zm13.33,18L21,85.38l-1.44-1a3.62,3.62,0,0,0-.79-0.76,11.66,11.66,0,0,1-1.49-1.11,7,7,0,0,0-1.49-1.35,13.39,13.39,0,0,1-2-1.49A28.75,28.75,0,0,0,11,77.53L9.39,75.89A24,24,0,0,1,7.1,73.25a0.35,0.35,0,0,0-.18-0.18,1.66,1.66,0,0,1-.64-0.41,6,6,0,0,0-.44-0.47L5,71.29A2.83,2.83,0,0,0,4.53,71,1,1,0,0,1,4,70.59a6,6,0,0,0-.64-1,0.93,0.93,0,0,0-.5-0.15l-0.21,0L2,69.53l-0.41.79q-0.53.06-.53,0.38,0,1.44,2.9,2.64l0.91,1.49v0.09q-0.06.73-.44,0.73a1.61,1.61,0,0,0-.82.41l-3,1a5.23,5.23,0,0,1-1.82.79,7.28,7.28,0,0,1-.91.06,3.42,3.42,0,0,1-1-.23V76.86q1-.15,1.67-2.49A9.53,9.53,0,0,1-.69,72.2q0.15-.18.47-0.5l0.64-2.84A5,5,0,0,0,.63,67.1l0.62-.64a2.25,2.25,0,0,1,.21-1,9.26,9.26,0,0,0,.7-2.08A1.4,1.4,0,0,1,2.07,63a0.68,0.68,0,0,1,.09-0.26,1.79,1.79,0,0,0,.15-0.79q0-.91-1.73-1.2a8.88,8.88,0,0,1-3.11,2.52,9,9,0,0,0-2.26,1,1.37,1.37,0,0,0-.67,1.05L-4.7,66.1l1.85-.23h0.91l0.41,0.35A15.48,15.48,0,0,1-2,68a11.44,11.44,0,0,1-.76,2.55A7.6,7.6,0,0,1-3.44,72,10.13,10.13,0,0,0-6,70.62L-7,70.85a4,4,0,0,0-1.87.29,1.37,1.37,0,0,0-.73,1.23,0.74,0.74,0,0,0,.82.85,1,1,0,0,0,.47-0.15l0.41-.21L-7.1,73a2.69,2.69,0,0,1,1.41.35,1.79,1.79,0,0,0,1,.5,0.67,0.67,0,0,0,.21-0.06l0.44-.12,0.41,0.5A12,12,0,0,1-4.53,76q-0.88,1.35-.94,1.49t-0.23.85l-0.21.21q-0.41.67-.59,1A11.39,11.39,0,0,1-10,83.89a4.36,4.36,0,0,0-1.41,1.05l-0.23-.26Q-13,85-13,85.79a0.69,0.69,0,0,0,.21.56l0.12,0.15,0.35,0a1.34,1.34,0,0,1,.88.44,9.76,9.76,0,0,0,1.32-.38q0.18-.09,1.49-1l1.17-.76,1-1A6.84,6.84,0,0,0-4.7,81.6l0.38-.94-0.06-.35h0.47l2.14,0.23a3.26,3.26,0,0,1-.53,1.11,2.06,2.06,0,0,1-.82.35L-3.91,83a14.8,14.8,0,0,0-1.26,1.9A7.29,7.29,0,0,0-6.72,88.6,8.15,8.15,0,0,0-6,90.74a7.9,7.9,0,0,0,.79,1.67,0.69,0.69,0,0,0,.21.41l1.17,0.26-0.26,1.46q0.5,1.79,1.29,1.79h0.15l1-.41,0.44-.15,0.59-.47a7.62,7.62,0,0,0,2.4-1.67V93.35A1.53,1.53,0,0,0,1,92.21l-0.41.18a5.45,5.45,0,0,0-1.05.7,4.12,4.12,0,0,0-1.08.21,0.78,0.78,0,0,1-.29.06,0.81,0.81,0,0,1-.56-0.53l2.49-1.93,0.18-.23,1.32-.44,1.14-1.08,2.58-.67L6.64,89,5.52,90.42,6,91.24a1.06,1.06,0,0,1,.21.5q0,1.38-2.43,2.58H3.56a5,5,0,0,0-.23.47,2.58,2.58,0,0,1-.18.59l-0.76.32a4.13,4.13,0,0,1-.67,1,24.84,24.84,0,0,0-4.34,1.08l-0.82.12L-3.91,98a1.57,1.57,0,0,0-.56.06,21.79,21.79,0,0,1-5,1.05l-0.29-.06L-10,98.83l-0.09-.12-1.32.53a1,1,0,0,0-.12.41l-0.18.47,0,0.15a1.17,1.17,0,0,0,.18.53,2.76,2.76,0,0,0,1.32.47l0.67,0.18a1.25,1.25,0,0,0,.29.06l0.76-.12a13.49,13.49,0,0,0,1.7-.41h0.88l1.44-.38,1.14-.09,2.37-.56,0.85-.06,1.52-.38,0.62-.09L3.59,99l0.47,0,0.64-.18,1.49-.09,0.64-.15,0.62-.06,0.64-.15,0.38-.06,0.26-.06L9,98.33q0.18,0,1.38,0a2.41,2.41,0,0,1,.56,0L12,99.65a1.69,1.69,0,0,1,.5-0.26l1.2,0.26,1.11-.41a5.81,5.81,0,0,0,1.26-.41A1.14,1.14,0,0,0,16.54,98a2.89,2.89,0,0,0-1.38-2.05,3.24,3.24,0,0,0-1.9-.82A5.54,5.54,0,0,0,12,95.4H8.25a6.29,6.29,0,0,1-1.38.32,5.45,5.45,0,0,1-.67-0.06,3.3,3.3,0,0,1,1.11-1.58,2.08,2.08,0,0,0,.23-0.26V93.7a0.33,0.33,0,0,1,.29-0.21H7.78A2.17,2.17,0,0,0,8.92,92a1.53,1.53,0,0,0-.56-1l-0.06-.2a1,1,0,0,1-.62-0.59,0.48,0.48,0,0,1,0-.15l0-.12L6.84,89l1.05-.79H8.13l0.26-1.11L7.75,85.79,8,85.21H8.31a5.84,5.84,0,0,0,2.43-1.44V82.54a2.28,2.28,0,0,0-1.2-.88L8.8,81.34H8.16L7.69,81l-0.5-.12a2.79,2.79,0,0,0-.76-0.2,8,8,0,0,0-2.84.94q-0.29.15-1.79,0.7a3.84,3.84,0,0,0-1.1.56A5.67,5.67,0,0,0-.16,84l-0.94.06-0.41.41L-2,84.42V83.86l0.41-.06a2.45,2.45,0,0,1,.73-1Q0,82.39.42,82.16l0.41-1.82,1.67-.23,4.78-2.7L9,79.26l1.73,1.08,0.21,0.26a8.86,8.86,0,0,0,1.73,1.64l0.64,0.47,1.29,0.88,0.56,0.47,0.5,0.38,0.56,0.5,1.08,0.7a3.66,3.66,0,0,0,.59.76,15.56,15.56,0,0,1,1.44,1.14l0.67,0.59,0.15,0.15,0.79,0.41a9.43,9.43,0,0,0,4.45,1.58,0.84,0.84,0,0,0,1-.94,2,2,0,0,0-.47-1.05ZM-1.92,87.64l2.37-1.35,0.18-.18a4.05,4.05,0,0,1,1.7-1.61,7.87,7.87,0,0,0,1.35-.09,6.65,6.65,0,0,0,1.7-1l1.2-.06a3.61,3.61,0,0,1,.06.56,1.09,1.09,0,0,1-.82,1l-0.06.18a6.72,6.72,0,0,1-3.19,1.7L-1.1,89.28H-1.51l-0.23.26-0.41-.44a0.76,0.76,0,0,1-.26-0.53s0-.19.06-0.5ZM80,76.27V76.12a5.22,5.22,0,0,0-.64-0.29l-0.7-.7,0-.15a1.52,1.52,0,0,1-.41-0.23,9.32,9.32,0,0,0-.91-1.17,1.2,1.2,0,0,0-.59-0.38H76.39a2.55,2.55,0,0,0-.76.53l-0.38.35L71.62,74l-1.73.67-2.2-.21H65.55l-2.17.23-1.55.79-0.53-.62,0.21-.23V72a2.53,2.53,0,0,1-.18-0.44l-0.09-.29A0.93,0.93,0,0,1,61.33,71a1.42,1.42,0,0,0,.15-0.64,2.11,2.11,0,0,1,.06-0.7,1.24,1.24,0,0,0,.06-0.21l-0.09-.59a0.31,0.31,0,0,0,.21-0.18,0.37,0.37,0,0,1,.18-0.21q6.94-.82,7.15-1a1,1,0,0,0,.53-0.73,2.42,2.42,0,0,0-1.11-1.67,1.32,1.32,0,0,0-.88-0.7l-0.21.06a56.34,56.34,0,0,0-5.74,1.2,2.6,2.6,0,0,1-.56-1.26V64.23l0.06-.91,0.15-.76V60.25l0.21-.59a19.09,19.09,0,0,1,.21-3.08,2.48,2.48,0,0,0,.12-0.47,1.81,1.81,0,0,0,0-.26q0-.09-0.06-0.56a2.88,2.88,0,0,0-1.05-1.82l-0.09-.23-0.32-.06-0.09-.41-0.15,0a4.34,4.34,0,0,1-.59-0.53l-0.73-.73,0.06-.23,0,0h-0.5L57.79,51,57.7,51a0.47,0.47,0,0,0-.38.35,1.05,1.05,0,0,1-.18.32,3.37,3.37,0,0,0-.44.73,2.2,2.2,0,0,0,.35.59l0.23,0.47a5.69,5.69,0,0,0,1.14,1.44l0.21,2a19,19,0,0,0-.62,3,2.09,2.09,0,0,0,.15.67,2.1,2.1,0,0,1,.15.56l-0.09.38L58,62.88l-0.21.59L58,64.11a4.61,4.61,0,0,0,.21,1.14L58,67.36H57l-1.08.85-2.4.88-0.38.21H52.72a12.11,12.11,0,0,0,.47-1.67,17,17,0,0,1,.53-2A4.85,4.85,0,0,0,54,64.17a8.76,8.76,0,0,0-.73-2.64,0.89,0.89,0,0,0-.59-0.62,9.78,9.78,0,0,1-1-.38,3.3,3.3,0,0,0-1.08-.23,0.73,0.73,0,0,0-.79.85q0,0.91,1.32,1.14l0.21,0.76a19.69,19.69,0,0,1-.15,2.31,14.41,14.41,0,0,1-1.79,4.42v0.41Q49,70.73,48.82,71a3.58,3.58,0,0,0-1.11,1.93,1.24,1.24,0,0,0,1.23,1.29l0.12,0.09A5.26,5.26,0,0,0,50.14,74a8.06,8.06,0,0,1,1.61-1L52,73A3.85,3.85,0,0,0,54,72.59a13.5,13.5,0,0,0,2.5-1.51l1.17-.88,0.59,0.32a3.21,3.21,0,0,1,0,.35,1.28,1.28,0,0,1,0,.21V71.2a1.73,1.73,0,0,0-.06.29L58.29,75q0,1.67-1.14,1.67l-0.12,0a2.64,2.64,0,0,0-.44-0.06l-0.47.47-1.2.62a8.53,8.53,0,0,0-2.31.79,4.49,4.49,0,0,1-1.35.62l-1.87.7q-1.76.56-2.08,0.62a2.62,2.62,0,0,0-.94.15,3.15,3.15,0,0,1-1.46.56,2,2,0,0,0-.67.15,30.88,30.88,0,0,1-4.07,1.52l-0.59.12A7.85,7.85,0,0,1,38,83.3a3.47,3.47,0,0,1-2.17-.91l-0.73.09,0,0.23a1,1,0,0,0-.47.62A2.41,2.41,0,0,0,35.7,85a3.67,3.67,0,0,0,2.29.91q1.61,0,6.27-2a9.35,9.35,0,0,1,1.58-.53q0.91-.18,2.46-0.53a4.64,4.64,0,0,1,2.05-1.11l0.35-.2,1.08,0,1.73-1a3,3,0,0,0,1.61-.91l0.32,0a5.62,5.62,0,0,0,1.05-.29H57q1.11,0,1.11.82a1.6,1.6,0,0,1-.12.5q0,0.12-.15.47L57.76,102q0.15,2.67,1.14,2.67a3.66,3.66,0,0,0,1.55-.62l0.62-8.91V85.5l0.44-5.62V78.73l0.91-.64a5.61,5.61,0,0,1,.7-0.29,5.86,5.86,0,0,1,1.38-.09l2.72-.21,0.26,0.06,0.18,0.06a0.44,0.44,0,0,0,.18-0.06,3.85,3.85,0,0,1,1.44-.29l0.62,0h2.52l2,0.23a7.28,7.28,0,0,1,2,.44l2.31,0.62a3,3,0,0,0,.53.06,0.54,0.54,0,0,0,.62-0.41,1.1,1.1,0,0,1,.35-0.53,1.35,1.35,0,0,0,.12-0.41,0.45,0.45,0,0,0-.06-0.18A1.47,1.47,0,0,1,80,76.27Zm29.3-5.8a1.67,1.67,0,0,0,1-.29A11.27,11.27,0,0,0,112,68.39a4.92,4.92,0,0,0,.44-0.56,12.61,12.61,0,0,1,1.82-2.05l1.88-2.84V62.74a4.23,4.23,0,0,1,.64-1.7l0.26-.53,0.35-.67a15.12,15.12,0,0,1,.79-1.79,4.4,4.4,0,0,0,.7-1.17,1,1,0,0,0-.06-0.23,8.83,8.83,0,0,1-.35-1.49q-0.73-3.72-1.55-4.13a2.26,2.26,0,0,0-1.17-.21L115.09,52l0.82,1.23,0.21,3.22a2.48,2.48,0,0,0-.35.44q-0.21.29-.44,0.59-0.76.41-.88,3.52l-0.44.53a7.53,7.53,0,0,1-.73,1.82l-0.7,1q-1.23,1.79-1.49,2.11a7.86,7.86,0,0,0-.79,1.05l-0.91,1.08a1.72,1.72,0,0,1-.73,1.08l-0.12,0h0v0.56Q108.5,70.47,109.32,70.47ZM98.57,58.19a23.38,23.38,0,0,0,1,2.49,12.65,12.65,0,0,1,1.14,1.14q0.06,0.09.47,1.38l0.29,0.94s0,0.13-.06.32a5.57,5.57,0,0,0-.15.7V65.4a4,4,0,0,1-.67.56A4.57,4.57,0,0,0,99,67V67.1q-0.18.35-.44,0.82l1.17,0.82,2.72-1.14,0.26-.23,0.18-.41,0.38-.41,0.82-1.14,0.06-1.76-0.76-1.58a21.75,21.75,0,0,0-2.67-3.75L100,57.49a1.18,1.18,0,0,0-.76-0.64q-0.38,0-.53.76l-0.26.26v0l0,0Q98.54,57.93,98.57,58.19Zm25.25,10.4a1.7,1.7,0,0,0-.64.38l-0.7.12-0.32.21-0.73.38a12.62,12.62,0,0,1-2.46,1.2,25.16,25.16,0,0,0-2.52.85,3.73,3.73,0,0,1-1.2.26q-0.38,0-.7,0a3.26,3.26,0,0,0-1,1.49,0.56,0.56,0,0,0,.18.41l0.38,0.41,0.59,0a2.48,2.48,0,0,0,.73-0.2l1.17-.09q0.12,0,1.67-.64l1.14-.35a10.6,10.6,0,0,1,2.4-1.29L123,72a4,4,0,0,0,1.29-.41,2.72,2.72,0,0,0,.67-1,1.8,1.8,0,0,0,.21-0.7,1.26,1.26,0,0,0-.82-1.2A1.86,1.86,0,0,0,123.82,68.59Zm18.46,28.15-0.09,0a1.28,1.28,0,0,0-.62.35,3.63,3.63,0,0,0-.79,2.05,3.79,3.79,0,0,0,.09.59l-0.29.26h-0.06l-0.09-.06a0.19,0.19,0,0,0-.15-0.12q-1.41-.35-2.14-0.62a4.36,4.36,0,0,1-1-.7q-2.05-1.35-2.67-1.85l-1.46-1a4.25,4.25,0,0,1-1.7-1.23,5.68,5.68,0,0,0-.59-0.64l-2.14-3.16-0.21-.56a10.08,10.08,0,0,1-1.08-3.93l0-.29a2.48,2.48,0,0,1,0-.26,5.48,5.48,0,0,0,.06-0.64l0-1.08,0.15-.67,0.12-.79,0.15-.64,0-1.49,0.18-.64,0-1.32,0.21-.79-0.15-.7,1.23-1.67a2.48,2.48,0,0,0-.5-1.23,3.8,3.8,0,0,0-1.35-1.32l-2.84,1-0.29.41-3.9,1.9-0.56.64L113.69,80l-1.9.85h-0.15a10,10,0,0,1-2,.64l-1.08.35a4.8,4.8,0,0,0-2.34.56A0.7,0.7,0,0,0,106,83v0.35q0,0.64,1,.7a3.76,3.76,0,0,1,.59.15,1.6,1.6,0,0,0,.32.06,10.76,10.76,0,0,0,3-.85,6.74,6.74,0,0,1,1.85-.5l0.56-.35,2.55-1.32,1.44-.85a7,7,0,0,1,2-1.38,11.45,11.45,0,0,0,1-.56,6.27,6.27,0,0,1,2.26-1l0.64,0a4.5,4.5,0,0,1,1.61-.88l0.38,0q0.09,1.38.09,2.26a11.58,11.58,0,0,1-.09,1.38q0,0.44,0,.62a2.68,2.68,0,0,0,.06.53l0,0.26q0,0.18-.67,2.7a2.56,2.56,0,0,0-.12.67l0.06,0.88,0.06,1.2a26.27,26.27,0,0,1,.62,2.9,22.89,22.89,0,0,1,2.17,3.08l0.44,0.7q0.59,0.91,1.11,1.79a3.67,3.67,0,0,0,.38.62l0.35,0.5,0.23,0.21,0.41,0.23a5.19,5.19,0,0,0,1,1.05,12.83,12.83,0,0,1,1,.85,20.41,20.41,0,0,0,2.49,1.85h0.38l0.09,0.44h0.18a4.66,4.66,0,0,0,1.7,1.05,6.52,6.52,0,0,1,2.11.85,4,4,0,0,1,.79.15,5.12,5.12,0,0,0,1.23.26,3,3,0,0,0,1.93-1,1.71,1.71,0,0,1-.06-0.41,0.67,0.67,0,0,1,.12-0.38,3.34,3.34,0,0,0,.38-1.38,17.17,17.17,0,0,1-.73-2.81Q142.78,96.75,142.28,96.75Zm-24-33a2.75,2.75,0,0,0-1.05.64,1.05,1.05,0,0,0-.47.5v0.23a0.15,0.15,0,0,0,0,.15l0.12,0.29a0.84,0.84,0,0,0,.29.7,3.14,3.14,0,0,0,1.23.41,5.83,5.83,0,0,0,2.55-.82q2.05-1.05,2.55-1.29t0.79-.38a8.25,8.25,0,0,1,2.4-1.26l1.49-.7L128,61.65a1.76,1.76,0,0,0-1.29-1.11,5.74,5.74,0,0,0-2,.88l-0.7.23L123.5,62l-3.11,1.64a4.45,4.45,0,0,1-1.61.5Zm-22.82,14q0.85,0.09,1.11,1.67,0.29,2.05,1.52,2.05,0.79,0,.91-2.11l-0.85-2.37-1.58-1.29-2.23-1.29L93.09,71.5a1,1,0,0,0-.41.59,1.8,1.8,0,0,0-.5.94,4.32,4.32,0,0,0,.18,1.11l0,0.12a5.92,5.92,0,0,0,.64,1.9,2.21,2.21,0,0,0,2,1.52h0.5Zm10.17,8.82-0.64,1-0.26.35-0.47.79q-1.11,1.88-2.17,3.31-1.93,2.84-2.43,3.49a18.47,18.47,0,0,0-1.29,1.76,1.21,1.21,0,0,1-.85.79l-0.41,0q0.06-.64.06-1.11a2.44,2.44,0,0,0-.06-0.53A2.84,2.84,0,0,1,97.08,96a8.34,8.34,0,0,1,.26-1.11l0.06-1.44a19.77,19.77,0,0,0,.47-3A25.31,25.31,0,0,1,98.92,85V84.85a1,1,0,0,0-.62-0.64,0.71,0.71,0,0,0-.44.38,14.4,14.4,0,0,0-.78,1.22Q97,86,96.4,88.08A7.71,7.71,0,0,0,96,89.92a30.7,30.7,0,0,1-1.32,6.39l-0.06,2,0,0.62a15.9,15.9,0,0,1,.29,1.61A3.54,3.54,0,0,0,96,101.7a2.83,2.83,0,0,0,1.26.21l0.44,0,1.2-1.38,2.43-3.66a5.79,5.79,0,0,1,.91-1.76,11.27,11.27,0,0,1,.91-1.2l4.28-8.14,0.06-.82H106.6A4.82,4.82,0,0,1,105.66,86.5Zm94.75-3.81a9.45,9.45,0,0,0-1,.06,4.68,4.68,0,0,0-1.2-.2,1.32,1.32,0,0,0-.35.06l-0.56.15a3.39,3.39,0,0,1-.5-0.15,1.58,1.58,0,0,0-.59-0.12,8.37,8.37,0,0,0-1.14.2l-1.73.09-0.62.15-1.93,0a35.12,35.12,0,0,0-3.52,1l-1,.29-1.11.32a10.22,10.22,0,0,1-1.05.12l-0.29,0a1.62,1.62,0,0,1-.41-0.23l-0.09,0a0.08,0.08,0,0,1-.06-0.06l0.06,0a0.76,0.76,0,0,0,.32-0.7,3.15,3.15,0,0,1-.09-0.47l0.15-1.85q-0.23-.76-0.29-0.88a1,1,0,0,1-.12-0.29,0.92,0.92,0,0,1,.12-0.32,1.68,1.68,0,0,0,.15-0.62,2.78,2.78,0,0,1,.21-0.82,1.16,1.16,0,0,1,.91-1l2.23-.64,2.61-.06,0.09,0,0.59-.23a2.68,2.68,0,0,0,1.14-.21,0.8,0.8,0,0,0,.32-0.64l-0.06-.15a4.45,4.45,0,0,0-.64-1.58,9.35,9.35,0,0,0-1.32-.12,4.08,4.08,0,0,0-1.64.47,30.18,30.18,0,0,0-3.11.76l-0.12,0h-0.23a0.71,0.71,0,0,1-.26-0.32l0.15-.59V72.67l0.06-.76L184,71.5a1.72,1.72,0,0,0-.09-0.67l-0.47-.88a0.45,0.45,0,0,0-.18-0.32l-0.32-.35a4.28,4.28,0,0,0-1-1.41,3,3,0,0,0-.09-0.32H181a0.34,0.34,0,0,0-.25,0s-0.13.51-.37,1.45l0.12,0.29,0.56,1.49,0.35,0.91v1.05l0.06,1.44a3.5,3.5,0,0,1-.47,1.14,6.83,6.83,0,0,1-2.75,1.46q-1.08.35-2.7,1.05h-0.44l-3.63,1.26a1.9,1.9,0,0,1,.41-1.05,3.21,3.21,0,0,0,.32-0.62l0.18-.5a10.33,10.33,0,0,0,1-1.73,4.12,4.12,0,0,1,.38-0.85,0.65,0.65,0,0,0,.15-0.29V73.72a0.94,0.94,0,0,1,.41-0.44q0.18-.47.62-2.17a7.76,7.76,0,0,1,.44-2.52,2.46,2.46,0,0,1,1.32-1.14,12.64,12.64,0,0,0,1.79-.67,4.49,4.49,0,0,1,1.38-.41,3.87,3.87,0,0,0,1.26-.23,6.67,6.67,0,0,0,.88-0.59l1.46-.5a6.2,6.2,0,0,1,1.52-.62,1.89,1.89,0,0,0,1.08-.32h0.47a2,2,0,0,1,1.26-.38l0.53-.21,1,0.35a1.32,1.32,0,0,0,.47.09q2.08,0,2.08-1.64a2,2,0,0,0-.06-0.38,4.29,4.29,0,0,0-.76-0.67l-1.73-.38-0.35,0-0.32-.06-0.29.06a14.12,14.12,0,0,0-3.25,1.23l-1.49.29a10.36,10.36,0,0,0-1.76.76,1.6,1.6,0,0,1-.67.29,1.72,1.72,0,0,0-.56.15l-0.26.23a3.34,3.34,0,0,1-1.32.35,4.09,4.09,0,0,0-1.17.32,0.72,0.72,0,0,1-.26-0.26l0.41-.47v-1l0.15-.62,0.06-.59,0.41-1a4.47,4.47,0,0,1,.32-1.61q0.09-.2.29-0.88l0.26-.76-0.88-3.08L178,53l-1.55-1.17L176,51.34h-0.56a0.83,0.83,0,0,0-.88,1,5.85,5.85,0,0,0,1.29,2.26,7,7,0,0,1,.64,2l-0.06.73,0,1.05a7.29,7.29,0,0,0-.47,2.2,12.3,12.3,0,0,1-.79,2.81,1.79,1.79,0,0,0-.09.38q0.06,0.59.06,0.64-0.23.29-.7,0.94a3.26,3.26,0,0,1-.41.53l-0.67.21-0.91.23h-0.21l-1.11.82-0.53-.06-0.56.15-0.29.06-0.76.23-1.52.06a1.44,1.44,0,0,0-1,.38l-0.18.09-1.49-.15-0.32.06-0.41,0a3,3,0,0,1-.5-0.06l-0.41-.38-0.88-.18H161l0,0.67q-0.18.64-.18,0.67,0,0.35,1.32,1a18,18,0,0,1,1.58.88h1.52q0.62-.12,1.67-0.26l1.52-.29,0.88-.09,1.52-.53,1.08-.09a2.82,2.82,0,0,1,.73-0.21,1.81,1.81,0,0,1,0,.26,10.11,10.11,0,0,1-2.17,6.36,3.28,3.28,0,0,1,0,.38,0.78,0.78,0,0,1-.12.44,2.25,2.25,0,0,0-.41,1q-0.91,2.26-1.61,2.4l-0.47.67v1.7H168q1,0.26,1.08.26a4.64,4.64,0,0,0,1.73-.29,28.12,28.12,0,0,1,2.93-1.14,3,3,0,0,1,1.08-.26,3.78,3.78,0,0,1,1-.67l1-.31s0.44-.29,1.25-0.83l1.67-.41a5.15,5.15,0,0,1,1-.79L180.75,80a3.51,3.51,0,0,0-.23.91,0.92,0.92,0,0,0,.09.35l0.18,0.35-0.18.64,0,0.56a8.45,8.45,0,0,0-.23,1.17v0.91q0.12,0.88-2,1.14l-1.11.35-0.41,0a11.87,11.87,0,0,1-1.93.59,36.4,36.4,0,0,1-3.46,1.2q-1.29.32-4.19,1.32-1.73.62-3.57,1.11a3.6,3.6,0,0,0-1.52.56l-0.85.12-0.79.21-0.23,0a5.7,5.7,0,0,1-1.79-.32,5.13,5.13,0,0,0-2.29-1.05,0.74,0.74,0,0,0-.88.79,2.12,2.12,0,0,0,.47.79,0.61,0.61,0,0,0,.26.38l0.67,0.56L157,92.82l0.82,0.62,0.76,0.23,0.7,0.44,0.21-.09,0.47-.18a15,15,0,0,1,3-.73,5.83,5.83,0,0,0,2.87-1.05H166q1.41-.41,2.37-0.62a12.49,12.49,0,0,0,2.4-.82l0.06,0,0.82-.41,0.7,0.06,0.35-.09a4.13,4.13,0,0,1,.64-0.15l1-.26a2.24,2.24,0,0,1,.88-0.41,1.17,1.17,0,0,0,.35-0.12,9.34,9.34,0,0,1,1.82-.53q1.67-.29,2.46-0.38l0.09-.12h0.35a3,3,0,0,1,.06.44q0,0.21-.21,1.46l-0.15.73,0.29,2.05-0.12,3.4,0.29,1.85-0.29,5.8,0.5,0.82q0.2,1,.21,1.05a0.94,0.94,0,0,0,.76.18l0.35-.18a7.58,7.58,0,0,1,.18-1.87,11.5,11.5,0,0,0,.26-2.11l0.21-1.35V98.3q0.15-1.7.26-3.31a9.26,9.26,0,0,1-.12-1.32,3.89,3.89,0,0,1,.12-0.88q0.15-.59.15-0.64a1.76,1.76,0,0,0,.06-0.29,1.24,1.24,0,0,0,.06-0.21,0.68,0.68,0,0,0-.06-0.21,0.79,0.79,0,0,1,0-.18,1.75,1.75,0,0,1,0-.26,2.2,2.2,0,0,0,.06-0.47,2.17,2.17,0,0,0-.09-0.56l0.47-1.64V87.52a0.85,0.85,0,0,1,.32-0.35l0.44,0.26,0.32-.12,1.61-.53q0.76-.15,1.49-0.35a7,7,0,0,1,1.52-.29,7.67,7.67,0,0,0,1.93-.5,1.7,1.7,0,0,1,.44-0.09,1.27,1.27,0,0,1,.32.06,4,4,0,0,0,.79.12q0.26,0,2.11-.35l1.23-.26,1.93,0.21,0.62,0.06,0.56,0.12,2,0h0.44a4.53,4.53,0,0,0,1-.2l0.5-.64Q203.22,82.69,200.41,82.69ZM227,63.91a1.82,1.82,0,0,0-.23.76,1,1,0,0,0,.32.67,2,2,0,0,0,1.49.59,3.3,3.3,0,0,0,1.52-.41q1.23-.7,1.58-0.88t1.44-1l0.76-.53a2.86,2.86,0,0,0,.79-0.15,0.75,0.75,0,0,0,.18-0.59q0-.18-0.06-0.7l-1.14-1.11-2.31,1.11a5.1,5.1,0,0,0-1.49,1.05l-0.47.5-1.41,0A1.13,1.13,0,0,0,227,63.91Zm-6.45,12.16V75.6l0.38-.38,0.85-3.34,0.35-.38a5,5,0,0,1,.47-1.38,2.8,2.8,0,0,0,.21-0.82l1.2-1.64,0-.23,0.35-1.17,0.06-.38,0.67-1.58,0-.23,0.06-.06V63.17l0.38-.41,0.15-.5,0.26-.73a2.33,2.33,0,0,1,.2-1l0.23-.18,0-.32,0.62-2V57.93l0.44-.44-0.06-.41a3.56,3.56,0,0,0,.29-1l0.09-.64-0.23-1.05-0.12-.59-0.47-.53-0.32-.56L226.25,52l-0.35-.79a2.61,2.61,0,0,1-.26-0.94,1.45,1.45,0,0,0-1.05-.53h-0.47l-0.59,1,0.62,2.67a0.76,0.76,0,0,1,.38.44v0.41l0.23,0.85a1.25,1.25,0,0,1-.06.29,7.75,7.75,0,0,0-.18,1.26,9.6,9.6,0,0,0-.59,2.14V58.9l-0.85,2.67-0.35.41-0.62,3-0.18.18-0.35.56-0.5,1.14a9.09,9.09,0,0,1-1.46,3.46L219,72.75a27.28,27.28,0,0,0-2.4,5.65,14.19,14.19,0,0,1-2.23,4l-0.62.79A10.46,10.46,0,0,1,212,85.47h-0.26l-0.62,1.11a0.44,0.44,0,0,0-.06.18q0,0.44.73,0.44a3.36,3.36,0,0,0,2.34-1.52,9,9,0,0,0,1.29-1.61L217,82.51A6,6,0,0,0,218,81l0.44-.5,0.18-.35a9.86,9.86,0,0,0,.82-2A15.61,15.61,0,0,1,220.53,76.07Zm29.3-13.59,0.23,0.38,0.26,0.06,0.79,0.76a4.8,4.8,0,0,1,.85.62,3.56,3.56,0,0,0,.47.38,3.77,3.77,0,0,1,.56.44,1.35,1.35,0,0,0,.47.47v0a2.56,2.56,0,0,0,.38,1q0.06,0.15.26,0.56l1.55,0.38a1.46,1.46,0,0,0,.5-0.85,6.45,6.45,0,0,0-.21-1.08q-0.47-2.64-1.52-3.13l-0.15-.26a1.89,1.89,0,0,1-.44,0,2.61,2.61,0,0,0-.76-0.44,2.25,2.25,0,0,1-.67-0.44A4.87,4.87,0,0,0,250,60a3.61,3.61,0,0,0-1,.21l-0.38.73v0.15A3.49,3.49,0,0,0,249.83,62.47ZM265,98.1a0.79,0.79,0,0,0-.38.06,2.51,2.51,0,0,0-.38,1.23q-0.29.85-.44,1.2a1.45,1.45,0,0,1-.94.88,11.58,11.58,0,0,0-1.14.26l-0.59-.32a20.2,20.2,0,0,1-5.39-3.84l-3.31-3.34a5.14,5.14,0,0,1-.82-0.91l-0.94-1.23-0.06-.35a10.75,10.75,0,0,1-2-2.64,2.56,2.56,0,0,1,.59-1.2,1,1,0,0,0,.15-0.59l0.53-.5,0.29-.5,0.67-.76,0.38-.88,0.44-.62L252.2,83l0.15-.21,0.47-1.38a12.13,12.13,0,0,0,.53-1.67,2,2,0,0,0-.5-1.14,1.32,1.32,0,0,0-.94-0.67,0.71,0.71,0,0,0-.38.18L251.38,78l-0.18.18-0.56.59a11.68,11.68,0,0,1-.7,2.61,14,14,0,0,1-1.29,2q-0.26.47-.53,0.88t-0.85,1.38H247l-0.09-.44L246.78,85a4.34,4.34,0,0,0-.79-1.29V83.33l-0.23-.59a8.4,8.4,0,0,0-.12-1.26l0-.26,0-.29,0.56-.62q1.23-.85,2.75-2a19.07,19.07,0,0,1,2.17-1.85l1.88-1.38h0.15l0.23-.2V73.6L252.79,73,252.14,73a2.68,2.68,0,0,0-.82.38,2.09,2.09,0,0,0-.38.21l-0.12.12v0.53l-4,3a4.63,4.63,0,0,1-2.11,1.32,0.57,0.57,0,0,1-.64-0.64,1.15,1.15,0,0,1,.23-0.5,3.69,3.69,0,0,1,1-1.2,2.56,2.56,0,0,0,1.08-1.26A7.12,7.12,0,0,1,248,73a0.92,0.92,0,0,0,.26-0.5s0.46-.61,1.38-1.76a6.77,6.77,0,0,0,.59-1,11.83,11.83,0,0,1,.73-1.11q0.09-.12.35-0.53V67.07a1.94,1.94,0,0,0-1-.76,3.57,3.57,0,0,0-.91.21l-1.05.64a0.86,0.86,0,0,1-.67.62,1.42,1.42,0,0,0-.76.44,2.48,2.48,0,0,1-1,.62,5.62,5.62,0,0,0-1.52.94,3.16,3.16,0,0,0-1.11,1.29l-0.09.26-0.12.29a0.71,0.71,0,0,1-.41-0.09,2.81,2.81,0,0,1-.41-1.82l-0.15-.62-0.06-1-0.35-1.23q0-2.46-.09-2.7T241.33,63q0.06-.35.12-0.62a3.69,3.69,0,0,0,.09-0.64l-0.09-.76-0.15-.62a8.51,8.51,0,0,0-.29-2.11,17.65,17.65,0,0,0-1.35-2.9l-0.23-.38a3.52,3.52,0,0,1-1-1.05,3.33,3.33,0,0,0-.21-0.35l-0.59-.23h-0.82v0.41l-0.23,1,0.23,0.56q0.73,1,1.14,1.7a24.53,24.53,0,0,1,.88,2.58L239,59.89l-0.15.64,0.29,1a4.53,4.53,0,0,0-.09.82v0.09l0,0.32L240,72.11a6,6,0,0,1-2.14,1.29q-2.14.15-2.14,0.91a2,2,0,0,0,.18.64l-0.18.5a3.53,3.53,0,0,0,1.17.32,7.66,7.66,0,0,0,3.43-1.46,1,1,0,0,1,.32.67l0.15,0.62a6.83,6.83,0,0,0,.26,1.64q0.18,0.82.18,0.85a0.38,0.38,0,0,1-.29.35l-0.29.12-2.49,3-0.59.2,0.23-.47V81.1a0.31,0.31,0,0,0-.32-0.38,1.79,1.79,0,0,0-.91.53A9.87,9.87,0,0,0,234.48,84l-0.32.44h-0.23l-1,1-4.48,4.39a5.3,5.3,0,0,1-1.85,1.32l-0.32.15,0.18-1.26a10.07,10.07,0,0,0,1.35-2.34q1.67-3.87,2.08-4.66l0.15-.29a1.27,1.27,0,0,1,.47-0.62,10,10,0,0,0,1.32-2.29,5.72,5.72,0,0,0-.21-1.11c0-.12,0-0.25-0.09-0.41L231,77.91h-1.14l0.12-.23,0-.06L230,77s0.06-.21.18-0.56l0.32-1.29a6.09,6.09,0,0,0,.62-1.64A1.74,1.74,0,0,0,231,72.9a3,3,0,0,1-.12-0.35l0.23-1.38a1.49,1.49,0,0,0-.41-0.7,0.59,0.59,0,0,0-.29-0.23,1.93,1.93,0,0,1-.82-0.26,1.7,1.7,0,0,0-.94,1.23h-0.18a2.81,2.81,0,0,0-1.23.88,2.71,2.71,0,0,1-.67.94h-0.47l-0.91.62-0.79.06V73a1.09,1.09,0,0,0-.91,1.17,7.29,7.29,0,0,0-.18.79,1.18,1.18,0,0,0,1.44,1.2,3,3,0,0,0,.79-0.2l0.38,0a3,3,0,0,1,1.79-1.08,0.12,0.12,0,0,1,.12.09,4.92,4.92,0,0,1,.26.85l0,0a2.06,2.06,0,0,0-.38.82q-0.06,1.93-.09,2a6.87,6.87,0,0,0-.21,1.11q0,0.12,0,.5l-0.41.5V81l-3.46,1.82-0.67.59a2.17,2.17,0,0,0-.82.09l-0.82-.06a0.74,0.74,0,0,0-.59.56l-0.35.44,0,0.09,0.12,0.67a0.52,0.52,0,0,1,.06.15l0.06,0.15,0.67,0.41a2,2,0,0,1,.38,0h0.23a4,4,0,0,0,1.23-.35l0.38-.09a4,4,0,0,1,1.44-1l1.49-.64a6.11,6.11,0,0,1-.79,2.11l-0.44,1.73a7.43,7.43,0,0,0-.76,1.14A13.91,13.91,0,0,1,223,92.38l-0.26.35-0.62,1.32a6.82,6.82,0,0,1-1,2,12.91,12.91,0,0,1-1.82,2.34l0.06,0.41a1.49,1.49,0,0,0,1.61,1.52,2.5,2.5,0,0,0,1.35-.67l0.23-.32,3.28-3.69,1.88-2.23,1.14-1.52,3.28-4V87.73l2-1.46,0.09-.35a1.31,1.31,0,0,1,1,.62,8.21,8.21,0,0,0,1.23.21,3.16,3.16,0,0,0,1.58-.5,11,11,0,0,0,1.61-1.44l0.91-.53a10.45,10.45,0,0,1,1.35-.76l0.29-.06,0.59-.62,1.58,3.69a1.26,1.26,0,0,1,.15.7,2.19,2.19,0,0,1,.44.67,2.53,2.53,0,0,1-.06.47,2.82,2.82,0,0,0-.06.56q0,0.18.06,0.73l-0.62.67a6.3,6.3,0,0,1-.82,1.11,14.36,14.36,0,0,0-2,1.64q-0.32.29-1.2,1a18.33,18.33,0,0,1-2.26.85q-2.31.67-2.31,1.32a2.28,2.28,0,0,0,.06.5h0.47a11.88,11.88,0,0,1,1.23.23,6.35,6.35,0,0,1,1.11-.44,11,11,0,0,0,4.07-1.61,4.68,4.68,0,0,0,1.35-.67,3.88,3.88,0,0,1,1-.62l0.35-.35,1.58-1.44a1.6,1.6,0,0,1,.59.29,21.46,21.46,0,0,1,1.38,2q0.85,1.17,1.2,1.76a0.3,0.3,0,0,0,.18,0,10.65,10.65,0,0,1,1.67,1.7,19.69,19.69,0,0,0,4.86,4l0.41,0.53,0.32,0.26q0.67,0.59,1.64,1.49l0.38,0.35,1,0.44,0.38,0.06,0.62,0.09h0.59l0.44,0.06,0.59-.26,0.76,0.06q0.2,0,.35-0.73c0-.12,0-0.19,0-0.21a2.92,2.92,0,0,0,.64-1.58,4.09,4.09,0,0,0,.62-2.72A1.47,1.47,0,0,0,265,98.1ZM243.33,75V74.78a1,1,0,0,0-.09-0.41,4,4,0,0,1-.38-1.35q0-.2,0-0.53l0-.59L247.19,70a2.84,2.84,0,0,1-.82,1.61l-0.26.29v0.38l-2.46,3ZM291,67.92a1.58,1.58,0,0,0,.64,1.26,0.9,0.9,0,0,0,.62.23,13.63,13.63,0,0,0,3.46-1.35l1.58-.47a17.36,17.36,0,0,0,3.63-.91l1.82-.26,0.53-.15,1.44,0.53a5.14,5.14,0,0,0,.82.35,4,4,0,0,1,.23,1.05,8.41,8.41,0,0,1-.41,2q-1.17,4.19-1.32,4.54a7.6,7.6,0,0,0-.38,1,3.5,3.5,0,0,0-.59,1.17,18.76,18.76,0,0,1-.53,2.2l-0.47.82a6.24,6.24,0,0,1-.82,1.93,2.41,2.41,0,0,0-.53.91l-0.79,2a1,1,0,0,1-.88.53,1.75,1.75,0,0,1-.85-0.47,1.34,1.34,0,0,0-.85,1.32,4,4,0,0,0,.7,1.58,2.65,2.65,0,0,0,1.11,1.23,0.11,0.11,0,0,1,.09.06l-0.06.15h0.67A2.68,2.68,0,0,0,301.48,88l0.15-.21a1.59,1.59,0,0,1,.32-0.79l0.44-.59a1.2,1.2,0,0,1,.26-0.32V85.85l0.94-2.7A13.43,13.43,0,0,0,305.67,78l0.44-1,0.06-.26,0.32-.73,0.06-.44,0.53-.76,0.06-.5,0.21-.59a2.1,2.1,0,0,1,.47-1.11V72.2a6.88,6.88,0,0,0,.32-1.32l0.56-1.82,0.09-.67,0.38-1.11L309,66.81,309,66.37a3.15,3.15,0,0,1-.5-0.73q-1.08-.59-3.46-1.82a4.53,4.53,0,0,1-1.29-.26,8,8,0,0,1-3,.7A24.33,24.33,0,0,1,298,65l-2.7.94-0.64.12a15.8,15.8,0,0,1-2.34.44,2.31,2.31,0,0,1-.38,0A1.75,1.75,0,0,0,291,67.92Zm-4.19-1.08,1.55-2.2q0.23-.5,1.17-3.13l0.15-.32,0.12-.41,0.38-.59,0.35-.64a5.08,5.08,0,0,0,1.29-3q0-.38-0.06-1.08l-0.64-.73,0.06-.18q-0.21-.18-1.17-1.11a2.26,2.26,0,0,0-1.32-.79,1.34,1.34,0,0,0-1,.44,1.15,1.15,0,0,0-.38.82,1.05,1.05,0,0,0,.23.62,3.15,3.15,0,0,1,.29.47,0.47,0.47,0,0,0,.38.32l0.15,0.06,0.23,0.73v1.23L288,58.34l-1.11,1.73a6.83,6.83,0,0,1-.38,1.44l-0.12.59-0.35.47a3.69,3.69,0,0,1-.38,1,4.23,4.23,0,0,0-.44.94,10.22,10.22,0,0,1-.91,2,0.63,0.63,0,0,0-.15.32V67a0.74,0.74,0,0,1-.5.47l-1.52,2.7-0.44.85-2.08,3.49-1.87,2.08-0.35.41a2.63,2.63,0,0,0-1.61,1,0.84,0.84,0,0,1-.41.41,10.11,10.11,0,0,0-1.61,1.11v0.26l0.21,0.32v0.21l0.21,0.26A3.92,3.92,0,0,0,275,80.4a9.66,9.66,0,0,0,1.52-.59,14.21,14.21,0,0,0,2-1.55l1.82-1.52a6.85,6.85,0,0,1,1.2-.94,3,3,0,0,1,.76-1l1-1.41,0.59-.53,0.79-1.73A13.19,13.19,0,0,0,286.86,66.84Zm35.89,25.72q0.09-.59.15-0.88a1.61,1.61,0,0,0,.06-0.35,10.69,10.69,0,0,0-.32-1.2,1.25,1.25,0,0,0-.35-0.62A1.9,1.9,0,0,0,321,91.45a8.55,8.55,0,0,1-.12,1.35q0,0.44-1.38,1.46l-3.4,1.55h-0.23a11,11,0,0,1-2.49.73l-0.7.15h-1.11l-1.2.29-4-.29q-1.05-.09-3.63,1.38l-6.33-.47-3.49-.44a3.82,3.82,0,0,1-.62.06,13,13,0,0,1-2.26-.67l-0.79-.06-0.59-.21a0.69,0.69,0,0,1-.38-0.06q-0.18-.15-1.11-1.23a10.51,10.51,0,0,1-.35-1.11l0.12-.62,0.09-.47,0.21-.5-0.35-1.52,0.35-1.58a4.51,4.51,0,0,1,.26-1.76,1,1,0,0,0,.15-0.47,1.8,1.8,0,0,0-.15-0.59,2.47,2.47,0,0,1,1.05.26L289,86.88l0.32-.12a15.68,15.68,0,0,0,2.2-1.05,8.72,8.72,0,0,1,2.52-1.38l0.91-.47a7,7,0,0,0,1.14-.47,4.9,4.9,0,0,0,.91-0.88,2.1,2.1,0,0,0-.94-1.44,1.61,1.61,0,0,1-.91-0.82L297,77.91l0.38-.12,0.06-.09L298,76.53a4,4,0,0,0,.35-1.23,4,4,0,0,0-.44-1.35l0-.26a1.83,1.83,0,0,0-1-.44l-0.21-.06-0.21-.06a4.77,4.77,0,0,0-.67.29l-0.56.41-0.56.18-0.79.5-0.44.12-0.67.64-0.91.06a2.18,2.18,0,0,0-.59.38,3.87,3.87,0,0,1-1.38.56,7.75,7.75,0,0,0-.88.26l-0.26.12-2.52-.59-0.38.18a2.53,2.53,0,0,0-.88.67l-0.12.53-0.09.35,0.47,0.7a5.92,5.92,0,0,0,2.08.59l0.67,0.21a4.35,4.35,0,0,0,.5-0.32,1.18,1.18,0,0,1,.44-0.15,5.81,5.81,0,0,0,1.11-.26,37.13,37.13,0,0,1,3.63-1.35l0.73-.67a0.47,0.47,0,0,1,.32.44,2.39,2.39,0,0,1-.53,1.2l-0.7,1.17-0.47.35-0.12.12a3.63,3.63,0,0,0-.64.73,2.16,2.16,0,0,1-.29.38,5.16,5.16,0,0,0-.94,1,5.64,5.64,0,0,1-1.38,1.58,3.94,3.94,0,0,1-1.76.44q-0.06-2.4-1.29-2.4a0.69,0.69,0,0,0-.59.23,11.57,11.57,0,0,0-.59,1.85l-0.06,1.32-0.21.67L285.19,87l-0.32,1.38-0.12,1.52-0.15.7-0.12.88a16.14,16.14,0,0,0-.21,2.17,4.77,4.77,0,0,0,.06.91q0.12,0.53.15,0.76a3.83,3.83,0,0,0,.38,1.32,3.17,3.17,0,0,1,.5.73l0.26,0.06a6.6,6.6,0,0,0,2.17,1.7,4.68,4.68,0,0,0,1.7.56l0.62,0q2.49,0.67,3.31.81t3.13,0.22l3.4,0.09a2.86,2.86,0,0,0,.56-0.06l0.5-.06a2.32,2.32,0,0,1,.62.15,9,9,0,0,1,1.32-.23H305l2.81,0a12.17,12.17,0,0,0,4.22-.88,7.6,7.6,0,0,1,1.82-.5q0.38,0,1.76-.26l0.7-.12a8.7,8.7,0,0,0,2.49-.73l2.84-1.38h0.2l0.21-.2V96.28l0.59-1.11a3.76,3.76,0,0,0,.35-1.29A6,6,0,0,0,322.75,92.56Z" transform="translate(266.35 -49.29)"/></svg>