<svg id="图层_1" data-name="图层 1" xmlns="http://www.w3.org/2000/svg" xmlns:xlink="http://www.w3.org/1999/xlink" viewBox="0 0 352.21 173.21"><defs><style>.cls-1{fill:#f29600;}.cls-2{fill:#231815;}.cls-3{fill:url(#linear-gradient);}</style><linearGradient id="linear-gradient" x1="362.26" y1="242.14" x2="362.26" y2="200.25" gradientUnits="userSpaceOnUse"><stop offset="0" stop-color="#f9be00"/><stop offset="1" stop-color="#ed7700"/></linearGradient></defs><title>矢量智对象</title><path class="cls-1" d="M167.79,79.13H146.48v3.29H100.93v9h45.54v3.85H105.06v36.69h41.42v4.67H103.73v9.48h99.84a7.74,7.74,0,0,0,7.67-6.68v-6.25h-17.4v3.45H167.79v-4.67H195.7c14.33-.51,13.73-12.48,13.73-12.48V95.24H167.79V91.39h42.78a4.48,4.48,0,0,0,4.54-3.82V82.42H167.79V79.13Zm-21.31,24.43v5.86H125.82v-5.86h20.66Zm-20.66,20v-5.86h20.66v5.86H125.82Zm42-5.86h21.14v5.86H167.79v-5.86Zm21.14-14.19v5.86H167.79v-5.86h21.14Z" transform="translate(-100.93 -79.13)"/><path class="cls-1" d="M188.85,163.36H147.73c-3.31,0-2.92-2.34-2.92-2.34V150.47H125.49v12.7c0.09,12,12,11.27,12,11.27h45c6.8-.18,6.33-4.95,6.33-4.95v-6.13Z" transform="translate(-100.93 -79.13)"/><path class="cls-1" d="M104.6,150.48l-1.07,24h11.07c7.24-.15,7.09-6.74,7.09-6.74l0.77-17.25H104.6Z" transform="translate(-100.93 -79.13)"/><path class="cls-1" d="M340.46,91.44V174h11.69c8.9,0,8-7.9,8-7.9V154.76h17.9c9,0,13.87-5.33,14.17-12.89V106.31H360.19V93.61h26c4.75,0,8.36-1.29,8.75-6.08V80.68H353.61C344.54,80.68,340.15,83.88,340.46,91.44Zm32.77,26.63v19.47c0,3.91-1.34,5.74-5.57,5.48h-7.47V118.07h13Z" transform="translate(-100.93 -79.13)"/><path class="cls-1" d="M417.74,93.61H444.4c5.44,0,8.36-1.67,8.75-6.46V80.68h-42c-9.07,0-13.46,2-13.15,9.22v83.69a104.25,104.25,0,0,0,11.69.39c8.9,0,8.05-7.9,8.05-7.9v-48H430s0,55.87,0,56h19.28v-55L452,106.31H417.74V93.61Z" transform="translate(-100.93 -79.13)"/><path class="cls-1" d="M156.31,159.21h27.27c0.86,0,1.64.07,2.34,0l-3.19-7a3.77,3.77,0,0,0-3.38-1.94H148.67l2,5.17A6.58,6.58,0,0,0,156.31,159.21Z" transform="translate(-100.93 -79.13)"/><path class="cls-1" d="M202.44,149.24H189.29l2.8,24.75h19.05l-2.32-19.91C208.63,149,202.44,149.24,202.44,149.24Z" transform="translate(-100.93 -79.13)"/><path class="cls-1" d="M321.1,143.13H304.84a3.4,3.4,0,0,0-3.58,2.86l-2.5,17.07H287.86V139.22h38.59V128.35H287.86V117.94h38.87v-9.7H333L321.15,86.11s-2.37-5.47-11.29-5.41H243.21s-7.53-.72-10.9,6.13l-12.44,21.41h6.29v9.7H265v10.41H226.45v10.87H265v23.84H253.46L251,146a3.4,3.4,0,0,0-3.58-2.86H231.12l2.36,19.93H219.33V174H326.78c7,0,7.41-5.36,7.41-5.36v-5.57H318.74Zm-76.17-38,6.61-12.7h50l7.14,12.43a5.68,5.68,0,0,0,2,1.8H242.92A3.81,3.81,0,0,0,244.93,105.08Z" transform="translate(-100.93 -79.13)"/><path class="cls-2" d="M116.92,240.28a3.66,3.66,0,0,1-3.65,3.65h-9.74v-51a3.64,3.64,0,0,1,3.65-3.65h9.73v51Z" transform="translate(-100.93 -79.13)"/><path class="cls-2" d="M223.37,210.73q-5.45-4.69-13.8-4.69-9.2,0-15,5.85A19.21,19.21,0,0,0,189,226a18.48,18.48,0,0,0,5.28,13.42c3.52,3.61,8.2,5.15,14,5.15a12.52,12.52,0,0,0,8.85-3,2.62,2.62,0,0,0,2.94,2.38h8.65v-21A15.28,15.28,0,0,0,223.37,210.73ZM217,228.34a8.33,8.33,0,0,1-2.11,5.8,7.07,7.07,0,0,1-5.41,2.31,8.28,8.28,0,0,1-6.78-3.5,12.55,12.55,0,0,1-2.29-7.3,13.88,13.88,0,0,1,2.29-7.69q2.62-4.15,6.87-4.15a8.24,8.24,0,0,1,3.56.84c3,1.43,3.93,5,3.87,10.84v2.84Z" transform="translate(-100.93 -79.13)"/><path class="cls-2" d="M304.87,212.35A17.07,17.07,0,0,0,298.66,226a16.22,16.22,0,0,0,6,13.19q5.73,4.83,14.56,4.82h16.44v-5.25s-0.67-1.81-2.24-1.81H322a10.52,10.52,0,0,1-7.66-3.2,11.48,11.48,0,0,1-2.89-8c0-3,1-6.41,3.1-8.4a10.93,10.93,0,0,1,7.93-3h11.17a2,2,0,0,0,2.09-2V207.3h-15.8Q310.91,207.3,304.87,212.35Z" transform="translate(-100.93 -79.13)"/><path class="cls-2" d="M443.45,209.07a21.55,21.55,0,0,0-11.37-3q-8,0-11.94,4.22A17.75,17.75,0,0,0,408.2,206a21.31,21.31,0,0,0-11.38,3q-5.73,3.58-5.73,9.63v25.23h7.45a3.67,3.67,0,0,0,3.65-3.65V220.61a7,7,0,0,1,1.77-5.08,5.87,5.87,0,0,1,4.23-1.75,6.57,6.57,0,0,1,4.69,1.75c1.3,1.19,1.65,3.18,1.65,5.08v23.32h7.41a3.67,3.67,0,0,0,3.65-3.65V220.61a7.12,7.12,0,0,1,1.84-5.14,6,6,0,0,1,4.64-1.69,7,7,0,0,1,4.52,1.93,6.62,6.62,0,0,1,1.65,4.9v23.32h7.37a3.66,3.66,0,0,0,3.65-3.65V218.7Q449.27,212.65,443.45,209.07Z" transform="translate(-100.93 -79.13)"/><path class="cls-2" d="M137.44,210.66H116.08v9h21.36v24.3h9.73a3.66,3.66,0,0,0,3.65-3.65v-51h-9.74a3.65,3.65,0,0,0-3.65,3.65v17.71Z" transform="translate(-100.93 -79.13)"/><path class="cls-2" d="M174.64,189.92c-15.53,0-14.35,14.37-14.35,14.37v6.36H155v9h5.31v24.06h9.43c3,0,3.11-3.28,3.11-3.28V219.62h12.4v-9h-12.4v-7c0-6.28,4.51-6.28,4.51-6.28h5.29c2.83,0,2.57-2.37,2.57-2.37l0.63-5.08H174.64Z" transform="translate(-100.93 -79.13)"/><circle class="cls-2" cx="189.51" cy="159.86" r="5.1"/><path class="cls-3" d="M362.26,199.95a21.24,21.24,0,1,0,21.24,21.24A21.24,21.24,0,0,0,362.26,199.95Zm0,32.65a11.41,11.41,0,1,1,11.41-11.41A11.41,11.41,0,0,1,362.26,232.59Z" transform="translate(-100.93 -79.13)"/><path class="cls-2" d="M281.65,243.93H267.87a5.33,5.33,0,0,1-2.17-.46,5.24,5.24,0,0,1-1.8-1.3l-31.69-34.83H246a5.37,5.37,0,0,1,4,1.76Z" transform="translate(-100.93 -79.13)"/><path class="cls-2" d="M231.77,243.93h13.78a5.34,5.34,0,0,0,2.17-.46,5.26,5.26,0,0,0,1.8-1.3l31.69-34.83H267.44a5.37,5.37,0,0,0-4,1.76Z" transform="translate(-100.93 -79.13)"/><path class="cls-1" d="M412.64,252.34c-12.26-3.54-30.29-5.78-50.39-5.78s-38.12,2.24-50.37,5.78H412.64Z" transform="translate(-100.93 -79.13)"/></svg>