<svg xmlns="http://www.w3.org/2000/svg" width="754" height="100" viewBox="0 0 754 100">
  <defs>
    <style>
      .cls-1, .cls-2 {
        fill: #ccc;
      }

      .cls-1 {
        fill-rule: evenodd;
      }
    </style>
  </defs>
  <path id="形状_1" data-name="形状 1" class="cls-1" d="M105.643,40.2A40.374,40.374,0,1,1,64.931.188,40.341,40.341,0,0,1,105.643,40.2ZM130.56,94.839c-15.883-5.1-39.242-8.323-65.29-8.323S15.874,89.742,0,94.839H130.56Zm177.114-39.2a38.052,38.052,0,0,1-13.421-13.323l-0.163-.3h11.181V41.595l-0.009-4.727V36.461c-0.168,0-.4-0.009-0.4-0.009H290.037V31.316h11.49V12.6H273.866V31.316H284.6v5.136H269.162v5.565h10.217l-0.185.3c-1.694,2.92-6.323,10.087-12.657,13.464l-0.3.148V23.652l0.025-.051c0.925-1.844,1.721-3.311,2.419-4.594l0.179-.337c1.012-1.875,1.853-3.479,2.849-5.57l0.147-.34c-0.14-.091-0.328-0.2-0.328-0.2-1.047-.612-2.785-1.594-5.5-2.977l-0.418-.21-0.157.441a121.7,121.7,0,0,1-13.9,26.179l-0.172.242c0.077,0.111.172,0.231,0.172,0.231a52.291,52.291,0,0,1,3.293,5l0.342,0.575c0.16-.248.357-0.563,0.357-0.563,0.165-.24,2.787-4.342,4.421-7.016l0.382-.62v30h0.411l5,0.043h0.405c0.008-.181.01-0.408,0.01-0.408l0.064-5.518,0.393-.052-0.055-.093,0.028,0.025c1.275,1.027,2.116,1.71,3.79,2.946l0.267,0.193c0.1-.087.248-0.218,0.248-0.209l0.028-.022c4.762-4.084,9.679-8.3,13.288-15.574l0.381,0.09V64.353h2.5l2.524-.009h0.4V46.192l0.4-.075c2.9,6.956,6.551,10.673,12.3,15.116l0.278,0.235c0.118-.122.258-0.271,0.258-0.279,0.52-.534.979-1.074,1.43-1.582l0.223-.242c0.834-.949,1.747-1.968,2.864-3.075l0.378-.385ZM279.766,26.471V18.163h15.856v8.308H279.766ZM246.289,18.68l0.207-.271-5.57-4.165c-0.089.148-.2,0.326-0.2,0.334a61.837,61.837,0,0,1-9.751,12.072l-0.352.343,5.03,3.151c0.1-.077.2-0.164,0.209-0.177A71.3,71.3,0,0,0,246.289,18.68ZM226.315,57.558a12.288,12.288,0,0,0,.386,2.962,5.413,5.413,0,0,0,1.481,2.521,4.822,4.822,0,0,0,3.045,1.244,44.433,44.433,0,0,0,4.754.111c5.177,0,8.23-.271,9.609-0.849,2.591-1.088,4-4.317,5.019-11.526l0.054-.341L244.4,50.274c-0.022.187-.039,0.406-0.039,0.406-0.255,3.277-.75,6.458-2.477,7.6-0.353.234-1.479,0.758-4.312,0.749-3.15-.031-3.984-0.229-4.208-0.324a2.62,2.62,0,0,1-.967-0.875,3.779,3.779,0,0,1-.295-2.008V38.149H248V32.477H226.739V10.98h-5.973v21.5H199.4v5.672h13.626v0.209c0,4.1,0,8.756-2.271,12.34-2.171,3.429-4.988,6.886-13.217,8.08l-0.489.075,2.705,6.31c0.133-.031.294-0.057,0.294-0.057,7.376-1.525,12.937-5.314,16.056-10.963,2.367-4.215,2.815-8.625,2.849-15.785V38.149h7.359V57.558ZM216.6,26.476A76.348,76.348,0,0,0,207.449,14.3l-0.225-.226-5.447,3.97,0.3,0.288a61.132,61.132,0,0,1,9,11.38l0.186,0.3,5.53-3.228Zm-59.936,5.6-0.1-.094,0.051-.119a129.326,129.326,0,0,0,5.327-19.613l0.068-.45h-20.1v53.49h5.472V17.474h6.4a0.557,0.557,0,0,1,.552.174,0.946,0.946,0,0,1-.04.643c-0.259.86-.628,2.283-1.029,3.889l-0.015.034a101.564,101.564,0,0,1-3.1,10.589l-0.095.249c0.089,0.073.193,0.171,0.2,0.175a0.059,0.059,0,0,0,.03.02,16.9,16.9,0,0,1,4.193,6.722c0.958,3.078.569,6.8-.4,7.94-1.082,1.252-2.7,1.192-4.565,1.119h-0.135l-0.638-.049-0.452-.015,0.069,0.44,0.223,1.489c0.218,1.49.35,2.453,0.517,3.885l0.033,0.319c0.156,0.006.322,0.006,0.322,0.006,4.031,0.1,7.1-.671,8.662-2.163,1.94-1.87,2.816-3.944,3.015-7.176C161.187,44.885,161.552,37.049,156.666,32.08ZM163.632,12.5V12.85l0.018,52.113h5.815l0.011-3.557V61.2H184.06v3.777h5.789V12.5H163.632Zm20.333,42.915H169.494V39.626h14.471V55.411Zm0-21.474H169.494V18.008h14.471V33.937Zm157.17,18.585,0.268-.062c-0.011-.133-0.03-0.295-0.03-0.288a59.486,59.486,0,0,0-3.23-12.677s-0.059-.142-0.1-0.265c-0.137.033-.279,0.067-0.274,0.067-1.571.428-3.987,1.113-4.639,1.3l-0.358.106,0.163,0.328a54.964,54.964,0,0,1,3.689,12.2l0.047,0.334L337,53.485c0.894-.167,1.6-0.343,2.275-0.518C339.9,52.812,340.47,52.676,341.135,52.522Zm6.072-2.593c0.35-.074.75-0.147,1.235-0.229l0.278-.043c-0.02-.139-0.03-0.287-0.03-0.287a96.315,96.315,0,0,0-2.424-12.3l-0.083-.282c-0.128.023-.288,0.065-0.288,0.065-1.671.341-2.638,0.538-4.645,0.9l-0.395.078C340.923,38,341,38.192,341,38.192a51.37,51.37,0,0,1,3.164,11.951c0,0.009.022,0.177,0.03,0.326l0.336-.038c0.883-.155,1.486-0.266,2.181-0.393Zm15.852,7.005v-0.37H353.015l0.171-.3a78.584,78.584,0,0,0,6.876-16.292l0.1-.353c-0.154-.055-0.344-0.1-0.341-0.1l-3.682-1.072s-0.628-.193-0.634-0.2L354.713,38l-0.375-.115-0.093.37A72.533,72.533,0,0,1,347,56.464l-0.061.1H328.775l-0.007.37-0.06,4.554v0.353H363.1l-0.009-.353Zm-37.08-23.959-0.1-.111,0.062-.126c0.137-.313.3-0.679,0.452-1.049l0.043-.121,0.121-.276h0l0.249-.656a188.207,188.207,0,0,0,5.287-18.081l0.121-.434H313.837V63.3h5.68V17.859h5.6l-0.068.253-0.757,2.737-0.024.1A90.116,90.116,0,0,1,320.4,32.993l-0.084.182,0.117,0.163,0.7,1.014,0.04,0.049c1.954,2.783,3.981,5.668,4.5,8.294a5.8,5.8,0,0,1-.851,4.224c-0.776.881-2.2,1.259-4.139,1.1l-0.477-.044,0.091,0.477c0.344,1.752.564,3.089,0.831,4.91l0.061,0.323,0.323-.016c4.33-.22,6.25-1.274,7.817-2.766,2.18-2.1,2.189-5.587,1.8-8.14A19.218,19.218,0,0,0,325.979,32.975Zm40.067-4.443c-7.651-2.917-15.272-9.424-17.725-15.128l-0.029-.071,0.026-.073,0.306-.9L348.759,12c-0.176-.043-0.374-0.1-0.374-0.1-1.117-.33-2.049-0.6-3.128-0.881l-2.44-.658-0.339-.1c-0.042.154-.107,0.334-0.107,0.334-2.516,7.76-7.643,14.58-15.256,20.272l-0.555.424,0.224,0.212a0.458,0.458,0,0,0,.084.082v0L326.88,31.6s3.723,3.32,3.723,3.315l0.62,0.562,0.232,0.2c0.114-.093.253-0.2,0.242-0.2,0.3-.264.667-0.567,1.111-0.9l0.037-.033c0.947-.767,2.136-1.723,3.135-2.713l0.341-.353v2.476H356.79V30.729l0.33,0.242c1.368,1.005,3.71,2.622,5.84,3.88l0.317,0.187c0.081-.164.182-0.354,0.182-0.354,0.647-1.251,1.243-2.486,1.825-3.669l0.2-.385,0.773-1.6,0.169-.358Zm-27.738.786,0.3-.347a52.449,52.449,0,0,0,6.959-9.682l0.171-.319,0.19,0.308a55.141,55.141,0,0,0,8.357,9.693l0.394,0.347H338.308Zm85.046,16.117H402.405V41.541h18.466V37.552h-16.22V34.336h13.961V30.8H404.651V27.807h13.961V24.053H404.651V21.064h15.994V16.856H403.932c0.609-.4,1.252-0.794,1.928-1.176l-4.748-6.385-4.883,3.187,2.982,4.374H387.136s3.352-3.956,3.4-4.04c-0.81-.321-2.037-0.795-5.761-2.2-0.14.2-3.289,5.848-12.161,17.166a16.259,16.259,0,0,1,3.537,3.511c0.614-.6,1.848-1.932,4.278-4.88l0.859-1.04V42.881h6.019v-1.34h9.083v3.892H374.537v4.428h16.626s-5.837,4.64-16.807,8.015c1.425,1.944,2.9,3.317,4.272,4.98a75.628,75.628,0,0,0,16.98-9.293l0.783-.591V64.189h6.014V52.177l0.8,0.741a45.442,45.442,0,0,0,12.7,8.18l0.342,0.148,0.253,0.105a27.1,27.1,0,0,0,3.9,1.418,57.066,57.066,0,0,0,2.919-5.124,54.073,54.073,0,0,1-15.325-7.784h15.348V45.434Zm-24.487-7.881H387.308V34.336h11.559v3.216Zm0-6.751H387.308V27.807h11.559V30.8Zm0-6.749H387.308V21.064h11.559v2.989Zm67.284-5.625h-5.683v5.941h-16.8v5.4H456.3A47.073,47.073,0,0,1,443.352,45.48c1.4,1.7,2.741,3.157,3.938,4.629a52.3,52.3,0,0,0,13.178-16.024V46.357c0.077,1.557-3.634,2.227-5.365,2.51,0.446,1.972,1.108,5.021,1.273,5.71,0,0,9.775-1.318,9.775-7.432V29.764h7.478v-5.4h-7.478V18.427Zm-30.627-6.609V63.124H441v-2.6h34.236v2.844h5.7V11.818H435.524Zm39.948,43.615H441V16.96h34.472V55.433ZM141.885,88.555l3.751-.359a4.569,4.569,0,0,0,1.375,2.769,4.165,4.165,0,0,0,2.8.884,4.3,4.3,0,0,0,2.809-.788,2.342,2.342,0,0,0,.945-1.843,1.737,1.737,0,0,0-.4-1.152,3.184,3.184,0,0,0-1.388-.826q-0.678-.236-3.089-0.837a10.5,10.5,0,0,1-4.354-1.892,4.978,4.978,0,0,1-1.759-3.848,4.916,4.916,0,0,1,.828-2.732A5.183,5.183,0,0,1,145.787,76a9.539,9.539,0,0,1,3.761-.666,8.077,8.077,0,0,1,5.416,1.575,5.551,5.551,0,0,1,1.91,4.2l-3.86.172a3.279,3.279,0,0,0-1.063-2.119,3.891,3.891,0,0,0-2.444-.645,4.4,4.4,0,0,0-2.633.691,1.4,1.4,0,0,0-.613,1.187,1.471,1.471,0,0,0,.574,1.161,10.134,10.134,0,0,0,3.546,1.28,18.789,18.789,0,0,1,4.165,1.377,5.37,5.37,0,0,1,2.112,1.942,6.01,6.01,0,0,1-.149,6.117,5.467,5.467,0,0,1-2.581,2.13,10.829,10.829,0,0,1-4.158.7,8.288,8.288,0,0,1-5.565-1.672A7.26,7.26,0,0,1,141.885,88.555Zm27.851,6.183v-2.07a5.329,5.329,0,0,1-1.985,1.745,5.57,5.57,0,0,1-2.6.637,5.068,5.068,0,0,1-2.5-.612,3.611,3.611,0,0,1-1.6-1.718,7.674,7.674,0,0,1-.494-3.058V80.92h3.658v6.344a17.513,17.513,0,0,0,.2,3.568,1.947,1.947,0,0,0,.736,1.04,2.272,2.272,0,0,0,1.356.383,2.886,2.886,0,0,0,1.682-.513,2.61,2.61,0,0,0,1.017-1.273,14.725,14.725,0,0,0,.274-3.725V80.92h3.657V94.739h-3.407Zm19.788,0h-3.658V87.685a10.862,10.862,0,0,0-.235-2.9,2.034,2.034,0,0,0-.766-1.021,2.2,2.2,0,0,0-1.276-.364,2.962,2.962,0,0,0-1.715.521,2.63,2.63,0,0,0-1.041,1.379,11.9,11.9,0,0,0-.281,3.176v6.26H176.9V80.92H180.3v2.03a5.684,5.684,0,0,1,6.782-1.906,3.706,3.706,0,0,1,1.52,1.113,4.02,4.02,0,0,1,.717,1.535,11.375,11.375,0,0,1,.2,2.459v8.588Zm2.422-3.935,3.673-.562a2.688,2.688,0,0,0,.949,1.618,3.211,3.211,0,0,0,2,.552,3.61,3.61,0,0,0,2.132-.521,1.163,1.163,0,0,0,.481-0.977,0.964,0.964,0,0,0-.26-0.69,2.9,2.9,0,0,0-1.222-.482,19.694,19.694,0,0,1-5.6-1.783,3.559,3.559,0,0,1-1.638-3.109,3.833,3.833,0,0,1,1.418-3.02,6.62,6.62,0,0,1,4.4-1.223,7.67,7.67,0,0,1,4.213.923,4.722,4.722,0,0,1,1.9,2.731l-3.454.64a2.141,2.141,0,0,0-.836-1.24,3.034,3.034,0,0,0-1.755-.431,3.932,3.932,0,0,0-2.059.4,0.866,0.866,0,0,0-.415.742,0.811,0.811,0,0,0,.364.665,13.673,13.673,0,0,0,3.409,1.029,10.146,10.146,0,0,1,4.072,1.628,3.384,3.384,0,0,1,1.143,2.72,4.179,4.179,0,0,1-1.588,3.267,7.032,7.032,0,0,1-4.7,1.366,7.72,7.72,0,0,1-4.471-1.143A5.263,5.263,0,0,1,191.946,90.8Zm19.782-15.146v7.015a5.5,5.5,0,0,1,6.516-1.6,3.724,3.724,0,0,1,1.532,1.2,4.336,4.336,0,0,1,.7,1.613,14.4,14.4,0,0,1,.189,2.745v8.107h-3.658v-7.3a10.736,10.736,0,0,0-.209-2.759,1.815,1.815,0,0,0-.736-0.93,2.38,2.38,0,0,0-1.325-.345,3.043,3.043,0,0,0-1.631.443,2.558,2.558,0,0,0-1.049,1.334,7.935,7.935,0,0,0-.333,2.635v6.924h-3.657V75.658h3.657Zm12.661,3.388V75.658h3.657v3.388h-3.657Zm0,15.692V80.92h3.657V94.739h-3.657Zm20,0h-3.657V87.685a10.847,10.847,0,0,0-.236-2.9,2.032,2.032,0,0,0-.765-1.021,2.2,2.2,0,0,0-1.276-.364,2.965,2.965,0,0,0-1.716.521A2.628,2.628,0,0,0,235.7,85.3a11.853,11.853,0,0,0-.281,3.176v6.26h-3.658V80.92h3.408v2.03a5.684,5.684,0,0,1,6.782-1.906,3.712,3.712,0,0,1,1.52,1.113,4.034,4.034,0,0,1,.717,1.535,11.386,11.386,0,0,1,.2,2.459v8.588Zm11.723-4.4,3.642,0.609A5.989,5.989,0,0,1,257.529,94a6.518,6.518,0,0,1-3.8,1.049,6.189,6.189,0,0,1-5.339-2.355,7.912,7.912,0,0,1-1.367-4.762,7.622,7.622,0,0,1,1.8-5.381,5.925,5.925,0,0,1,4.548-1.945,6.149,6.149,0,0,1,4.873,2.037q1.785,2.036,1.707,6.239h-9.175a3.692,3.692,0,0,0,.886,2.53,2.773,2.773,0,0,0,2.111.9,2.24,2.24,0,0,0,1.447-.469A2.9,2.9,0,0,0,256.108,90.335Zm0.2-3.685a3.536,3.536,0,0,0-.82-2.419,2.514,2.514,0,0,0-1.9-.829,2.54,2.54,0,0,0-1.979.873,3.39,3.39,0,0,0-.767,2.374h5.467Zm13.958,8.088V75.658h3.86V94.739h-3.86Zm20.091,0H286.7V87.685a10.8,10.8,0,0,0-.236-2.9,2.028,2.028,0,0,0-.766-1.021,2.195,2.195,0,0,0-1.276-.364,2.962,2.962,0,0,0-1.715.521,2.628,2.628,0,0,0-1.04,1.379,11.853,11.853,0,0,0-.281,3.176v6.26h-3.658V80.92h3.407v2.03a5.685,5.685,0,0,1,6.783-1.906,3.709,3.709,0,0,1,1.519,1.113,4.021,4.021,0,0,1,.718,1.535,11.386,11.386,0,0,1,.2,2.459v8.588Zm2.423-3.935,3.673-.562a2.684,2.684,0,0,0,.95,1.618,3.2,3.2,0,0,0,2,.552,3.611,3.611,0,0,0,2.133-.521,1.164,1.164,0,0,0,.48-0.977,0.968,0.968,0,0,0-.259-0.69,2.909,2.909,0,0,0-1.223-.482,19.707,19.707,0,0,1-5.6-1.783A3.561,3.561,0,0,1,293.3,84.85a3.838,3.838,0,0,1,1.417-3.02,6.62,6.62,0,0,1,4.4-1.223,7.667,7.667,0,0,1,4.213.923,4.713,4.713,0,0,1,1.9,2.731l-3.454.64a2.14,2.14,0,0,0-.835-1.24,3.034,3.034,0,0,0-1.755-.431,3.934,3.934,0,0,0-2.06.4,0.867,0.867,0,0,0-.414.742,0.81,0.81,0,0,0,.363.665,13.7,13.7,0,0,0,3.41,1.029A10.134,10.134,0,0,1,304.55,87.7a3.384,3.384,0,0,1,1.143,2.72,4.176,4.176,0,0,1-1.588,3.267,7.029,7.029,0,0,1-4.7,1.366,7.718,7.718,0,0,1-4.47-1.143A5.263,5.263,0,0,1,292.783,90.8Zm25.237,3.935v-2.07a5.329,5.329,0,0,1-1.985,1.745,5.57,5.57,0,0,1-2.6.637,5.075,5.075,0,0,1-2.5-.612,3.609,3.609,0,0,1-1.6-1.718,7.674,7.674,0,0,1-.494-3.058V80.92H312.5v6.344a17.592,17.592,0,0,0,.2,3.568,1.949,1.949,0,0,0,.737,1.04,2.27,2.27,0,0,0,1.356.383,2.886,2.886,0,0,0,1.682-.513,2.621,2.621,0,0,0,1.017-1.273,14.776,14.776,0,0,0,.274-3.725V80.92h3.657V94.739H318.02Zm10.706,0h-3.657V80.92h3.407v1.965a5.906,5.906,0,0,1,1.566-1.835,2.875,2.875,0,0,1,1.579-.443,4.636,4.636,0,0,1,2.4.69l-1.133,3.187a3.216,3.216,0,0,0-1.719-.6,2.038,2.038,0,0,0-1.3.422,2.9,2.9,0,0,0-.839,1.529,21.7,21.7,0,0,0-.306,4.633v4.267Zm9.62-9.6-3.33-.593a5.176,5.176,0,0,1,1.929-2.971,7.054,7.054,0,0,1,4.065-.964,8.769,8.769,0,0,1,3.647.579,3.637,3.637,0,0,1,1.687,1.47,7.525,7.525,0,0,1,.489,3.272L346.786,90.2a14.84,14.84,0,0,0,.175,2.687,7.85,7.85,0,0,0,.653,1.854h-3.626c-0.1-.243-0.212-0.6-0.351-1.08-0.06-.217-0.1-0.359-0.129-0.429a6.6,6.6,0,0,1-2,1.366,5.726,5.726,0,0,1-2.275.456,4.706,4.706,0,0,1-3.361-1.158,3.86,3.86,0,0,1-1.228-2.931,3.944,3.944,0,0,1,.559-2.09,3.659,3.659,0,0,1,1.567-1.406,12.193,12.193,0,0,1,2.906-.853,19.819,19.819,0,0,0,3.549-.9V85.35a1.889,1.889,0,0,0-.519-1.5,3.1,3.1,0,0,0-1.958-.448,2.6,2.6,0,0,0-1.517.384A2.66,2.66,0,0,0,338.346,85.136Zm4.876,2.967a22.744,22.744,0,0,1-2.221.559,6.692,6.692,0,0,0-1.988.638,1.524,1.524,0,0,0-.714,1.288,1.8,1.8,0,0,0,.571,1.327,2,2,0,0,0,1.456.559,3.156,3.156,0,0,0,1.883-.651,2.288,2.288,0,0,0,.871-1.21,7.3,7.3,0,0,0,.142-1.782V88.1Zm19.813,6.636h-3.657V87.685a10.847,10.847,0,0,0-.236-2.9,2.032,2.032,0,0,0-.765-1.021A2.2,2.2,0,0,0,357.1,83.4a2.965,2.965,0,0,0-1.716.521,2.628,2.628,0,0,0-1.04,1.379,11.853,11.853,0,0,0-.281,3.176v6.26h-3.658V80.92h3.408v2.03a5.684,5.684,0,0,1,6.782-1.906,3.712,3.712,0,0,1,1.52,1.113,4.034,4.034,0,0,1,.717,1.535,11.386,11.386,0,0,1,.2,2.459v8.588ZM378.806,85l-3.61.656a2.618,2.618,0,0,0-.828-1.624,2.506,2.506,0,0,0-1.676-.546,2.74,2.74,0,0,0-2.184.944,4.827,4.827,0,0,0-.814,3.155,5.575,5.575,0,0,0,.829,3.474,2.725,2.725,0,0,0,2.226,1.015,2.483,2.483,0,0,0,1.71-.591,3.548,3.548,0,0,0,.94-2.033l3.6,0.609a6.371,6.371,0,0,1-2.149,3.735,6.662,6.662,0,0,1-4.26,1.262,6.33,6.33,0,0,1-4.838-1.913,7.405,7.405,0,0,1-1.8-5.3,7.424,7.424,0,0,1,1.81-5.328,6.425,6.425,0,0,1,4.9-1.906,6.689,6.689,0,0,1,4.016,1.084A6.008,6.008,0,0,1,378.806,85Zm10.8,5.34,3.641,0.609A5.982,5.982,0,0,1,391.022,94a6.518,6.518,0,0,1-3.8,1.049,6.189,6.189,0,0,1-5.339-2.355,7.912,7.912,0,0,1-1.367-4.762,7.618,7.618,0,0,1,1.8-5.381,5.925,5.925,0,0,1,4.547-1.945,6.15,6.15,0,0,1,4.874,2.037q1.785,2.036,1.707,6.239h-9.175a3.692,3.692,0,0,0,.886,2.53,2.773,2.773,0,0,0,2.111.9,2.242,2.242,0,0,0,1.447-.469A2.916,2.916,0,0,0,389.6,90.335Zm0.2-3.685a3.536,3.536,0,0,0-.821-2.419,2.51,2.51,0,0,0-1.9-.829,2.54,2.54,0,0,0-1.979.873,3.385,3.385,0,0,0-.768,2.374H389.8Zm22.961,1.093V84.511h8.316v7.6a10.46,10.46,0,0,1-3.512,2.064,12.8,12.8,0,0,1-4.659.892,10.466,10.466,0,0,1-5.225-1.256,7.989,7.989,0,0,1-3.349-3.593,11.608,11.608,0,0,1-1.121-5.084,10.988,10.988,0,0,1,1.251-5.3,8.422,8.422,0,0,1,3.661-3.554,9.889,9.889,0,0,1,4.574-.951,9.135,9.135,0,0,1,5.556,1.489,6.721,6.721,0,0,1,2.574,4.116l-3.83.718a4.029,4.029,0,0,0-1.519-2.216,4.6,4.6,0,0,0-2.783-.813,5.231,5.231,0,0,0-4.021,1.6,6.736,6.736,0,0,0-1.492,4.751,7.464,7.464,0,0,0,1.512,5.1,5.057,5.057,0,0,0,3.965,1.7A6.661,6.661,0,0,0,415.1,91.3a8.319,8.319,0,0,0,2.094-1.146v-2.41h-4.424Zm15.351,7h-3.657V80.92h3.407v1.965a5.893,5.893,0,0,1,1.566-1.835,2.875,2.875,0,0,1,1.579-.443,4.636,4.636,0,0,1,2.4.69l-1.133,3.187a3.216,3.216,0,0,0-1.719-.6,2.036,2.036,0,0,0-1.3.422,2.9,2.9,0,0,0-.839,1.529,21.7,21.7,0,0,0-.306,4.633v4.267Zm6.025-7.1a7.467,7.467,0,0,1,.9-3.526,6.164,6.164,0,0,1,2.548-2.6,7.581,7.581,0,0,1,3.683-.9,6.918,6.918,0,0,1,5.148,2.037,7.028,7.028,0,0,1,2.008,5.146,7.119,7.119,0,0,1-2.027,5.2,6.856,6.856,0,0,1-5.1,2.062,8.05,8.05,0,0,1-3.63-.859,5.9,5.9,0,0,1-2.626-2.518A8.381,8.381,0,0,1,434.141,87.634Zm3.751,0.2a4.563,4.563,0,0,0,.978,3.147,3.2,3.2,0,0,0,4.818,0,4.628,4.628,0,0,0,.972-3.174,4.547,4.547,0,0,0-.972-3.121,3.2,3.2,0,0,0-4.818,0A4.565,4.565,0,0,0,437.892,87.829ZM460.4,94.739v-2.07a5.329,5.329,0,0,1-1.985,1.745,5.566,5.566,0,0,1-2.595.637,5.072,5.072,0,0,1-2.5-.612,3.6,3.6,0,0,1-1.6-1.718,7.654,7.654,0,0,1-.5-3.058V80.92h3.658v6.344a17.513,17.513,0,0,0,.2,3.568,1.944,1.944,0,0,0,.737,1.04,2.267,2.267,0,0,0,1.355.383,2.893,2.893,0,0,0,1.683-.513,2.621,2.621,0,0,0,1.017-1.273,14.794,14.794,0,0,0,.273-3.725V80.92h3.658V94.739H460.4Zm7.1-13.818H470.9v2.03a5.093,5.093,0,0,1,1.8-1.692,4.964,4.964,0,0,1,2.517-.651,5.286,5.286,0,0,1,4.1,1.887A7.619,7.619,0,0,1,481,87.751a7.854,7.854,0,0,1-1.7,5.38,5.284,5.284,0,0,1-4.108,1.92,4.683,4.683,0,0,1-2.081-.456,6.994,6.994,0,0,1-1.962-1.561V100H467.5V80.92Zm3.611,6.674a5.3,5.3,0,0,0,.929,3.441,2.845,2.845,0,0,0,2.262,1.112,2.662,2.662,0,0,0,2.132-1.021,5.24,5.24,0,0,0,.851-3.35,4.965,4.965,0,0,0-.877-3.225,2.716,2.716,0,0,0-2.171-1.054A2.823,2.823,0,0,0,472,84.531,4.579,4.579,0,0,0,471.106,87.594Z"/>
  <path id="形状_2" data-name="形状 2" class="cls-1" d="M590.342,0H578.119V1.9H552V7.074h26.119V9.3H554.363V30.483h23.756v2.693H553.6v5.471h57.261a4.456,4.456,0,0,0,4.4-3.855V31.184h-9.978v1.992H590.342V30.483h16.01c8.218-.294,7.877-7.2,7.877-7.2V9.3H590.342V7.074h24.535a2.579,2.579,0,0,0,2.606-2.206V1.9H590.342V0ZM578.119,14.1v3.384H566.27V14.1h11.849ZM566.27,25.678V22.295h11.849v3.383H566.27Zm24.072-3.383h12.123v3.383H590.342V22.295Zm12.123-8.19v3.384H590.342V14.1h12.123ZM602.42,48.627H578.837c-1.9,0-1.674-1.35-1.674-1.35V41.183H566.082v7.332c0.054,6.953,6.9,6.506,6.9,6.506h25.81c3.9-.1,3.63-2.857,3.63-2.857V48.627ZM554.1,41.193l-0.611,13.851h6.35a3.837,3.837,0,0,0,4.066-3.89l0.444-9.961H554.1ZM689.371,7.1V54.758h6.705c5.1,0,4.615-4.563,4.615-4.563V43.663H710.96c5.156,0,7.952-3.076,8.128-7.443V15.689h-18.4V8.356H715.63c2.724,0,4.795-.746,5.016-3.508V0.893H696.913C691.711,0.893,689.2,2.741,689.371,7.1Zm18.8,15.372v11.24c0,2.26-.77,3.311-3.194,3.163h-4.282v-14.4h7.476ZM733.7,8.356h15.289c3.122,0,4.795-.965,5.016-3.728V0.893H729.911c-5.2,0-7.717,1.179-7.54,5.322V54.533a59.406,59.406,0,0,0,6.705.224c5.1,0,4.619-4.563,4.619-4.563V22.477h7.025s0,32.257,0,32.34h11.056V23.057l1.552-7.367H733.7V8.356ZM583.759,46.231H599.4c0.493,0,.943.04,1.345,0l-1.83-4.048a2.161,2.161,0,0,0-1.938-1.12h-17.6l1.166,2.984A3.769,3.769,0,0,0,583.759,46.231Zm26.458-5.753h-7.544l1.608,14.286h10.927l-1.331-11.5C613.766,40.322,610.217,40.478,610.217,40.478Zm68.053-3.532h-9.325A1.957,1.957,0,0,0,666.89,38.6l-1.434,9.853h-6.248V34.689h22.131V28.414H659.208V22.4H681.5V16.8h3.607L678.3,4.026S676.938,0.87,671.821.9H633.6a6.532,6.532,0,0,0-6.253,3.537L620.214,16.8h3.607v5.6h22.3v6.01H623.988v6.275h22.129V48.451h-6.641L638.04,38.6a1.956,1.956,0,0,0-2.053-1.652h-9.325l1.351,11.5H619.9v6.307h61.626c3.991,0,4.247-3.093,4.247-3.093V48.451h-8.857ZM634.585,14.982l3.792-7.334h28.665l4.1,7.178a3.268,3.268,0,0,0,1.174,1.042H633.434A2.185,2.185,0,0,0,634.585,14.982ZM561.169,93.033a2.1,2.1,0,0,1-.614,1.489,2.07,2.07,0,0,1-1.479.62h-5.584V65.709a2.118,2.118,0,0,1,.613-1.491,2.086,2.086,0,0,1,1.482-.616h5.582V93.033Zm61.05-17.057a12.763,12.763,0,0,0-16.509.667,11.13,11.13,0,0,0-3.175,8.122,10.7,10.7,0,0,0,3.03,7.746c2.016,2.085,4.7,2.975,8.057,2.975a7.15,7.15,0,0,0,5.074-1.755,1.507,1.507,0,0,0,1.685,1.377h4.964V82.991A8.849,8.849,0,0,0,622.219,75.976Zm-3.627,10.165a4.826,4.826,0,0,1-1.21,3.351,4.038,4.038,0,0,1-3.1,1.334,4.737,4.737,0,0,1-3.888-2.021,7.277,7.277,0,0,1-1.314-4.217,8.051,8.051,0,0,1,1.314-4.441,4.507,4.507,0,0,1,3.938-2.4,4.7,4.7,0,0,1,2.039.488c1.719,0.828,2.255,2.914,2.222,6.261v1.642Zm50.368-9.23a9.887,9.887,0,0,0-3.559,7.876,9.39,9.39,0,0,0,3.468,7.614,12.467,12.467,0,0,0,8.352,2.784h9.428V92.153a1.572,1.572,0,0,0-1.284-1.045h-6.6a6.016,6.016,0,0,1-4.392-1.846,6.654,6.654,0,0,1-1.66-4.607,6.993,6.993,0,0,1,1.776-4.852,6.245,6.245,0,0,1,4.549-1.727h6.407a1.148,1.148,0,0,0,1.2-1.164V74h-9.062A12.957,12.957,0,0,0,668.96,76.911Zm79.481-1.893a12.3,12.3,0,0,0-6.523-1.748q-4.565,0-6.847,2.436a10.14,10.14,0,0,0-6.846-2.436,12.16,12.16,0,0,0-6.525,1.748,6.3,6.3,0,0,0-3.287,5.558V95.142h4.274a2.069,2.069,0,0,0,1.479-.62,2.094,2.094,0,0,0,.617-1.489V81.678a4.038,4.038,0,0,1,1.017-2.935,3.356,3.356,0,0,1,2.425-1.009,3.753,3.753,0,0,1,2.69,1.009,3.943,3.943,0,0,1,.944,2.935V95.142h4.247a2.069,2.069,0,0,0,1.479-.62,2.1,2.1,0,0,0,.615-1.489V81.678a4.125,4.125,0,0,1,1.055-2.969,3.408,3.408,0,0,1,2.663-.974,3.97,3.97,0,0,1,2.59,1.112,3.841,3.841,0,0,1,.944,2.831V95.142h4.23a2.073,2.073,0,0,0,1.48-.62,2.1,2.1,0,0,0,.614-1.489V80.577A6.291,6.291,0,0,0,748.441,75.019Zm-175.507.916h-12.25V81.11h12.25V95.142h5.583a2.073,2.073,0,0,0,1.481-.62,2.1,2.1,0,0,0,.615-1.489V63.6h-5.584a2.082,2.082,0,0,0-1.48.616,2.124,2.124,0,0,0-.615,1.491V75.935Zm21.339-11.971c-8.908,0-8.228,8.3-8.228,8.3v3.672H583V81.11h3.046V95h5.406a1.891,1.891,0,0,0,1.782-1.892v-12h7.11V75.935h-7.11V71.888c0-3.625,2.586-3.625,2.586-3.625h3.035A1.27,1.27,0,0,0,600.33,66.9l0.362-2.933h-6.419ZM660.69,89.351a2.941,2.941,0,1,0,2.923,2.941A2.932,2.932,0,0,0,660.69,89.351Zm41.187-19.6A12.265,12.265,0,1,0,714.06,82.012,12.224,12.224,0,0,0,701.877,69.749Zm0,18.849a6.585,6.585,0,1,1,6.542-6.587A6.568,6.568,0,0,1,701.877,88.6Zm-46.233,6.544h-7.9a3.083,3.083,0,0,1-2.279-1.017L627.287,74.016h7.9a3.069,3.069,0,0,1,2.276,1.014Zm-28.605,0h7.9a3.074,3.074,0,0,0,2.277-1.017L655.4,74.016h-7.9a3.05,3.05,0,0,0-1.247.265,3.081,3.081,0,0,0-1.032.749ZM730.77,100c-7.03-2.044-17.369-3.338-28.9-3.338s-21.863,1.294-28.89,3.338H730.77Z"/>
  <rect id="矩形_1" data-name="矩形 1" class="cls-2" x="515" width="2" height="100"/>
</svg>
