<svg id="Layer_1" data-name="Layer 1" xmlns="http://www.w3.org/2000/svg" viewBox="0 0 128 128"><defs><style>.cls-1{fill:none;}.cls-2,.cls-5{fill:#804f3b;}.cls-3{fill:#ff8444;}.cls-4{fill:#f8d0a1;}.cls-5{opacity:0.3;}.cls-6{fill:#f88e86;}.cls-7{fill:#9aadfd;}.cls-8{fill:#c3da66;}.cls-9{fill:#afce33;}.cls-10{fill:#ffc86b;}.cls-11{fill:#f5fdff;}.cls-12{fill:#ffa600;}</style></defs><title>橙牛汽车钱包</title><rect id="_矩形_" data-name="&lt;矩形&gt;" class="cls-1" width="128" height="128"/><rect class="cls-1" x="14" y="26.5" width="100" height="75"/><path class="cls-2" d="M3519.94,155c0.94-7.23,8.54-10.45,14.45-11.2h0l0.17,0c1.08-.07,2,0.4,2.05,1.07a0.92,0.92,0,0,1-.31.73h0a6.92,6.92,0,0,0,.68,10.08c3.79,3.15,8,3.73,22.84,2.7h0c-5,.35-9,2.93-9.43,6h0l-0.58,9c-4,.28-10.71-0.57-15.63-1.33C3521.66,170.15,3519,161.91,3519.94,155Z" transform="translate(-3496 -112)"/><path class="cls-2" d="M3600.06,156.18c-0.41-7.27-7.76-10.92-13.6-12h0l-0.16,0c-1.07-.14-2,0.29-2.13.95a0.91,0.91,0,0,0,.25.74h0a6.94,6.94,0,0,1-1.42,10c-4,2.92-8.22,3.26-23,1.38h0c5,0.64,8.74,3.44,9,6.49h0l-0.08,9c4,0.51,10.73,0,15.7-.42C3597.24,171.17,3600.45,163.1,3600.06,156.18Z" transform="translate(-3496 -112)"/><path class="cls-3" d="M3586.1,173.48s13.84-10.22,15.84-11.06,2.69,5.51,2.57,10.06c-0.16,6.15-11.62,4.18-12.84,4.34S3586.1,173.48,3586.1,173.48Z" transform="translate(-3496 -112)"/><path class="cls-2" d="M3586.82,172.86s0.51-.36,1.38-1l3.62-2.72c1.51-1.11,3.25-2.42,5.16-3.78,1-.68,1.95-1.37,3-2.05,0.51-.34,1-0.68,1.58-1a3,3,0,0,1,.45-0.24,1.27,1.27,0,0,1,.62-0.08,1.6,1.6,0,0,1,1,.59,5.06,5.06,0,0,1,.89,1.78,13.12,13.12,0,0,1,.42,1.85,19.39,19.39,0,0,1,.21,3.65,12.49,12.49,0,0,1-.53,3.39,5.51,5.51,0,0,1-.7,1.47,5,5,0,0,1-1.08,1.07,5.39,5.39,0,0,1-2.42,1,8.09,8.09,0,0,1-2,0,7.34,7.34,0,0,1-1.69-.34,8.44,8.44,0,0,0,1.7.2,7.89,7.89,0,0,0,1.93-.16,5.53,5.53,0,0,0,2.23-1,4.63,4.63,0,0,0,.95-1,5,5,0,0,0,.58-1.37,14.15,14.15,0,0,0,.43-3.26,18.79,18.79,0,0,0-.25-3.53,7.84,7.84,0,0,0-1.18-3.31,1,1,0,0,0-.57-0.38,1,1,0,0,0-.67.23c-0.53.3-1,.63-1.56,1-1,.67-2,1.35-3,2l-5.27,3.61c-1.54,1.06-2.85,1.92-3.76,2.52S3586.82,172.86,3586.82,172.86Z" transform="translate(-3496 -112)"/><path class="cls-3" d="M3533.91,174s-13.84-10.22-15.84-11.06-2.69,5.51-2.57,10.06c0.16,6.15,11.61,4.18,12.84,4.34S3533.91,174,3533.91,174Z" transform="translate(-3496 -112)"/><path class="cls-2" d="M3533.18,173.38s-0.54-.31-1.46-0.91S3529.51,171,3528,170l-5.27-3.61c-1-.66-2-1.34-3-2-0.51-.33-1-0.67-1.56-1a1,1,0,0,0-.67-0.23,1,1,0,0,0-.57.38,7.84,7.84,0,0,0-1.18,3.31,18.79,18.79,0,0,0-.25,3.53,14.16,14.16,0,0,0,.43,3.26,5,5,0,0,0,.58,1.37,4.61,4.61,0,0,0,.95,1,5.53,5.53,0,0,0,2.23,1,7.89,7.89,0,0,0,1.93.16,8.44,8.44,0,0,0,1.7-.2,7.34,7.34,0,0,1-1.69.34,8.09,8.09,0,0,1-2,0,5.39,5.39,0,0,1-2.42-1,5,5,0,0,1-1.08-1.07,5.49,5.49,0,0,1-.69-1.47,12.48,12.48,0,0,1-.53-3.39,19.39,19.39,0,0,1,.21-3.65,13.08,13.08,0,0,1,.42-1.85,5.05,5.05,0,0,1,.89-1.78,1.59,1.59,0,0,1,1-.59,1.27,1.27,0,0,1,.62.08,3,3,0,0,1,.45.24c0.55,0.32,1.07.66,1.58,1,1,0.68,2,1.38,3,2.05,1.91,1.36,3.65,2.67,5.16,3.78l3.62,2.72C3532.67,173,3533.18,173.38,3533.18,173.38Z" transform="translate(-3496 -112)"/><path class="cls-3" d="M3527.58,175.67c4.31-15.77,11.64-17.88,31.46-18.4,15.95-.42,27.58-1.58,31,20.5l-31.46,11.57Z" transform="translate(-3496 -112)"/><path class="cls-4" d="M3580.1,164.57c-3.17-3.37-9.58-4.46-20.19-4.11s-20.8.52-23,8.18a16.21,16.21,0,0,0-.48,4.5s16.34,3.71,23.7,3.71,22.46-3.71,22.46-3.71S3583.27,167.94,3580.1,164.57Z" transform="translate(-3496 -112)"/><path class="cls-2" d="M3528.29,173l0.21-.84c0.15-.54.34-1.35,0.7-2.34a17.76,17.76,0,0,1,1.62-3.45,15.89,15.89,0,0,1,3.27-3.74,21.12,21.12,0,0,1,5.08-3,31.25,31.25,0,0,1,6.27-1.92,55.3,55.3,0,0,1,6.93-.94c0.59,0,1.19-.11,1.79-0.14l1.8-.06c1.19,0,2.42-.1,3.62-0.07l3.6,0.06,3.59,0.17c1.19,0.07,2.36.2,3.52,0.3s2.3,0.32,3.43.47a26.58,26.58,0,0,1,6.31,1.83,15.76,15.76,0,0,1,2.68,1.49l1.14,0.92c0.37,0.31.66,0.69,1,1a15,15,0,0,1,2.57,4.25c0.31,0.67.54,1.32,0.75,1.92s0.4,1.15.56,1.65c0.33,1,.55,1.8.71,2.34l0.25,0.83-1.14-3.1c-0.18-.49-0.38-1-0.63-1.62s-0.5-1.22-.83-1.86a15.86,15.86,0,0,0-2.65-4,12.35,12.35,0,0,0-4.68-3.13,29,29,0,0,0-6.17-1.64c-1.11-.14-2.23-0.33-3.37-0.43s-2.31-.21-3.48-0.26l-3.55-.14-3.6,0c-1.21,0-2.38,0-3.58,0l-1.78,0c-0.59,0-1.18.08-1.76,0.12a54.41,54.41,0,0,0-6.83.86c-1.08.26-2.18,0.41-3.19,0.75a23.65,23.65,0,0,0-3,1,20.48,20.48,0,0,0-5,2.75,16.89,16.89,0,0,0-3.31,3.5,17.47,17.47,0,0,0-1.75,3.32c-0.4,1-.65,1.76-0.83,2.29Z" transform="translate(-3496 -112)"/><path class="cls-2" d="M3564.18,172.42a5.93,5.93,0,0,1-.05-0.88,8.49,8.49,0,0,1,.33-2.33,7.32,7.32,0,0,1,1.64-3,5,5,0,0,1,3.63-1.67,4.85,4.85,0,0,1,2,.49,6.41,6.41,0,0,1,1.6,1.14,8.55,8.55,0,0,1,1.91,2.79,7.54,7.54,0,0,1,.59,2.28,4.25,4.25,0,0,1,0,.66l0,0.23a5.31,5.31,0,0,0-.18-0.85,8.42,8.42,0,0,0-.91-2.06,9.56,9.56,0,0,0-2-2.39,6,6,0,0,0-1.43-.92,3.84,3.84,0,0,0-1.63-.36,3.94,3.94,0,0,0-1.63.36,5,5,0,0,0-1.37.94,8,8,0,0,0-1.72,2.55,10.23,10.23,0,0,0-.68,2.15C3564.22,172.1,3564.18,172.42,3564.18,172.42Z" transform="translate(-3496 -112)"/><path class="cls-2" d="M3554.61,172.42s0-.32-0.14-0.86a10.21,10.21,0,0,0-.68-2.15,8,8,0,0,0-1.72-2.55,5,5,0,0,0-1.37-.94,3.94,3.94,0,0,0-1.63-.36,3.84,3.84,0,0,0-1.63.36,6,6,0,0,0-1.43.92,9.56,9.56,0,0,0-2,2.39,8.42,8.42,0,0,0-.91,2.06,5.31,5.31,0,0,0-.18.85l0-.23a4.22,4.22,0,0,1,0-.66,7.55,7.55,0,0,1,.59-2.28,8.55,8.55,0,0,1,1.91-2.79A6.4,6.4,0,0,1,3547,165a4.85,4.85,0,0,1,2-.49,5,5,0,0,1,3.63,1.67,7.32,7.32,0,0,1,1.64,3,8.5,8.5,0,0,1,.33,2.33A5.93,5.93,0,0,1,3554.61,172.42Z" transform="translate(-3496 -112)"/><path class="cls-5" d="M3593.91,200.75c0,6.35-15.25,12.75-34.07,12.75s-34.07-6.4-34.07-12.75,15.25-11.5,34.07-11.5S3593.91,194.39,3593.91,200.75Z" transform="translate(-3496 -112)"/><path class="cls-3" d="M3533.79,174.64c-7.73-1.58-14,2.43-14,8.21,0,6,.71,16.74,6.32,19.55,5.78,2.9,26.64,1.8,33.29,2.54,11.51,1.28,24.79,0,32.2-2,7-1.86,7.86-8.63,7.4-20.72-0.31-8.22-7.64-8.61-13.55-7,0,0-19.86,6.39-27.59,6.39S3533.79,174.64,3533.79,174.64Z" transform="translate(-3496 -112)"/><path class="cls-3" d="M3531.13,203.7s18,5.9,30.15,5.9c7.42,0,28.25-4.76,31-8.36C3594.81,197.86,3531.13,203.7,3531.13,203.7Z" transform="translate(-3496 -112)"/><path class="cls-2" d="M3540.07,176.36s-0.82-.2-2.28-0.48a57.78,57.78,0,0,0-6-.93,25.89,25.89,0,0,0-4-.15,6,6,0,0,0-4,1.3,8.53,8.53,0,0,0-2.35,3.85,19.23,19.23,0,0,0-.79,4.81,38.12,38.12,0,0,0,.11,5,31.54,31.54,0,0,0,.64,4.75,13.16,13.16,0,0,0,1.55,4.07,8.91,8.91,0,0,0,2.62,2.83,11.76,11.76,0,0,0,3,1.45,15.72,15.72,0,0,0,2.56.61c1.46,0.22,2.31.27,2.31,0.27l-0.61,0a14.83,14.83,0,0,1-1.73,0,16.17,16.17,0,0,1-2.69-.34,11.07,11.07,0,0,1-3.32-1.3,9.89,9.89,0,0,1-3.11-2.95,14.17,14.17,0,0,1-1.84-4.38,32.65,32.65,0,0,1-.72-4.94,39.14,39.14,0,0,1-.07-5.14,18.68,18.68,0,0,1,.93-5.12,9.26,9.26,0,0,1,2.82-4.31l0.47-.36a4.16,4.16,0,0,1,.61-0.35,5.57,5.57,0,0,1,1.2-.39,11.34,11.34,0,0,1,2.32-.23,26.63,26.63,0,0,1,4.15.34,55.64,55.64,0,0,1,6,1.38C3539.27,176.08,3540.07,176.36,3540.07,176.36Z" transform="translate(-3496 -112)"/><path class="cls-2" d="M3579.36,176.36s0.8-.29,2.23-0.71a55.51,55.51,0,0,1,6-1.38,26.5,26.5,0,0,1,4.15-.34,11.26,11.26,0,0,1,2.32.24,5.56,5.56,0,0,1,1.2.4,4.18,4.18,0,0,1,.61.35l0.47,0.36a9.31,9.31,0,0,1,2.82,4.32,18.69,18.69,0,0,1,.92,5.13,39.2,39.2,0,0,1-.08,5.14,34.44,34.44,0,0,1-.71,4.94,14.52,14.52,0,0,1-1.79,4.41,9.23,9.23,0,0,1-3.13,3,9.85,9.85,0,0,1-3.39,1.16,14.74,14.74,0,0,1-2.71.15,14.09,14.09,0,0,1-1.73-.14l-0.61-.08s0.86,0,2.33-.08a14.29,14.29,0,0,0,2.6-.43,10.23,10.23,0,0,0,3.06-1.31,8.24,8.24,0,0,0,2.62-2.82,13.48,13.48,0,0,0,1.5-4.1,33.37,33.37,0,0,0,.63-4.76,38.45,38.45,0,0,0,.11-5A19.28,19.28,0,0,0,3598,180a8.58,8.58,0,0,0-2.34-3.87,5.91,5.91,0,0,0-4-1.32,25.77,25.77,0,0,0-4,.15,57.76,57.76,0,0,0-6.05.93C3580.18,176.16,3579.36,176.36,3579.36,176.36Z" transform="translate(-3496 -112)"/><path class="cls-2" d="M3531.13,203.7l0.63,0.22,1.78,0.58c0.77,0.24,1.71.52,2.79,0.83s2.31,0.6,3.64.94,2.8,0.65,4.34,1,3.19,0.56,4.89.81,3.46,0.45,5.26.6,3.62,0.27,5.45.28l1.37,0,1.36,0c0.93,0,1.82-.08,2.7-0.15,1.78-.14,3.54-0.38,5.23-0.64s3.32-.6,4.87-0.91,3-.68,4.33-1c2.66-.72,4.88-1.33,6.42-1.83s2.41-.79,2.41-0.79-0.83.41-2.32,1c-0.75.31-1.66,0.67-2.71,1.08s-2.25.83-3.58,1.25-2.77.85-4.31,1.26l-2.38.6c-0.82.17-1.66,0.36-2.51,0.51-1.72.31-3.49,0.6-5.34,0.75-0.92.08-1.86,0.16-2.77,0.17l-1.4,0-1.4,0c-1.86,0-3.72-.16-5.54-0.33s-3.6-.44-5.32-0.73-3.36-.67-4.91-1-3-.78-4.33-1.17-2.54-.81-3.6-1.19-2-.74-2.73-1C3532,204.12,3531.13,203.7,3531.13,203.7Z" transform="translate(-3496 -112)"/><path class="cls-2" d="M3559.57,206.43a2.59,2.59,0,0,1-1.17-.27,3.73,3.73,0,0,1-1.1-.84,6.06,6.06,0,0,1-1-1.53,7.26,7.26,0,0,1-.6-2.1,9,9,0,0,1-.07-1.2,7.55,7.55,0,0,1,.13-1.29,5.71,5.71,0,0,1,1.09-2.54,3.56,3.56,0,0,1,2.71-1.45l0.38,0c0.12,0,.29.06,0.43,0.09a3.25,3.25,0,0,1,.76.32,3.8,3.8,0,0,1,1.15,1,5.7,5.7,0,0,1,1.09,2.54,7.8,7.8,0,0,1-.54,4.59,4.74,4.74,0,0,1-2.09,2.37A2.59,2.59,0,0,1,3559.57,206.43Zm0,0a2.58,2.58,0,0,0,1.15-.3,4,4,0,0,0,1.83-2.45,6.8,6.8,0,0,0,.28-2,7.23,7.23,0,0,0-.37-2.23,5.76,5.76,0,0,0-1.12-2,2.21,2.21,0,0,0-3.56,0,5.74,5.74,0,0,0-1.12,2,6.75,6.75,0,0,0-.27,1.1c0,0.18,0,.39-0.07.58s0,0.36,0,.54a6.82,6.82,0,0,0,.28,2,4,4,0,0,0,1.84,2.45A2.58,2.58,0,0,0,3559.57,206.43Z" transform="translate(-3496 -112)"/><path class="cls-4" d="M3542.57,182.67c-2.4-2.38-16.56-6.14-17.27-1.95s0.05,11,3.36,12.49,15.61,1.93,15.48-1.52S3545,185.05,3542.57,182.67Z" transform="translate(-3496 -112)"/><path class="cls-4" d="M3577.37,182.38c1.14-2.84,16.77-5.67,17.33-1.45s-0.44,11-3.8,12.39-15.67,1.49-15.42-2A28.42,28.42,0,0,1,3577.37,182.38Z" transform="translate(-3496 -112)"/><path id="_路径_" data-name="&lt;路径&gt;" class="cls-3" d="M3518.68,197.64s-8.64-1.56-9.89-8.23l-2.19,4.79s-0.31,7.81,11.35,7.6Z" transform="translate(-3496 -112)"/><path id="_路径_2" data-name="&lt;路径&gt;" class="cls-6" d="M3532.11,133.3l4.51,3.91s7.62,2,7.42-9.53c0,0-3.51,1-4.31-1.1C3539.74,126.58,3541.14,134.61,3532.11,133.3Z" transform="translate(-3496 -112)"/><path id="_路径_3" data-name="&lt;路径&gt;" class="cls-7" d="M3607.24,134.77l0.56-3.47c-0.34,0-7-1.9-7.6-6.82,0,0-4.14,4.25,0,7.6C3600.19,132.08,3602.09,134.54,3607.24,134.77Z" transform="translate(-3496 -112)"/><path id="_路径_4" data-name="&lt;路径&gt;" class="cls-8" d="M3518.25,168.86l0.41-2.56c-0.25,0-5.2-1.4-5.62-5,0,0-3.06,3.14,0,5.62C3513,166.88,3514.45,168.69,3518.25,168.86Z" transform="translate(-3496 -112)"/><path id="_路径_5" data-name="&lt;路径&gt;" class="cls-9" d="M3603.08,199.3v5.54s1.65,5.66,11.44,2.12c0,0-2-1.55-1.41-3.25C3613.1,203.71,3605,205,3603.08,199.3Z" transform="translate(-3496 -112)"/><g id="_编组_" data-name="&lt;编组&gt;"><path id="_路径_6" data-name="&lt;路径&gt;" class="cls-10" d="M3503.32,144.73l3.42-5.31a12.71,12.71,0,0,1,9.77.84c5.1,2.65,6,6.63,6,6.63l-3,4.94Z" transform="translate(-3496 -112)"/><path id="_路径_7" data-name="&lt;路径&gt;" class="cls-11" d="M3507.86,140.74s2.16-1.68,4-1.33,4.26,1.54,4.47,2.37-1.19.35-2,0-2.86-1.26-3.77-1S3507.65,141.65,3507.86,140.74Z" transform="translate(-3496 -112)"/><ellipse id="_路径_8" data-name="&lt;路径&gt;" class="cls-12" cx="3511.32" cy="148.43" rx="3.07" ry="8.87" transform="translate(-1466.19 3223.37) rotate(-67.49)"/></g><g id="_编组_2" data-name="&lt;编组&gt;"><path id="_路径_9" data-name="&lt;路径&gt;" class="cls-10" d="M3594.17,183.4l-1-7A14.2,14.2,0,0,1,3602,170c6.25-1.49,9.92,1.2,9.92,1.2l1.09,6.37Z" transform="translate(-3496 -112)"/><path id="_路径_10" data-name="&lt;路径&gt;" class="cls-11" d="M3595.08,176.72s0.6-3,2.39-4,4.72-1.82,5.51-1.27-0.75,1.16-1.65,1.43-3.34,1-3.9,1.93S3595.57,177.64,3595.08,176.72Z" transform="translate(-3496 -112)"/><ellipse id="_路径_11" data-name="&lt;路径&gt;" class="cls-12" cx="3603.63" cy="180.68" rx="9.92" ry="3.43" transform="translate(-3368.38 1036.21) rotate(-18.42)"/></g><g id="_编组_3" data-name="&lt;编组&gt;"><path id="_路径_12" data-name="&lt;路径&gt;" class="cls-10" d="M3557.19,152.73l-1.87-2.74a6.68,6.68,0,0,1,2.41-4.56,5.88,5.88,0,0,1,4.44-1.55l1.78,2.46Z" transform="translate(-3496 -112)"/><path id="_路径_13" data-name="&lt;路径&gt;" class="cls-11" d="M3556.19,149.71a3.23,3.23,0,0,1,.17-2.2c0.54-.81,1.62-1.75,2.06-1.68s-0.07.65-.4,0.95a4.18,4.18,0,0,0-1.25,1.63C3556.73,148.91,3556.59,150,3556.19,149.71Z" transform="translate(-3496 -112)"/><ellipse id="_路径_14" data-name="&lt;路径&gt;" class="cls-12" cx="3560.62" cy="149.61" rx="4.67" ry="1.61" transform="translate(-2576.58 2430.2) rotate(-44.58)"/></g></svg>